SplineFontDB: 3.0
FontName: Muli-Bold
FullName: Muli Bold
FamilyName: Muli
Weight: Bold
Copyright: Digitized data Copyright (c) 2011-2014, vernon adams.
Version: 2
ItalicAngle: 0
UnderlinePosition: 0
UnderlineWidth: 0
Ascent: 800
Descent: 200
UFOAscent: 761.719
UFODescent: -271.484
LayerCount: 2
Layer: 0 0 "Back"  1
Layer: 1 0 "Fore"  0
OS2Version: 0
OS2_WeightWidthSlopeOnly: 0
OS2_UseTypoMetrics: 0
CreationTime: 1395087929
ModificationTime: 1395087988
PfmFamily: 0
TTFWeight: 700
TTFWidth: 5
LineGap: 0
VLineGap: 0
OS2TypoAscent: 1178
OS2TypoAOffset: 0
OS2TypoDescent: -296
OS2TypoDOffset: 0
OS2TypoLinegap: 0
OS2WinAscent: 1178
OS2WinAOffset: 0
OS2WinDescent: 296
OS2WinDOffset: 0
HheadAscent: 1178
HheadAOffset: 0
HheadDescent: -296
HheadDOffset: 0
OS2Vendor: 'NeWT'
Lookup: 258 0 0 "'kern' Horizontal Kerning in Latin lookup 0"  {"'kern' Horizontal Kerning in Latin lookup 0 subtable"  } ['kern' ('latn' <'dflt' > ) ]
MarkAttachClasses: 1
DEI: 91125
LangName: 1033 "" "" "" "" "" "Version 2" "" "Muli is a trademark of Vernon Adams and may be registered in certain jurisdictions." "newtypography" "Vernon Adams" "" "newtypography.co.uk" "newtypography.co.uk" "Copyright (c) 2014, vernon adams.+AAoACgAA-This Font Software is licensed under the SIL Open Font License, Version 1.1.+AAoA-This license is available with a FAQ at:+AAoA-http://scripts.sil.org/OFL+AAoA" "http://scripts.sil.org/OFL" "" "Muli" "Bold" 
PickledData: "(dp1
S'com.typemytype.robofont.foreground.layerStrokeColor'
p2
(F0.5
F0
F0.5
F0.69999999999999996
tp3
sS'com.schriftgestaltung.fontMasterID'
p4
S'CAA31E91-2985-420A-82BA-6B4D8404D924'
p5
sS'GSDimensionPlugin.Dimensions'
p6
(dp7
S'CAA31E91-2985-420A-82BA-6B4D8404D924'
p8
(dp9
ssS'com.superpolator.editor.generateInfo'
p10
S'Generated with LTR Superpolator version 120823_1018_beta_'
p11
sS'com.typemytype.robofont.b.layerStrokeColor'
p12
(F1
F0.75
F0
F0.69999999999999996
tp13
sS'com.schriftgestaltung.useNiceNames'
p14
I01
sS'com.typemytype.robofont.layerOrder'
p15

StartChar: A
Encoding: 65 65 0
Width: 711
VWidth: 0
Flags: HW
PickledData: "(dp1
S'org.robofab.postScriptHintData'
p2
(dp3
sS'com.typemytype.robofont.layerData'
p4
(dp5
s."
LayerCount: 2
Fore
SplineSet
256 289 m 257
 446 289 l 257
 415 382 384 474 352 566 c 257
 320 474 288 381 256 289 c 257
6 0 m 257
 292 711 l 257
 417 711 l 257
 706 0 l 257
 565 0 l 257
 497 173 l 257
 209 173 l 257
 142 0 l 257
 6 0 l 257
EndSplineSet
EndChar

StartChar: AE
Encoding: 198 198 1
Width: 1081
VWidth: 0
Flags: HW
PickledData: "(dp1
S'org.robofab.postScriptHintData'
p2
(dp3
sS'com.typemytype.robofont.layerData'
p4
(dp5
S'b'
(dp6
S'name'
p7
S'AE'
p8
sS'lib'
p9
(dp10
sS'unicodes'
p11
(tsS'width'
p12
F2073.5500000000002
sS'contours'
p13
(tsS'components'
p14
(tsS'anchors'
p15
(tsss."
LayerCount: 2
Fore
SplineSet
310 272 m 257
 538 272 l 257
 515 601 l 257
 498 601 l 257
 310 272 l 257
9 0 m 257
 433 711 l 257
 962 711 l 257
 962 601 l 257
 641 601 l 257
 658 417 l 257
 961 417 l 257
 961 310 l 257
 671 310 l 257
 690 110 l 257
 975 110 l 257
 975 0 l 257
 561 0 l 257
 546 173 l 257
 261 173 l 257
 163 0 l 257
 9 0 l 257
EndSplineSet
EndChar

StartChar: B
Encoding: 66 66 18
Width: 667
VWidth: 0
Flags: HW
PickledData: "(dp1
S'org.robofab.postScriptHintData'
p2
(dp3
sS'com.typemytype.robofont.layerData'
p4
(dp5
S'b'
(dp6
S'name'
p7
S'B'
sS'lib'
p8
(dp9
sS'unicodes'
p10
(tsS'width'
p11
F1346.45
sS'contours'
p12
(tsS'components'
p13
(tsS'anchors'
p14
(tsss."
LayerCount: 2
Fore
SplineSet
217 416 m 257
 323 416 l 258
 385 416 449 437 449 513 c 256
 449 587 394 604 297 604 c 258
 217 604 l 257
 217 416 l 257
218 106 m 257
 330 106 l 258
 427 106 480 139 480 206 c 256
 480 290 440 315 327 315 c 258
 218 315 l 257
 218 106 l 257
93 0 m 257
 93 711 l 257
 290 711 l 258
 413 711 581 698 581 529 c 256
 581 467 555 411 486 377 c 257
 574 354 613 284 613 201 c 256
 613 96 530 0 352 0 c 258
 93 0 l 257
EndSplineSet
EndChar

StartChar: C
Encoding: 67 67 20
Width: 701
VWidth: 0
Flags: HW
PickledData: "(dp1
S'org.robofab.postScriptHintData'
p2
(dp3
sS'com.typemytype.robofont.guides'
p4
(tsS'com.typemytype.robofont.layerData'
p5
(dp6
S'b'
(dp7
S'name'
p8
S'C'
sS'lib'
p9
(dp10
sS'unicodes'
p11
(tsS'width'
p12
F1394.1500000000001
sS'contours'
p13
((dp14
S'points'
p15
((dp16
S'segmentType'
p17
S'curve'
p18
sS'x'
F785
sS'smooth'
p19
I01
sS'y'
F-23
s(dp20
S'y'
F-23
sS'x'
F346
sg19
I00
s(dp21
S'y'
F309
sS'x'
F108
sg19
I00
s(dp22
g17
S'curve'
p23
sS'x'
F108
sg19
I01
sS'y'
F713
s(dp24
S'y'
F1125
sS'x'
F108
sg19
I00
s(dp25
S'y'
F1483
sS'x'
F371
sg19
I00
s(dp26
g17
S'curve'
p27
sS'x'
F814
sg19
I01
sS'y'
F1483
s(dp28
S'y'
F1483
sS'x'
F995
sg19
I00
s(dp29
S'y'
F1437
sS'x'
F1144
sg19
I00
s(dp30
g17
S'curve'
p31
sS'x'
F1265
sg19
I00
sS'y'
F1329
s(dp32
g17
S'line'
p33
sS'x'
F1200
sg19
I00
sS'y'
F1219
s(dp34
S'y'
F1295
sS'x'
F1099
sg19
I00
s(dp35
S'y'
F1334
sS'x'
F969
sg19
I00
s(dp36
g17
S'curve'
p37
sS'x'
F833
sg19
I01
sS'y'
F1334
s(dp38
S'y'
F1334
sS'x'
F464
sg19
I00
s(dp39
S'y'
F1022
sS'x'
F291
sg19
I00
s(dp40
g17
S'curve'
p41
sS'x'
F291
sg19
I01
sS'y'
F712
s(dp42
S'y'
F398
sS'x'
F291
sg19
I00
s(dp43
S'y'
F125
sS'x'
F453
sg19
I00
s(dp44
g17
S'curve'
p45
sS'x'
F811
sg19
I01
sS'y'
F125
s(dp46
S'y'
F125
sS'x'
F974
sg19
I00
s(dp47
S'y'
F172
sS'x'
F1134
sg19
I00
s(dp48
g17
S'curve'
p49
sS'x'
F1243
sg19
I00
sS'y'
F268
s(dp50
g17
S'line'
p51
sS'x'
F1301
sg19
I00
sS'y'
F127
s(dp52
S'y'
F28
sS'x'
F1178
sg19
I00
s(dp53
S'y'
F-23
sS'x'
F996
sg19
I00
stp54
stp55
sS'components'
p56
(tsS'anchors'
p57
(tsss."
LayerCount: 2
Fore
SplineSet
408 -11 m 256
 223 -11 52 118 52 355 c 256
 52 604 229 724 398 724 c 256
 479 724 560 706 635 647 c 257
 587 561 l 257
 521 607 463 617 408 617 c 256
 288 617 182 519 182 356 c 256
 182 196 284 96 416 96 c 256
 478 96 545 114 612 168 c 257
 654 70 l 257
 577 10 494 -11 408 -11 c 256
EndSplineSet
EndChar

StartChar: D
Encoding: 68 68 27
Width: 767
VWidth: 0
Flags: HW
PickledData: "(dp1
S'org.robofab.postScriptHintData'
p2
(dp3
sS'com.typemytype.robofont.layerData'
p4
(dp5
S'b'
(dp6
S'name'
p7
S'D'
sS'lib'
p8
(dp9
sS'unicodes'
p10
(tsS'width'
p11
F1526.5999999999999
sS'contours'
p12
(tsS'components'
p13
(tsS'anchors'
p14
(tsss."
LayerCount: 2
Fore
SplineSet
93 0 m 257
 93 711 l 257
 291 711 l 258
 581 711 715 582 715 360 c 256
 715 125 574 0 311 0 c 258
 93 0 l 257
217 106 m 257
 317 106 l 258
 487 106 584 192 584 360 c 256
 584 515 496 604 302 604 c 258
 217 604 l 257
 217 106 l 257
EndSplineSet
EndChar

StartChar: uni007F
Encoding: 127 127 28
Width: 742
VWidth: 0
Flags: HW
PickledData: "(dp1
S'org.robofab.postScriptHintData'
p2
(dp3
s."
LayerCount: 2
Fore
SplineSet
92 0 m 257
 92 711 l 257
 651 711 l 257
 651 0 l 257
 92 0 l 257
176 61 m 257
 567 61 l 257
 567 649 l 257
 176 649 l 257
 176 61 l 257
EndSplineSet
EndChar

StartChar: uni0394
Encoding: 916 916 32
Width: 733
VWidth: 0
Flags: HW
PickledData: "(dp1
S'org.robofab.postScriptHintData'
p2
(dp3
s."
LayerCount: 2
Fore
SplineSet
157 106 m 257
 548 106 l 257
 347 566 l 257
 157 106 l 257
30 0 m 257
 30 107 l 257
 298 711 l 257
 431 711 l 257
 701 114 l 257
 701 0 l 257
 30 0 l 257
EndSplineSet
EndChar

StartChar: E
Encoding: 69 69 35
Width: 609
VWidth: 0
Flags: HW
PickledData: "(dp1
S'org.robofab.postScriptHintData'
p2
(dp3
sS'com.typemytype.robofont.layerData'
p4
(dp5
s."
LayerCount: 2
Fore
SplineSet
93 0 m 257
 93 711 l 257
 542 711 l 257
 542 604 l 257
 217 604 l 257
 217 415 l 257
 524 415 l 257
 524 308 l 257
 218 308 l 257
 218 106 l 257
 556 106 l 257
 556 0 l 257
 93 0 l 257
EndSplineSet
EndChar

StartChar: Eng
Encoding: 330 330 46
Width: 791
VWidth: 0
Flags: HW
PickledData: "(dp1
S'org.robofab.postScriptHintData'
p2
(dp3
sS'com.typemytype.robofont.layerData'
p4
(dp5
s."
LayerCount: 2
Fore
SplineSet
697 711 m 257
 697 0 l 258
 697 -170 589 -231 431 -231 c 257
 431 -136 l 257
 510 -136 580 -125 580 -20 c 258
 580 48 l 257
 271 462 l 257
 208 556 l 257
 208 0 l 257
 94 0 l 257
 94 711 l 257
 225 711 l 257
 518 311 l 257
 580 220 l 257
 580 711 l 257
 697 711 l 257
EndSplineSet
EndChar

StartChar: Euro
Encoding: 8364 8364 50
Width: 712
VWidth: 0
Flags: HW
PickledData: "(dp1
S'org.robofab.postScriptHintData'
p2
(dp3
sS'com.typemytype.robofont.layerData'
p4
(dp5
S'b'
(dp6
S'name'
p7
S'Euro'
p8
sS'lib'
p9
(dp10
sS'unicodes'
p11
(tsS'width'
p12
I1190
sS'contours'
p13
(tsS'components'
p14
(tsS'anchors'
p15
(tsss."
LayerCount: 2
Fore
SplineSet
67 246 m 257
 70 301 l 257
 145 301 l 257
 143 319 142 336 142 355 c 256
 142 371 144 387 145 402 c 257
 67 402 l 257
 69 460 l 257
 154 460 l 257
 196 638 345 724 488 724 c 256
 569 724 651 706 726 647 c 257
 677 561 l 257
 611 607 554 617 499 617 c 256
 407 617 323 560 289 460 c 257
 516 460 l 257
 512 402 l 257
 275 402 l 257
 273 387 272 372 272 356 c 256
 272 336 273 319 276 301 c 257
 498 301 l 257
 495 246 l 257
 291 246 l 257
 326 152 407 96 506 96 c 256
 568 96 636 114 703 168 c 257
 744 70 l 257
 667 10 584 -11 498 -11 c 256
 344 -11 198 79 155 246 c 257
 67 246 l 257
EndSplineSet
EndChar

StartChar: F
Encoding: 70 70 51
Width: 559
VWidth: 0
Flags: HW
PickledData: "(dp1
S'org.robofab.postScriptHintData'
p2
(dp3
sS'com.typemytype.robofont.layerData'
p4
(dp5
s."
LayerCount: 2
Fore
SplineSet
93 0 m 257
 93 711 l 257
 527 711 l 257
 527 604 l 257
 217 604 l 257
 217 411 l 257
 509 411 l 257
 509 304 l 257
 217 304 l 257
 217 0 l 257
 93 0 l 257
EndSplineSet
EndChar

StartChar: G
Encoding: 71 71 53
Width: 750
VWidth: 0
Flags: HW
PickledData: "(dp1
S'org.robofab.postScriptHintData'
p2
(dp3
sS'com.typemytype.robofont.layerData'
p4
(dp5
S'b'
(dp6
S'name'
p7
S'G'
sS'lib'
p8
(dp9
sS'unicodes'
p10
(tsS'width'
p11
F1528.2
sS'contours'
p12
((dp13
S'points'
p14
((dp15
S'segmentType'
p16
S'curve'
p17
sS'x'
F841
sS'smooth'
p18
I01
sS'y'
F-23
s(dp19
S'y'
F-23
sS'x'
F361
sg18
I00
s(dp20
S'y'
F267
sS'x'
F108
sg18
I00
s(dp21
g16
S'curve'
p22
sS'x'
F108
sg18
I01
sS'y'
F701
s(dp23
S'y'
F1129
sS'x'
F108
sg18
I00
s(dp24
S'y'
F1483
sS'x'
F382
sg18
I00
s(dp25
g16
S'curve'
p26
sS'x'
F852
sg18
I01
sS'y'
F1483
s(dp27
S'y'
F1483
sS'x'
F1059
sg18
I00
s(dp28
S'y'
F1415
sS'x'
F1233
sg18
I00
s(dp29
g16
S'curve'
p30
sS'x'
F1334
sg18
I00
sS'y'
F1308
s(dp31
g16
S'line'
p32
sS'x'
F1262
sg18
I00
sS'y'
F1196
s(dp33
S'y'
F1291
sS'x'
F1164
sg18
I00
s(dp34
S'y'
F1334
sS'x'
F1034
sg18
I00
s(dp35
g16
S'curve'
p36
sS'x'
F848
sg18
I01
sS'y'
F1334
s(dp37
S'y'
F1334
sS'x'
F477
sg18
I00
s(dp38
S'y'
F1033
sS'x'
F286
sg18
I00
s(dp39
g16
S'curve'
p40
sS'x'
F286
sg18
I01
sS'y'
F714
s(dp41
S'y'
F365
sS'x'
F286
sg18
I00
s(dp42
S'y'
F125
sS'x'
F472
sg18
I00
s(dp43
g16
S'curve'
p44
sS'x'
F855
sg18
I01
sS'y'
F125
s(dp45
S'y'
F125
sS'x'
F968
sg18
I00
s(dp46
S'y'
F143
sS'x'
F1088
sg18
I00
s(dp47
g16
S'curve'
p48
sS'x'
F1184
sg18
I00
sS'y'
F182
s(dp49
g16
S'line'
p50
sS'x'
F1184
sg18
I00
sS'y'
F608
s(dp51
g16
S'line'
p52
sS'x'
F811
sg18
I00
sS'y'
F608
s(dp53
g16
S'line'
p54
sS'x'
F811
sg18
I00
sS'y'
F757
s(dp55
g16
S'line'
p56
sS'x'
F1356
sg18
I00
sS'y'
F757
s(dp57
g16
S'line'
p58
sS'x'
F1356
sg18
I00
sS'y'
F81
s(dp59
S'y'
F6
sS'x'
F1195
sg18
I00
s(dp60
S'y'
F-23
sS'x'
F1012
sg18
I00
stp61
stp62
sS'components'
p63
(tsS'anchors'
p64
(tsss."
LayerCount: 2
Fore
SplineSet
416 -11 m 256
 177 -11 51 131 51 344 c 256
 51 547 183 724 428 724 c 256
 572 724 634 676 665 653 c 257
 615 566 l 257
 585 588 529 617 429 617 c 256
 258 617 181 482 181 349 c 256
 181 201 259 95 421 95 c 256
 461 95 503 101 543 113 c 257
 543 281 l 257
 377 281 l 257
 377 387 l 257
 669 387 l 257
 669 43 l 257
 579 3 498 -11 416 -11 c 256
EndSplineSet
EndChar

StartChar: H
Encoding: 72 72 60
Width: 767
VWidth: 0
Flags: HW
PickledData: "(dp1
S'org.robofab.postScriptHintData'
p2
(dp3
sS'com.typemytype.robofont.layerData'
p4
(dp5
S'b'
(dp6
S'name'
p7
S'H'
sS'lib'
p8
(dp9
sS'unicodes'
p10
(tsS'width'
p11
F1576.45
sS'contours'
p12
(tsS'components'
p13
(tsS'anchors'
p14
(tsss."
LayerCount: 2
Fore
SplineSet
93 0 m 257
 93 711 l 257
 217 711 l 257
 217 418 l 257
 550 418 l 257
 550 711 l 257
 674 711 l 257
 674 0 l 257
 553 0 l 257
 553 311 l 257
 219 311 l 257
 219 0 l 257
 93 0 l 257
EndSplineSet
EndChar

StartChar: Hbar
Encoding: 294 294 61
Width: 767
VWidth: 0
Flags: HW
PickledData: "(dp1
S'org.robofab.postScriptHintData'
p2
(dp3
sS'com.typemytype.robofont.layerData'
p4
(dp5
S'b'
(dp6
S'name'
p7
S'Hbar'
p8
sS'lib'
p9
(dp10
sS'unicodes'
p11
(tsS'width'
p12
F1532.55
sS'contours'
p13
(tsS'components'
p14
(tsS'anchors'
p15
(tsss."
LayerCount: 2
Fore
SplineSet
46 519 m 257
 46 592 l 257
 713 592 l 257
 713 519 l 257
 46 519 l 257
EndSplineSet
Refer: 60 72 N 1 0 0 1 0 0 2
EndChar

StartChar: I
Encoding: 73 73 63
Width: 286
VWidth: 0
Flags: HW
PickledData: "(dp1
S'org.robofab.postScriptHintData'
p2
(dp3
sS'com.typemytype.robofont.layerData'
p4
(dp5
s."
LayerCount: 2
Fore
SplineSet
78 0 m 257
 78 711 l 257
 202 711 l 257
 202 0 l 257
 78 0 l 257
EndSplineSet
EndChar

StartChar: J
Encoding: 74 74 77
Width: 497
VWidth: 0
Flags: HW
PickledData: "(dp1
S'org.robofab.postScriptHintData'
p2
(dp3
sS'com.typemytype.robofont.layerData'
p4
(dp5
S'b'
(dp6
S'name'
p7
S'J'
sS'lib'
p8
(dp9
sS'unicodes'
p10
(tsS'width'
p11
F731.54999999999995
sS'contours'
p12
(tsS'components'
p13
(tsS'anchors'
p14
(tsss."
LayerCount: 2
Fore
SplineSet
204 -162 m 256
 162 -162 111 -153 47 -130 c 257
 69 -36 l 257
 121 -53 156 -58 181 -58 c 256
 255 -58 281 -13 281 54 c 258
 281 711 l 257
 405 711 l 257
 405 60 l 258
 405 -84 330 -162 204 -162 c 256
EndSplineSet
EndChar

StartChar: K
Encoding: 75 75 79
Width: 659
VWidth: 0
Flags: HW
PickledData: "(dp1
S'org.robofab.postScriptHintData'
p2
(dp3
sS'com.typemytype.robofont.layerData'
p4
(dp5
S'b'
(dp6
S'name'
p7
S'K'
sS'lib'
p8
(dp9
sS'unicodes'
p10
(tsS'width'
p11
F1289.95
sS'contours'
p12
(tsS'components'
p13
(tsS'anchors'
p14
(tsss."
LayerCount: 2
Fore
SplineSet
93 0 m 257
 93 711 l 257
 217 711 l 257
 217 400 l 257
 491 711 l 257
 646 711 l 257
 337 368 l 257
 669 0 l 257
 508 0 l 257
 218 318 l 257
 218 0 l 257
 93 0 l 257
EndSplineSet
EndChar

StartChar: L
Encoding: 76 76 82
Width: 572
VWidth: 0
Flags: HW
PickledData: "(dp1
S'org.robofab.postScriptHintData'
p2
(dp3
sS'com.typemytype.robofont.layerData'
p4
(dp5
s."
AnchorPoint: "caron.alt" 159 501 basechar 0
LayerCount: 2
Fore
SplineSet
93 0 m 257
 93 711 l 257
 217 711 l 257
 217 106 l 257
 546 106 l 257
 546 0 l 257
 93 0 l 257
EndSplineSet
EndChar

StartChar: Lslash
Encoding: 321 321 88
Width: 569
VWidth: 0
Flags: HW
PickledData: "(dp1
S'org.robofab.postScriptHintData'
p2
(dp3
sS'com.typemytype.robofont.layerData'
p4
(dp5
s."
LayerCount: 2
Fore
SplineSet
17 206 m 257
 17 315 l 257
 299 535 l 257
 299 425 l 257
 17 206 l 257
EndSplineSet
Refer: 82 76 N 1 0 0 1 0 0 2
EndChar

StartChar: M
Encoding: 77 77 89
Width: 970
VWidth: 0
Flags: HW
PickledData: "(dp1
S'org.robofab.postScriptHintData'
p2
(dp3
sS'com.typemytype.robofont.layerData'
p4
(dp5
S'b'
(dp6
S'name'
p7
S'M'
sS'lib'
p8
(dp9
sS'unicodes'
p10
(tsS'width'
p11
F1905.0999999999999
sS'contours'
p12
(tsS'components'
p13
(tsS'anchors'
p14
(tsss."
LayerCount: 2
Fore
SplineSet
93 0 m 257
 93 711 l 257
 238 711 l 257
 321 527 404 342 487 159 c 257
 570 341 650 527 732 711 c 257
 877 711 l 257
 877 0 l 257
 761 0 l 257
 761 508 l 257
 683 340 608 169 532 0 c 257
 441 0 l 257
 365 167 291 336 212 500 c 257
 212 0 l 257
 93 0 l 257
EndSplineSet
EndChar

StartChar: N
Encoding: 78 78 91
Width: 795
VWidth: 0
Flags: HW
PickledData: "(dp1
S'org.robofab.postScriptHintData'
p2
(dp3
sS'com.typemytype.robofont.layerData'
p4
(dp5
S'b'
(dp6
S'name'
p7
S'N'
sS'lib'
p8
(dp9
sS'unicodes'
p10
(tsS'width'
p11
F1578.1500000000001
sS'contours'
p12
(tsS'components'
p13
(tsS'anchors'
p14
(tsss."
LayerCount: 2
Fore
SplineSet
93 0 m 257
 93 711 l 257
 224 711 l 257
 344 537 464 362 585 188 c 257
 585 711 l 257
 703 711 l 257
 703 0 l 257
 571 0 l 257
 450 175 330 350 208 524 c 257
 208 0 l 257
 93 0 l 257
EndSplineSet
EndChar

StartChar: O
Encoding: 79 79 98
Width: 815
VWidth: 0
Flags: HW
PickledData: "(dp1
S'org.robofab.postScriptHintData'
p2
(dp3
sS'com.typemytype.robofont.guides'
p4
((dp5
S'y'
I727
sS'x'
I231
sS'magnetic'
p6
I5
sS'angle'
p7
I0
sS'isGlobal'
p8
I00
s(dp9
S'y'
I1254
sS'x'
I804
sg6
I5
sg7
F90
sg8
I00
stp10
sS'com.typemytype.robofont.layerData'
p11
(dp12
S'b'
(dp13
S'name'
p14
S'O'
sS'lib'
p15
(dp16
sS'unicodes'
p17
(tsS'width'
p18
F1630.8
sS'contours'
p19
(tsS'components'
p20
(tsS'anchors'
p21
(tsss."
LayerCount: 2
Fore
SplineSet
410 -11 m 256
 187 -11 52 134 52 359 c 256
 52 577 187 724 412 724 c 256
 629 724 764 578 764 359 c 256
 764 134 633 -11 410 -11 c 256
407 95 m 256
 554 95 629 192 629 359 c 256
 629 521 554 618 409 618 c 256
 264 618 186 522 186 359 c 256
 186 191 260 95 407 95 c 256
EndSplineSet
EndChar

StartChar: OE
Encoding: 338 338 99
Width: 1004
VWidth: 0
Flags: HW
PickledData: "(dp1
S'org.robofab.postScriptHintData'
p2
(dp3
sS'com.typemytype.robofont.layerData'
p4
(dp5
S'b'
(dp6
S'name'
p7
S'OE'
p8
sS'lib'
p9
(dp10
sS'unicodes'
p11
(tsS'width'
p12
F2049.1500000000001
sS'contours'
p13
(tsS'components'
p14
(tsS'anchors'
p15
(tsss."
LayerCount: 2
Fore
SplineSet
401 85 m 258
 403 85 l 258
 489 85 523 118 528 123 c 257
 528 582 l 257
 508 598 473 619 410 619 c 256
 401 619 391 619 381 618 c 256
 285 608 186 541 186 354 c 256
 186 177 273 85 401 85 c 258
528 123 m 257
 528 123 l 257
528 683 m 257
 528 711 l 257
 937 711 l 257
 937 605 l 257
 652 605 l 257
 652 417 l 257
 918 417 l 257
 918 311 l 257
 653 311 l 257
 653 106 l 257
 950 106 l 257
 950 0 l 257
 528 0 l 257
 528 30 l 257
 525 27 478 -10 399 -12 c 257
 386 -12 l 258
 205 -12 52 104 52 357 c 256
 52 586 199 716 371 724 c 256
 377 724 382 724 387 724 c 256
 486 724 524 688 528 683 c 257
EndSplineSet
EndChar

StartChar: uni03A9
Encoding: 937 937 111
Width: 782
VWidth: 0
Flags: HW
PickledData: "(dp1
S'org.robofab.postScriptHintData'
p2
(dp3
sS'com.typemytype.robofont.layerData'
p4
(dp5
s."
LayerCount: 2
Fore
SplineSet
34 0 m 257
 23 103 l 257
 178 102 l 257
 79 179 45 268 45 396 c 256
 45 595 191 722 389 722 c 256
 584 722 737 601 737 397 c 256
 737 270 707 180 605 102 c 257
 765 103 l 257
 752 0 l 257
 447 0 l 257
 447 83 l 257
 538 140 607 242 607 375 c 256
 607 453 578 622 390 622 c 256
 196 622 175 447 175 375 c 256
 175 241 246 141 336 83 c 257
 336 0 l 257
 34 0 l 257
EndSplineSet
EndChar

StartChar: Oslash
Encoding: 216 216 113
Width: 815
VWidth: 0
Flags: HW
PickledData: "(dp1
S'org.robofab.postScriptHintData'
p2
(dp3
sS'com.typemytype.robofont.layerData'
p4
(dp5
S'b'
(dp6
S'name'
p7
S'Oslash'
p8
sS'lib'
p9
(dp10
sS'unicodes'
p11
(tsS'width'
p12
F1663
sS'contours'
p13
(tsS'components'
p14
(tsS'anchors'
p15
(tsss."
LayerCount: 2
Fore
SplineSet
410 -11 m 256
 633 -11 764 134 764 359 c 256
 764 499 709 608 613 670 c 257
 652 744 l 257
 596 769 l 257
 558 698 l 257
 515 715 466 724 412 724 c 256
 187 724 52 577 52 359 c 256
 52 215 108 104 207 42 c 257
 165 -37 l 257
 221 -62 l 257
 262 14 l 257
 305 -3 355 -11 410 -11 c 256
557 566 m 257
 605 522 629 451 629 359 c 256
 629 192 554 95 407 95 c 256
 371 95 340 100 313 111 c 257
 557 566 l 257
505 600 m 257
 261 143 l 257
 211 187 186 261 186 359 c 256
 186 522 264 618 409 618 c 256
 446 618 478 612 505 600 c 257
EndSplineSet
EndChar

StartChar: P
Encoding: 80 80 116
Width: 634
VWidth: 0
Flags: HW
PickledData: "(dp1
S'org.robofab.postScriptHintData'
p2
(dp3
sS'com.typemytype.robofont.layerData'
p4
(dp5
S'b'
(dp6
S'name'
p7
S'P'
sS'lib'
p8
(dp9
sS'unicodes'
p10
(tsS'width'
p11
F1252.6500000000001
sS'contours'
p12
((dp13
S'points'
p14
((dp15
S'segmentType'
p16
S'line'
p17
sS'x'
F360
sS'smooth'
p18
I00
sS'y'
F828
s(dp19
g16
S'line'
p20
sS'x'
F580
sg18
I01
sS'y'
F828
s(dp21
S'y'
F828
sS'x'
F775
sg18
I00
s(dp22
S'y'
F881
sS'x'
F973
sg18
I00
s(dp23
g16
S'curve'
p24
sS'x'
F973
sg18
I01
sS'y'
F1077
s(dp25
S'y'
F1272
sS'x'
F973
sg18
I00
s(dp26
S'y'
F1308
sS'x'
F807
sg18
I00
s(dp27
g16
S'curve'
p28
sS'x'
F592
sg18
I01
sS'y'
F1308
s(dp29
g16
S'line'
p30
sS'x'
F360
sg18
I00
sS'y'
F1308
stp31
s(dp32
g14
((dp33
g16
S'line'
p34
sS'x'
F360
sg18
I00
sS'y'
F148
s(dp35
g16
S'line'
p36
sS'x'
F667
sg18
I01
sS'y'
F148
s(dp37
S'y'
F148
sS'x'
F906
sg18
I00
s(dp38
S'y'
F230
sS'x'
F1041
sg18
I00
s(dp39
g16
S'curve'
p40
sS'x'
F1041
sg18
I01
sS'y'
F406
s(dp41
S'y'
F617
sS'x'
F1041
sg18
I00
s(dp42
S'y'
F680
sS'x'
F889
sg18
I00
s(dp43
g16
S'curve'
p44
sS'x'
F610
sg18
I01
sS'y'
F680
s(dp45
g16
S'line'
p46
sS'x'
F360
sg18
I00
sS'y'
F680
stp47
s(dp48
g14
((dp49
g16
S'line'
p50
sS'x'
F188
sg18
I00
sS'y'
F0
s(dp51
g16
S'line'
p52
sS'x'
F188
sg18
I00
sS'y'
F1456
s(dp53
g16
S'line'
p54
sS'x'
F502
sg18
I01
sS'y'
F1456
s(dp55
S'y'
F1456
sS'x'
F765
sg18
I00
s(dp56
S'y'
F1443
sS'x'
F1154
sg18
I00
s(dp57
g16
S'curve'
p58
sS'x'
F1154
sg18
I01
sS'y'
F1105
s(dp59
S'y'
F944
sS'x'
F1154
sg18
I00
s(dp60
S'y'
F814
sS'x'
F1045
sg18
I00
s(dp61
g16
S'curve'
p62
sS'x'
F889
sg18
I00
sS'y'
F769
s(dp63
S'y'
F734
sS'x'
F1086
sg18
I00
s(dp64
S'y'
F605
sS'x'
F1223
sg18
I00
s(dp65
g16
S'curve'
p66
sS'x'
F1223
sg18
I01
sS'y'
F403
s(dp67
S'y'
F189
sS'x'
F1223
sg18
I00
s(dp68
S'y'
F0
sS'x'
F1059
sg18
I00
s(dp69
g16
S'curve'
p70
sS'x'
F739
sg18
I01
sS'y'
F0
stp71
stp72
sS'components'
p73
(tsS'anchors'
p74
(tsss."
LayerCount: 2
Fore
SplineSet
217 413 m 257
 323 413 l 258
 411 413 471 429 471 507 c 256
 471 603 403 603 300 603 c 258
 217 603 l 257
 217 413 l 257
93 0 m 257
 93 711 l 257
 295 711 l 258
 463 711 601 696 601 508 c 256
 601 353 498 307 325 307 c 258
 217 307 l 257
 217 0 l 257
 93 0 l 257
EndSplineSet
EndChar

StartChar: Q
Encoding: 81 81 118
Width: 815
VWidth: 0
Flags: HW
PickledData: "(dp1
S'org.robofab.postScriptHintData'
p2
(dp3
sS'com.typemytype.robofont.layerData'
p4
(dp5
S'b'
(dp6
S'name'
p7
S'Q'
sS'lib'
p8
(dp9
sS'unicodes'
p10
(tsS'width'
p11
F1628.2
sS'contours'
p12
(tsS'components'
p13
(tsS'anchors'
p14
(tsss."
LayerCount: 2
Fore
SplineSet
407 95 m 256
 260 95 186 191 186 359 c 256
 186 522 264 618 409 618 c 256
 554 618 629 521 629 359 c 256
 629 192 554 95 407 95 c 256
616 -218 m 257
 684 -145 l 257
 684 -145 608 -60 562 16 c 257
 692 68 764 192 764 359 c 256
 764 578 629 724 412 724 c 256
 187 724 52 577 52 359 c 256
 52 134 187 -11 410 -11 c 256
 425 -11 440 -10 455 -9 c 257
 521 -119 616 -218 616 -218 c 257
EndSplineSet
EndChar

StartChar: R
Encoding: 82 82 119
Width: 677
VWidth: 0
Flags: HW
PickledData: "(dp1
S'org.robofab.postScriptHintData'
p2
(dp3
sS'com.typemytype.robofont.guides'
p4
(tsS'com.typemytype.robofont.layerData'
p5
(dp6
S'b'
(dp7
S'name'
p8
S'R'
sS'lib'
p9
(dp10
sS'unicodes'
p11
(tsS'width'
p12
F1341
sS'contours'
p13
((dp14
S'points'
p15
((dp16
S'segmentType'
p17
S'line'
p18
sS'x'
F360
sS'smooth'
p19
I00
sS'y'
F799
s(dp20
g17
S'line'
p21
sS'x'
F615
sg19
I01
sS'y'
F799
s(dp22
S'y'
F799
sS'x'
F795
sg19
I00
s(dp23
S'y'
F854
sS'x'
F932
sg19
I00
s(dp24
g17
S'curve'
p25
sS'x'
F932
sg19
I01
sS'y'
F1058
s(dp26
S'y'
F1259
sS'x'
F932
sg19
I00
s(dp27
S'y'
F1308
sS'x'
F833
sg19
I00
s(dp28
g17
S'curve'
p29
sS'x'
F626
sg19
I01
sS'y'
F1308
s(dp30
g17
S'line'
p31
sS'x'
F360
sg19
I00
sS'y'
F1308
stp32
s(dp33
g15
((dp34
g17
S'line'
p35
sS'x'
F188
sg19
I00
sS'y'
F0
s(dp36
g17
S'line'
p37
sS'x'
F188
sg19
I00
sS'y'
F1456
s(dp38
g17
S'line'
p39
sS'x'
F533
sg19
I01
sS'y'
F1456
s(dp40
S'y'
F1456
sS'x'
F771
sg19
I00
s(dp41
S'y'
F1452
sS'x'
F1114
sg19
I00
s(dp42
g17
S'curve'
p43
sS'x'
F1114
sg19
I01
sS'y'
F1074
s(dp44
S'y'
F890
sS'x'
F1114
sg19
I00
s(dp45
S'y'
F762
sS'x'
F1035
sg19
I00
s(dp46
g17
S'curve'
p47
sS'x'
F847
sg19
I00
sS'y'
F715
s(dp48
g17
S'line'
p49
sS'x'
F848
sg19
I00
sS'y'
F715
s(dp50
S'y'
F662
sS'x'
F1012
sg19
I00
s(dp51
S'y'
F510
sS'x'
F1039
sg19
I00
s(dp52
g17
S'curve'
p53
sS'x'
F1159
sg19
I01
sS'y'
F214
s(dp54
g17
S'line'
p55
sS'x'
F1246
sg19
I00
sS'y'
F0
s(dp56
g17
S'line'
p57
sS'x'
F1061
sg19
I00
sS'y'
F0
s(dp58
g17
S'line'
p59
sS'x'
F896
sg19
I01
sS'y'
F419
s(dp60
S'y'
F600
sS'x'
F825
sg19
I00
s(dp61
S'y'
F652
sS'x'
F797
sg19
I00
s(dp62
g17
S'curve'
p63
sS'x'
F619
sg19
I01
sS'y'
F652
s(dp64
g17
S'line'
p65
sS'x'
F360
sg19
I00
sS'y'
F652
s(dp66
g17
S'line'
p67
sS'x'
F360
sg19
I00
sS'y'
F0
stp68
stp69
sS'components'
p70
(tsS'anchors'
p71
(tsss."
LayerCount: 2
Fore
SplineSet
215 406 m 257
 334 406 l 258
 407 406 467 428 467 509 c 256
 467 587 428 604 347 604 c 258
 215 604 l 257
 215 406 l 257
93 0 m 257
 93 711 l 257
 349 711 l 258
 496 711 598 673 598 515 c 256
 598 441 556 369 455 346 c 257
 491 326 525 296 549 235 c 258
 645 0 l 257
 511 0 l 257
 429 211 l 258
 403 280 379 301 315 301 c 258
 217 301 l 257
 217 0 l 257
 93 0 l 257
EndSplineSet
EndChar

StartChar: S
Encoding: 83 83 125
Width: 613
VWidth: 0
Flags: HW
PickledData: "(dp1
S'org.robofab.postScriptHintData'
p2
(dp3
sS'com.typemytype.robofont.layerData'
p4
(dp5
S'b'
(dp6
S'name'
p7
S'S'
sS'lib'
p8
(dp9
sS'unicodes'
p10
(tsS'width'
p11
F1211
sS'contours'
p12
((dp13
S'points'
p14
((dp15
S'segmentType'
p16
S'curve'
p17
sS'x'
F596
sS'smooth'
p18
I01
sS'y'
F-23
s(dp19
S'y'
F-23
sS'x'
F321
sg18
I00
s(dp20
S'y'
F120
sS'x'
F158
sg18
I00
s(dp21
g16
S'curve'
p22
sS'x'
F140
sg18
I00
sS'y'
F141
s(dp23
g16
S'line'
p24
sS'x'
F219
sg18
I00
sS'y'
F271
s(dp25
S'y'
F243
sS'x'
F256
sg18
I00
s(dp26
S'y'
F125
sS'x'
F393
sg18
I00
s(dp27
g16
S'curve'
p28
sS'x'
F595
sg18
I01
sS'y'
F125
s(dp29
S'y'
F125
sS'x'
F797
sg18
I00
s(dp30
S'y'
F204
sS'x'
F898
sg18
I00
s(dp31
g16
S'curve'
p32
sS'x'
F898
sg18
I01
sS'y'
F360
s(dp33
S'y'
F536
sS'x'
F898
sg18
I00
s(dp34
S'y'
F601
sS'x'
F709
sg18
I00
s(dp35
g16
S'curve'
p36
sS'x'
F521
sg18
I01
sS'y'
F681
s(dp37
S'y'
F761
sS'x'
F333
sg18
I00
s(dp38
S'y'
F857
sS'x'
F145
sg18
I00
s(dp39
g16
S'curve'
p40
sS'x'
F145
sg18
I01
sS'y'
F1095
s(dp41
S'y'
F1350
sS'x'
F145
sg18
I00
s(dp42
S'y'
F1483
sS'x'
F357
sg18
I00
s(dp43
g16
S'curve'
p44
sS'x'
F620
sg18
I01
sS'y'
F1483
s(dp45
S'y'
F1483
sS'x'
F891
sg18
I00
s(dp46
S'y'
F1362
sS'x'
F1009
sg18
I00
s(dp47
g16
S'curve'
p48
sS'x'
F1034
sg18
I00
sS'y'
F1335
s(dp49
g16
S'line'
p50
sS'x'
F951
sg18
I00
sS'y'
F1217
s(dp51
S'y'
F1242
sS'x'
F921
sg18
I00
s(dp52
S'y'
F1334
sS'x'
F819
sg18
I00
s(dp53
g16
S'curve'
p54
sS'x'
F640
sg18
I01
sS'y'
F1334
s(dp55
S'y'
F1334
sS'x'
F478
sg18
I00
s(dp56
S'y'
F1270
sS'x'
F328
sg18
I00
s(dp57
g16
S'curve'
p58
sS'x'
F328
sg18
I01
sS'y'
F1105
s(dp59
S'y'
F934
sS'x'
F328
sg18
I00
s(dp60
S'y'
F868
sS'x'
F515
sg18
I00
s(dp61
g16
S'curve'
p62
sS'x'
F703
sg18
I01
sS'y'
F785
s(dp63
S'y'
F702
sS'x'
F891
sg18
I00
s(dp64
S'y'
F602
sS'x'
F1078
sg18
I00
s(dp65
g16
S'curve'
p66
sS'x'
F1078
sg18
I01
sS'y'
F364
s(dp67
S'y'
F78
sS'x'
F1078
sg18
I00
s(dp68
S'y'
F-23
sS'x'
F868
sg18
I00
stp69
stp70
sS'components'
p71
(tsS'anchors'
p72
(tsss."
LayerCount: 2
Fore
SplineSet
304 -11 m 256
 209 -11 109 18 56 70 c 257
 109 159 l 257
 156 122 242 95 296 95 c 256
 384 95 425 127 425 193 c 256
 425 239 416 264 324 297 c 256
 295 307 256 319 224 330 c 256
 112 372 57 425 57 531 c 256
 57 659 164 724 302 724 c 256
 433 724 490 700 550 642 c 257
 486 560 l 257
 433 610 368 617 320 617 c 256
 248 617 189 594 189 536 c 256
 189 486 202 464 293 432 c 256
 325 421 368 409 402 396 c 256
 517 350 557 298 557 191 c 256
 557 43 434 -11 304 -11 c 256
EndSplineSet
EndChar

StartChar: T
Encoding: 84 84 132
Width: 576
VWidth: 0
Flags: HW
PickledData: "(dp1
S'org.robofab.postScriptHintData'
p2
(dp3
sS'com.typemytype.robofont.layerData'
p4
(dp5
s."
LayerCount: 2
Fore
SplineSet
225 0 m 257
 225 604 l 257
 5 604 l 257
 5 711 l 257
 571 711 l 257
 571 604 l 257
 349 604 l 257
 349 0 l 257
 225 0 l 257
EndSplineSet
EndChar

StartChar: Thorn
Encoding: 222 222 137
Width: 634
VWidth: 0
Flags: HW
PickledData: "(dp1
S'org.robofab.postScriptHintData'
p2
(dp3
sS'com.typemytype.robofont.layerData'
p4
(dp5
s."
LayerCount: 2
Fore
SplineSet
215 266 m 257
 323 266 l 258
 410 266 463 300 463 378 c 256
 463 470 401 492 299 492 c 258
 215 492 l 257
 215 266 l 257
93 0 m 257
 93 711 l 257
 216 711 l 257
 216 597 l 257
 293 597 l 258
 461 597 596 559 596 377 c 256
 596 224 458 159 303 159 c 258
 215 159 l 257
 215 0 l 257
 93 0 l 257
EndSplineSet
EndChar

StartChar: U
Encoding: 85 85 138
Width: 736
VWidth: 0
Flags: HW
PickledData: "(dp1
S'org.robofab.postScriptHintData'
p2
(dp3
sS'com.typemytype.robofont.layerData'
p4
(dp5
S'b'
(dp6
S'name'
p7
S'U'
sS'lib'
p8
(dp9
sS'unicodes'
p10
(tsS'width'
p11
F1496.9000000000001
sS'contours'
p12
(tsS'components'
p13
(tsS'anchors'
p14
(tsss."
LayerCount: 2
Fore
SplineSet
369 -11 m 256
 134 -11 80 131 80 292 c 258
 80 711 l 257
 204 711 l 257
 204 287 l 258
 204 137 276 95 368 95 c 256
 462 95 533 138 533 288 c 258
 533 711 l 257
 657 711 l 257
 657 292 l 258
 657 133 608 -11 369 -11 c 256
EndSplineSet
EndChar

StartChar: V
Encoding: 86 86 152
Width: 680
VWidth: 0
Flags: HW
PickledData: "(dp1
S'org.robofab.postScriptHintData'
p2
(dp3
sS'com.typemytype.robofont.layerData'
p4
(dp5
S'b'
(dp6
S'name'
p7
S'V'
sS'lib'
p8
(dp9
sS'unicodes'
p10
(tsS'width'
p11
F1320.1500000000001
sS'contours'
p12
(tsS'components'
p13
(tsS'anchors'
p14
(tsss."
LayerCount: 2
Fore
SplineSet
279 0 m 257
 8 711 l 257
 147 711 l 257
 212 528 276 344 343 163 c 257
 409 346 476 528 542 711 c 257
 672 711 l 257
 402 0 l 257
 279 0 l 257
EndSplineSet
EndChar

StartChar: W
Encoding: 87 87 153
Width: 1023
VWidth: 0
Flags: HW
PickledData: "(dp1
S'org.robofab.postScriptHintData'
p2
(dp3
sS'com.typemytype.robofont.layerData'
p4
(dp5
S'b'
(dp6
S'name'
p7
S'W'
sS'lib'
p8
(dp9
sS'unicodes'
p10
(tsS'width'
p11
F1988.8499999999999
sS'contours'
p12
(tsS'components'
p13
(tsS'anchors'
p14
(tsss."
LayerCount: 2
Fore
SplineSet
209 0 m 257
 6 711 l 257
 138 711 l 257
 187 524 239 338 285 149 c 257
 336 342 398 524 456 711 c 257
 574 711 l 257
 701 313 l 257
 750 147 l 257
 794 337 843 523 890 711 c 257
 1018 711 l 257
 819 0 l 257
 677 0 l 257
 511 540 l 257
 349 0 l 257
 209 0 l 257
EndSplineSet
EndChar

StartChar: X
Encoding: 88 88 158
Width: 687
VWidth: 0
Flags: HW
PickledData: "(dp1
S'org.robofab.postScriptHintData'
p2
(dp3
sS'com.typemytype.robofont.layerData'
p4
(dp5
S'b'
(dp6
S'name'
p7
S'X'
sS'lib'
p8
(dp9
sS'unicodes'
p10
(tsS'width'
p11
F1257.7
sS'contours'
p12
(tsS'components'
p13
(tsS'anchors'
p14
(tsss."
LayerCount: 2
Fore
SplineSet
11 0 m 257
 272 359 l 257
 29 711 l 257
 184 711 l 257
 350 465 l 257
 525 711 l 257
 669 711 l 257
 421 365 l 257
 674 0 l 257
 520 0 l 257
 343 260 l 257
 159 0 l 257
 11 0 l 257
EndSplineSet
EndChar

StartChar: Y
Encoding: 89 89 159
Width: 625
VWidth: 0
Flags: HW
PickledData: "(dp1
S'org.robofab.postScriptHintData'
p2
(dp3
sS'com.typemytype.robofont.layerData'
p4
(dp5
S'b'
(dp6
S'name'
p7
S'Y'
sS'lib'
p8
(dp9
sS'unicodes'
p10
(tsS'width'
p11
F1225.45
sS'contours'
p12
(tsS'components'
p13
(tsS'anchors'
p14
(tsss."
LayerCount: 2
Fore
SplineSet
247 0 m 257
 247 275 l 257
 -7 711 l 257
 134 711 l 257
 311 385 l 257
 485 711 l 257
 630 711 l 257
 371 275 l 257
 371 0 l 257
 247 0 l 257
EndSplineSet
EndChar

StartChar: Z
Encoding: 90 90 166
Width: 586
VWidth: 0
Flags: HW
PickledData: "(dp1
S'org.robofab.postScriptHintData'
p2
(dp3
sS'com.typemytype.robofont.layerData'
p4
(dp5
S'b'
(dp6
S'name'
p7
S'Z'
sS'lib'
p8
(dp9
sS'unicodes'
p10
(tsS'width'
p11
F1179.45
sS'contours'
p12
(tsS'components'
p13
(tsS'anchors'
p14
(tsss."
LayerCount: 2
Fore
SplineSet
35 0 m 257
 35 66 l 257
 371 604 l 257
 47 604 l 257
 47 711 l 257
 542 711 l 257
 542 646 l 257
 204 106 l 257
 542 106 l 257
 542 0 l 257
 35 0 l 257
EndSplineSet
EndChar

StartChar: a
Encoding: 97 97 170
Width: 630
VWidth: 0
Flags: HW
PickledData: "(dp1
S'org.robofab.postScriptHintData'
p2
(dp3
sS'com.typemytype.robofont.layerData'
p4
(dp5
S'b'
(dp6
S'name'
p7
S'a'
sS'lib'
p8
(dp9
sS'unicodes'
p10
(tsS'width'
p11
I1268
sS'contours'
p12
((dp13
S'points'
p14
((dp15
S'segmentType'
p16
S'curve'
p17
sS'x'
F595
sS'smooth'
p18
I01
sS'y'
F-22
s(dp19
S'y'
F-22
sS'x'
F262
sg18
I00
s(dp20
S'y'
F221
sS'x'
F100
sg18
I00
s(dp21
g16
S'curve'
p22
sS'x'
F100
sg18
I01
sS'y'
F518
s(dp23
S'y'
F824
sS'x'
F100
sg18
I00
s(dp24
S'y'
F1052
sS'x'
F287
sg18
I00
s(dp25
g16
S'curve'
p26
sS'x'
F603
sg18
I01
sS'y'
F1052
s(dp27
S'y'
F1052
sS'x'
F816
sg18
I00
s(dp28
S'y'
F903
sS'x'
F905
sg18
I00
s(dp29
g16
S'curve'
p30
sS'x'
F928
sg18
I00
sS'y'
F847
s(dp31
g16
S'line'
p32
sS'x'
F928
sg18
I00
sS'y'
F1026
s(dp33
g16
S'line'
p34
sS'x'
F1092
sg18
I00
sS'y'
F1026
s(dp35
g16
S'line'
p36
sS'x'
F1092
sg18
I00
sS'y'
F0
s(dp37
g16
S'line'
p38
sS'x'
F928
sg18
I00
sS'y'
F0
s(dp39
g16
S'line'
p40
sS'x'
F928
sg18
I00
sS'y'
F185
s(dp41
S'y'
F82
sS'x'
F881
sg18
I00
s(dp42
S'y'
F-22
sS'x'
F769
sg18
I00
stp43
s(dp44
g14
((dp45
g16
S'curve'
p46
sS'x'
F608
sg18
I01
sS'y'
F918
s(dp47
S'y'
F918
sS'x'
F359
sg18
I00
s(dp48
S'y'
F725
sS'x'
F270
sg18
I00
s(dp49
g16
S'curve'
p50
sS'x'
F270
sg18
I01
sS'y'
F516
s(dp51
S'y'
F308
sS'x'
F270
sg18
I00
s(dp52
S'y'
F112
sS'x'
F364
sg18
I00
s(dp53
g16
S'curve'
p54
sS'x'
F609
sg18
I01
sS'y'
F112
s(dp55
S'y'
F112
sS'x'
F813
sg18
I00
s(dp56
S'y'
F277
sS'x'
F934
sg18
I00
s(dp57
g16
S'curve'
p58
sS'x'
F934
sg18
I01
sS'y'
F526
s(dp59
S'y'
F734
sS'x'
F934
sg18
I00
s(dp60
S'y'
F918
sS'x'
F826
sg18
I00
stp61
stp62
sS'components'
p63
(tsS'anchors'
p64
(tsss."
LayerCount: 2
Fore
SplineSet
314 86 m 256
 414 86 449 158 449 250 c 256
 449 348 407 416 312 416 c 256
 220 416 173 349 173 251 c 256
 173 155 218 86 314 86 c 256
299 -11 m 256
 130 -11 53 118 53 245 c 256
 53 381 133 514 305 514 c 256
 372 514 415 488 445 448 c 257
 445 501 l 257
 563 501 l 257
 563 0 l 257
 442 0 l 257
 442 68 l 257
 414 27 367 -11 299 -11 c 256
EndSplineSet
EndChar

StartChar: acute
Encoding: 180 180 175
Width: 296
VWidth: 0
Flags: HW
PickledData: "(dp1
S'org.robofab.postScriptHintData'
p2
(dp3
s."
LayerCount: 2
Fore
SplineSet
19 569 m 257
 148 711 l 257
 303 711 l 257
 130 569 l 257
 19 569 l 257
EndSplineSet
EndChar

StartChar: ae
Encoding: 230 230 179
Width: 867
VWidth: 0
Flags: HW
PickledData: "(dp1
S'org.robofab.postScriptHintData'
p2
(dp3
sS'com.typemytype.robofont.layerData'
p4
(dp5
S'b'
(dp6
S'name'
p7
S'ae'
p8
sS'lib'
p9
(dp10
sS'unicodes'
p11
(tsS'width'
p12
F1790.05
sS'contours'
p13
(tsS'components'
p14
((dp15
S'transformation'
p16
(I1
I0
I0
I1
I642
I0
tp17
sS'baseGlyph'
p18
S'e'
stp19
sS'anchors'
p20
(tsss."
LayerCount: 2
Fore
SplineSet
478 309 m 257
 704 309 l 257
 703 320 l 257
 701 392 647 426 599 426 c 256
 533 426 494 373 478 309 c 257
235 86 m 256
 327 86 358 162 359 228 c 257
 310 228 l 258
 230 228 152 208 152 148 c 256
 152 103 191 86 235 86 c 256
231 -11 m 256
 112 -11 34 44 34 144 c 256
 34 275 131 312 339 312 c 258
 359 312 l 257
 358 374 321 419 249 419 c 256
 218 419 177 413 109 380 c 257
 74 460 l 257
 97 474 162 514 275 514 c 256
 323 514 398 484 430 422 c 257
 462 483 541 514 600 514 c 258
 602 514 l 258
 752 513 810 395 810 253 c 256
 810 241 807 228 807 228 c 257
 477 228 l 257
 477 219 l 257
 486 124 535 86 612 86 c 258
 617 86 l 257
 697 88 770 141 770 141 c 257
 803 53 l 257
 803 53 721 -10 613 -11 c 258
 607 -11 l 258
 520 -11 454 11 418 84 c 257
 382 12 300 -11 231 -11 c 256
EndSplineSet
EndChar

StartChar: ampersand
Encoding: 38 38 185
Width: 774
VWidth: 0
Flags: HW
PickledData: "(dp1
S'org.robofab.postScriptHintData'
p2
(dp3
sS'com.typemytype.robofont.layerData'
p4
(dp5
S'b'
(dp6
S'name'
p7
S'ampersand'
p8
sS'lib'
p9
(dp10
sS'unicodes'
p11
(tsS'width'
p12
F1539.95
sS'contours'
p13
(tsS'components'
p14
(tsS'anchors'
p15
(tsss."
LayerCount: 2
Fore
SplineSet
299 469 m 257
 341 495 374 524 374 563 c 256
 374 605 342 618 314 618 c 256
 279 618 253 602 253 562 c 256
 253 527 270 498 299 469 c 257
307 91 m 256
 369 91 415 119 452 153 c 257
 277 341 l 257
 223 310 176 273 176 207 c 256
 176 140 232 91 307 91 c 256
307 -14 m 256
 165 -14 55 68 55 206 c 256
 55 310 125 369 208 418 c 257
 162 469 134 506 134 564 c 256
 134 666 214 718 309 718 c 256
 401 718 492 671 492 568 c 256
 492 495 436 437 371 395 c 257
 516 236 l 257
 552 303 565 378 565 461 c 257
 677 437 l 257
 677 336 645 225 594 148 c 257
 646 93 700 78 747 62 c 257
 668 -9 l 257
 602 2 577 20 524 76 c 257
 472 28 398 -14 307 -14 c 256
EndSplineSet
EndChar

StartChar: approxequal
Encoding: 8776 8776 187
Width: 659
VWidth: 0
Flags: HW
PickledData: "(dp1
S'org.robofab.postScriptHintData'
p2
(dp3
sS'com.typemytype.robofont.layerData'
p4
(dp5
s."
LayerCount: 2
Fore
SplineSet
107 51 m 257
 33 94 l 257
 67 215 111 233 173 233 c 256
 211 233 258 223 318 203 c 256
 371 184 416 177 444 177 c 256
 479 177 490 186 502 252 c 257
 583 215 l 257
 552 92 517 69 455 69 c 256
 416 69 365 81 299 99 c 256
 252 113 211 125 184 125 c 256
 144 125 129 114 107 51 c 257
107 340 m 257
 33 384 l 257
 68 504 112 522 173 522 c 256
 211 522 262 510 320 493 c 256
 371 477 415 466 444 466 c 256
 479 466 490 476 502 542 c 257
 583 504 l 257
 552 382 518 359 456 359 c 256
 418 359 365 371 299 389 c 256
 253 402 210 415 184 415 c 256
 143 415 128 404 107 340 c 257
EndSplineSet
EndChar

StartChar: asciicircum
Encoding: 94 94 190
Width: 761
VWidth: 0
Flags: HW
PickledData: "(dp1
S'org.robofab.postScriptHintData'
p2
(dp3
sS'com.typemytype.robofont.layerData'
p4
(dp5
S'b'
(dp6
S'name'
p7
S'asciicircum'
p8
sS'lib'
p9
(dp10
sS'unicodes'
p11
(tsS'width'
p12
F1623.3499999999999
sS'contours'
p13
(tsS'components'
p14
(tsS'anchors'
p15
(tsss."
LayerCount: 2
Fore
SplineSet
89 260 m 257
 340 711 l 257
 418 711 l 257
 672 260 l 257
 549 260 l 257
 377 573 l 257
 214 260 l 257
 89 260 l 257
EndSplineSet
EndChar

StartChar: asciitilde
Encoding: 126 126 191
Width: 736
VWidth: 0
Flags: HW
PickledData: "(dp1
S'org.robofab.postScriptHintData'
p2
(dp3
sS'com.typemytype.robofont.layerData'
p4
(dp5
s."
LayerCount: 2
Fore
SplineSet
164 179 m 257
 89 215 l 257
 126 340 170 356 230 356 c 256
 269 356 316 346 374 325 c 256
 434 302 470 296 500 296 c 256
 534 296 544 300 559 369 c 257
 636 334 l 257
 605 212 572 192 509 192 c 256
 467 192 416 204 345 227 c 256
 294 245 265 251 240 251 c 256
 201 251 187 244 164 179 c 257
EndSplineSet
EndChar

StartChar: asterisk
Encoding: 42 42 192
Width: 514
VWidth: 0
Flags: HW
PickledData: "(dp1
S'org.robofab.postScriptHintData'
p2
(dp3
sS'com.typemytype.robofont.guides'
p4
((dp5
S'y'
I1149
sS'x'
I567
sS'magnetic'
p6
I5
sS'angle'
p7
I0
sS'isGlobal'
p8
I00
stp9
sS'com.typemytype.robofont.layerData'
p10
(dp11
S'b'
(dp12
S'name'
p13
S'asterisk'
p14
sS'lib'
p15
(dp16
sS'unicodes'
p17
(tsS'width'
p18
F1107.9000000000001
sS'contours'
p19
(tsS'components'
p20
(tsS'anchors'
p21
(tsss."
LayerCount: 2
Fore
SplineSet
329 314 m 257
 247 436 l 257
 164 314 l 257
 75 376 l 257
 181 489 l 257
 44 542 l 257
 86 629 l 257
 205 568 l 257
 190 711 l 257
 305 711 l 257
 289 568 l 257
 410 629 l 257
 450 542 l 257
 313 489 l 257
 418 376 l 257
 329 314 l 257
EndSplineSet
EndChar

StartChar: at
Encoding: 64 64 193
Width: 885
VWidth: 0
Flags: HW
PickledData: "(dp1
S'org.robofab.postScriptHintData'
p2
(dp3
sS'com.typemytype.robofont.layerData'
p4
(dp5
S'b'
(dp6
S'name'
p7
S'at'
p8
sS'lib'
p9
(dp10
sS'unicodes'
p11
(tsS'width'
p12
F1771.2
sS'contours'
p13
(tsS'components'
p14
(tsS'anchors'
p15
(tsss."
LayerCount: 2
Fore
SplineSet
418 219 m 256
 485 219 529 307 529 399 c 256
 529 442 504 464 469 464 c 256
 395 464 355 370 355 290 c 256
 355 247 382 219 418 219 c 256
460 -49 m 256
 228 -49 52 95 52 325 c 256
 52 574 242 724 472 724 c 256
 677 724 834 586 834 387 c 256
 834 264 756 124 655 124 c 256
 585 124 544 173 544 227 c 257
 527 172 482 125 402 125 c 256
 324 125 235 184 235 307 c 256
 235 460 363 555 455 555 c 256
 506 555 538 538 554 499 c 257
 564 546 l 257
 670 546 l 257
 627 314 l 258
 618 267 617 248 617 234 c 258
 617 228 l 258
 617 212 625 184 645 184 c 256
 682 184 755 264 755 390 c 256
 755 569 614 645 477 645 c 256
 299 645 151 544 151 325 c 256
 151 122 311 27 471 27 c 256
 547 27 626 50 701 92 c 257
 741 34 l 257
 661 -22 561 -49 460 -49 c 256
EndSplineSet
EndChar

StartChar: b
Encoding: 98 98 195
Width: 630
VWidth: 0
Flags: HW
PickledData: "(dp1
S'org.robofab.postScriptHintData'
p2
(dp3
sS'com.typemytype.robofont.layerData'
p4
(dp5
S'b'
(dp6
S'name'
p7
S'b'
sS'lib'
p8
(dp9
sS'unicodes'
p10
(tsS'width'
p11
F1270.0999999999999
sS'contours'
p12
(tsS'components'
p13
(tsS'anchors'
p14
(tsss."
LayerCount: 2
Fore
SplineSet
321 86 m 256
 414 86 451 166 451 250 c 256
 451 341 411 416 325 416 c 256
 237 416 186 340 186 251 c 256
 186 166 230 86 321 86 c 256
344 -11 m 256
 273 -11 215 25 193 62 c 257
 193 0 l 257
 69 0 l 257
 73 123 73 119 73 133 c 258
 73 711 l 257
 193 711 l 257
 193 431 l 257
 198 451 244 514 350 514 c 256
 494 514 578 403 578 253 c 256
 578 96 471 -11 344 -11 c 256
EndSplineSet
EndChar

StartChar: backslash
Encoding: 92 92 196
Width: 317
VWidth: 0
Flags: HW
PickledData: "(dp1
S'org.robofab.postScriptHintData'
p2
(dp3
sS'com.typemytype.robofont.layerData'
p4
(dp5
s."
LayerCount: 2
Fore
SplineSet
259 -55 m 257
 -85 711 l 257
 49 711 l 257
 390 -55 l 257
 259 -55 l 257
EndSplineSet
EndChar

StartChar: bar
Encoding: 124 124 197
Width: 192
VWidth: 0
Flags: HW
PickledData: "(dp1
S'org.robofab.postScriptHintData'
p2
(dp3
sS'com.typemytype.robofont.layerData'
p4
(dp5
s."
LayerCount: 2
Fore
SplineSet
39 -222 m 257
 39 735 l 257
 154 735 l 257
 154 -222 l 257
 39 -222 l 257
EndSplineSet
EndChar

StartChar: braceleft
Encoding: 123 123 199
Width: 481
VWidth: 0
Flags: HW
PickledData: "(dp1
S'org.robofab.postScriptHintData'
p2
(dp3
sS'com.typemytype.robofont.layerData'
p4
(dp5
s."
LayerCount: 2
Fore
SplineSet
292 574 m 258
 292 465 l 258
 292 388 262 335 173 333 c 257
 260 332 292 283 292 207 c 258
 292 97 l 258
 292 8 307 7 422 7 c 257
 422 -88 l 257
 417 -88 l 258
 197 -88 167 -50 167 101 c 258
 167 213 l 258
 167 280 147 296 79 296 c 258
 73 296 l 257
 73 369 l 257
 79 369 l 258
 150 369 167 386 167 456 c 258
 167 568 l 258
 167 721 203 753 422 753 c 257
 422 658 l 257
 384 658 l 258
 307 658 292 654 292 574 c 258
EndSplineSet
EndChar

StartChar: braceright
Encoding: 125 125 200
Width: 479
VWidth: 0
Flags: HW
PickledData: "(dp1
S'org.robofab.postScriptHintData'
p2
(dp3
sS'com.typemytype.robofont.layerData'
p4
(dp5
s."
LayerCount: 2
Fore
SplineSet
53 -88 m 257
 53 7 l 257
 90 7 l 258
 167 7 183 10 183 90 c 258
 183 199 l 258
 183 276 213 329 302 332 c 257
 215 332 183 382 183 458 c 258
 183 568 l 258
 183 657 167 657 52 657 c 257
 52 753 l 257
 57 753 l 258
 277 753 307 715 307 564 c 258
 307 452 l 258
 307 385 328 369 396 369 c 258
 402 369 l 257
 402 296 l 257
 396 296 l 258
 325 296 307 279 307 209 c 258
 307 96 l 258
 307 -57 272 -88 53 -88 c 257
EndSplineSet
EndChar

StartChar: bracketleft
Encoding: 91 91 201
Width: 302
VWidth: 0
Flags: HW
PickledData: "(dp1
S'org.robofab.postScriptHintData'
p2
(dp3
sS'com.typemytype.robofont.layerData'
p4
(dp5
s."
LayerCount: 2
Fore
SplineSet
68 -77 m 257
 68 733 l 257
 274 733 l 257
 274 641 l 257
 191 641 l 257
 191 16 l 257
 274 16 l 257
 274 -77 l 257
 68 -77 l 257
EndSplineSet
EndChar

StartChar: bracketright
Encoding: 93 93 202
Width: 302
VWidth: 0
Flags: HW
PickledData: "(dp1
S'org.robofab.postScriptHintData'
p2
(dp3
sS'com.typemytype.robofont.layerData'
p4
(dp5
s."
LayerCount: 2
Fore
SplineSet
44 -77 m 257
 44 16 l 257
 125 16 l 257
 125 641 l 257
 45 641 l 257
 45 733 l 257
 248 733 l 257
 248 -77 l 257
 44 -77 l 257
EndSplineSet
EndChar

StartChar: breve
Encoding: 728 728 203
Width: 341
VWidth: 0
Flags: HW
PickledData: "(dp1
S'org.robofab.postScriptHintData'
p2
(dp3
sS'com.typemytype.robofont.layerData'
p4
(dp5
S'b'
(dp6
S'name'
p7
S'breve'
p8
sS'lib'
p9
(dp10
sS'unicodes'
p11
(tsS'width'
p12
F621.60000000000002
sS'contours'
p13
(tsS'components'
p14
(tsS'anchors'
p15
(tsss."
LayerCount: 2
Fore
SplineSet
172 566 m 256
 79 566 22 608 15 711 c 257
 100 711 l 257
 104 659 138 651 172 651 c 256
 206 651 238 659 243 711 c 257
 328 711 l 257
 321 608 265 566 172 566 c 256
EndSplineSet
EndChar

StartChar: brokenbar
Encoding: 166 166 204
Width: 244
VWidth: 0
Flags: HW
PickledData: "(dp1
S'org.robofab.postScriptHintData'
p2
(dp3
sS'com.typemytype.robofont.layerData'
p4
(dp5
s."
LayerCount: 2
Fore
SplineSet
45 276 m 257
 45 735 l 257
 166 735 l 257
 166 276 l 257
 45 276 l 257
46 -222 m 257
 46 203 l 257
 167 203 l 257
 167 -222 l 257
 46 -222 l 257
EndSplineSet
EndChar

StartChar: bullet
Encoding: 8226 8226 205
Width: 482
VWidth: 0
Flags: HW
PickledData: "(dp1
S'org.robofab.postScriptHintData'
p2
(dp3
sS'com.typemytype.robofont.layerData'
p4
(dp5
S'b'
(dp6
S'name'
p7
S'bullet'
p8
sS'lib'
p9
(dp10
sS'unicodes'
p11
(tsS'width'
p12
F989.64999999999998
sS'contours'
p13
(tsS'components'
p14
(tsS'anchors'
p15
(tsss."
LayerCount: 2
Fore
SplineSet
239 175 m 256
 138 175 73 249 73 333 c 256
 73 419 146 493 239 493 c 256
 337 493 406 419 406 333 c 256
 406 248 333 175 239 175 c 256
EndSplineSet
EndChar

StartChar: c
Encoding: 99 99 207
Width: 522
VWidth: 0
Flags: HW
PickledData: "(dp1
S'org.robofab.postScriptHintData'
p2
(dp3
sS'com.typemytype.robofont.layerData'
p4
(dp5
S'b'
(dp6
S'name'
p7
S'c'
sS'lib'
p8
(dp9
sS'unicodes'
p10
(tsS'width'
p11
F1035.55
sS'contours'
p12
((dp13
S'points'
p14
((dp15
S'segmentType'
p16
S'curve'
p17
sS'x'
F605
sS'smooth'
p18
I01
sS'y'
F-22
s(dp19
S'y'
F-22
sS'x'
F302
sg18
I00
s(dp20
S'y'
F180
sS'x'
F98
sg18
I00
s(dp21
g16
S'curve'
p22
sS'x'
F98
sg18
I01
sS'y'
F503
s(dp23
S'y'
F840
sS'x'
F98
sg18
I00
s(dp24
S'y'
F1052
sS'x'
F301
sg18
I00
s(dp25
g16
S'curve'
p26
sS'x'
F624
sg18
I01
sS'y'
F1052
s(dp27
S'y'
F1052
sS'x'
F750
sg18
I00
s(dp28
S'y'
F1001
sS'x'
F871
sg18
I00
s(dp29
g16
S'curve'
p30
sS'x'
F938
sg18
I00
sS'y'
F922
s(dp31
g16
S'line'
p32
sS'x'
F890
sg18
I00
sS'y'
F805
s(dp33
S'y'
F874
sS'x'
F825
sg18
I00
s(dp34
S'y'
F918
sS'x'
F721
sg18
I00
s(dp35
g16
S'curve'
p36
sS'x'
F619
sg18
I01
sS'y'
F918
s(dp37
S'y'
F918
sS'x'
F406
sg18
I00
s(dp38
S'y'
F756
sS'x'
F268
sg18
I00
s(dp39
g16
S'curve'
p40
sS'x'
F268
sg18
I01
sS'y'
F505
s(dp41
S'y'
F260
sS'x'
F268
sg18
I00
s(dp42
S'y'
F112
sS'x'
F407
sg18
I00
s(dp43
g16
S'curve'
p44
sS'x'
F611
sg18
I01
sS'y'
F112
s(dp45
S'y'
F112
sS'x'
F716
sg18
I00
s(dp46
S'y'
F145
sS'x'
F827
sg18
I00
s(dp47
g16
S'curve'
p48
sS'x'
F901
sg18
I00
sS'y'
F202
s(dp49
g16
S'line'
p50
sS'x'
F953
sg18
I00
sS'y'
F87
s(dp51
S'y'
F19
sS'x'
F873
sg18
I00
s(dp52
S'y'
F-22
sS'x'
F747
sg18
I00
stp53
stp54
sS'components'
p55
(tsS'anchors'
p56
(tsss."
LayerCount: 2
Fore
SplineSet
314 -11 m 256
 146 -11 53 114 53 251 c 256
 53 399 149 514 313 514 c 256
 392 514 453 490 495 446 c 257
 451 368 l 257
 423 393 383 416 326 416 c 256
 228 416 178 348 178 250 c 256
 178 153 235 86 330 86 c 256
 397 86 436 120 455 134 c 257
 492 45 l 257
 437 6 383 -11 314 -11 c 256
EndSplineSet
EndChar

StartChar: caron
Encoding: 711 711 209
Width: 341
VWidth: 0
Flags: HW
PickledData: "(dp1
S'org.robofab.postScriptHintData'
p2
(dp3
s."
LayerCount: 2
Fore
SplineSet
122 579 m 257
 -15 758 l 257
 109 758 l 257
 167 687 l 257
 227 758 l 257
 357 758 l 257
 221 579 l 257
 122 579 l 257
EndSplineSet
EndChar

StartChar: caron.alt
Encoding: 65537 -1 210
Width: 292
VWidth: 0
Flags: HW
PickledData: "(dp1
S'org.robofab.postScriptHintData'
p2
(dp3
s."
AnchorPoint: "caron.alt" -8 501 mark 0
LayerCount: 2
Fore
SplineSet
132 464 m 257
 187 711 l 257
 324 711 l 257
 235 464 l 257
 132 464 l 257
EndSplineSet
EndChar

StartChar: cedilla
Encoding: 184 184 215
Width: 258
VWidth: 0
Flags: HW
PickledData: "(dp1
S'org.robofab.postScriptHintData'
p2
(dp3
sS'com.typemytype.robofont.layerData'
p4
(dp5
S'b'
(dp6
S'name'
p7
S'cedilla'
p8
sS'lib'
p9
(dp10
sS'unicodes'
p11
(tsS'width'
p12
I529
sS'contours'
p13
(tsS'components'
p14
(tsS'anchors'
p15
(tsss."
LayerCount: 2
Fore
SplineSet
8 -208 m 257
 14 -144 l 257
 32 -152 68 -162 98 -162 c 256
 125 -162 148 -153 148 -126 c 256
 148 -101 132 -77 73 -68 c 257
 59 -66 l 257
 74 19 l 257
 135 19 l 257
 126 -37 l 257
 200 -42 235 -90 235 -138 c 256
 235 -208 180 -237 118 -237 c 256
 81 -237 40 -226 8 -208 c 257
EndSplineSet
EndChar

StartChar: cent
Encoding: 162 162 216
Width: 525
VWidth: 0
Flags: HW
PickledData: "(dp1
S'org.robofab.postScriptHintData'
p2
(dp3
sS'com.typemytype.robofont.layerData'
p4
(dp5
S'b'
(dp6
S'name'
p7
S'cent'
p8
sS'lib'
p9
(dp10
sS'unicodes'
p11
(tsS'width'
p12
F1033.2
sS'contours'
p13
(tsS'components'
p14
(tsS'anchors'
p15
(tsss."
LayerCount: 2
Fore
SplineSet
296 -118 m 257
 363 -118 l 257
 363 -8 l 257
 410 -1 450 16 492 45 c 257
 455 134 l 257
 440 123 410 97 363 89 c 257
 363 413 l 257
 401 406 430 387 451 368 c 257
 495 446 l 257
 462 481 418 502 363 510 c 257
 363 610 l 257
 296 610 l 257
 296 513 l 257
 143 505 53 394 53 251 c 256
 53 119 139 -2 296 -11 c 257
 296 -118 l 257
296 414 m 257
 296 89 l 257
 221 103 178 166 178 250 c 256
 178 337 218 401 296 414 c 257
EndSplineSet
EndChar

StartChar: circumflex
Encoding: 710 710 217
Width: 341
VWidth: 0
Flags: HW
PickledData: "(dp1
S'org.robofab.postScriptHintData'
p2
(dp3
sS'com.typemytype.robofont.layerData'
p4
(dp5
S'b'
(dp6
S'name'
p7
S'circumflex'
p8
sS'lib'
p9
(dp10
sS'unicodes'
p11
(tsS'width'
p12
I699
sS'contours'
p13
(tsS'components'
p14
(tsS'anchors'
p15
(tsss."
LayerCount: 2
Fore
SplineSet
-18 579 m 257
 107 759 l 257
 230 759 l 257
 360 579 l 257
 239 579 l 257
 173 674 l 257
 105 579 l 257
 -18 579 l 257
EndSplineSet
EndChar

StartChar: colon
Encoding: 58 58 218
Width: 288
VWidth: 0
Flags: HW
PickledData: "(dp1
S'org.robofab.postScriptHintData'
p2
(dp3
sS'com.typemytype.robofont.layerData'
p4
(dp5
S'b'
(dp6
S'name'
p7
S'colon'
p8
sS'lib'
p9
(dp10
sS'unicodes'
p11
(tsS'width'
p12
F544.60000000000002
sS'contours'
p13
(tsS'components'
p14
(tsS'anchors'
p15
(tsss."
LayerCount: 2
Fore
SplineSet
65 439 m 257
 65 572 l 257
 217 572 l 257
 217 439 l 257
 65 439 l 257
65 -7 m 257
 65 125 l 257
 217 125 l 257
 217 -7 l 257
 65 -7 l 257
EndSplineSet
EndChar

StartChar: comma
Encoding: 44 44 219
Width: 266
VWidth: 0
Flags: HW
PickledData: "(dp1
S'org.robofab.postScriptHintData'
p2
(dp3
sS'com.typemytype.robofont.layerData'
p4
(dp5
S'b'
(dp6
S'name'
p7
S'comma'
p8
sS'lib'
p9
(dp10
sS'unicodes'
p11
(tsS'width'
p12
F491.10000000000002
sS'contours'
p13
(tsS'components'
p14
(tsS'anchors'
p15
(tsss."
LayerCount: 2
Fore
SplineSet
25 -112 m 257
 80 131 l 257
 216 131 l 257
 128 -112 l 257
 25 -112 l 257
EndSplineSet
EndChar

StartChar: copyright
Encoding: 169 169 220
Width: 836
VWidth: 0
Flags: HW
PickledData: "(dp1
S'org.robofab.postScriptHintData'
p2
(dp3
sS'com.typemytype.robofont.layerData'
p4
(dp5
S'b'
(dp6
S'name'
p7
S'copyright'
p8
sS'lib'
p9
(dp10
sS'unicodes'
p11
(tsS'width'
p12
I1733
sS'contours'
p13
(tsS'components'
p14
(tsS'anchors'
p15
(tsss."
LayerCount: 2
Fore
SplineSet
418 -11 m 256
 216 -11 52 155 52 357 c 256
 52 559 216 724 418 724 c 256
 620 724 785 559 785 357 c 256
 785 155 620 -11 418 -11 c 256
417 45 m 256
 585 45 719 187 719 356 c 256
 719 524 585 665 417 665 c 256
 249 665 116 524 116 356 c 256
 116 187 249 45 417 45 c 256
428 138 m 256
 285 138 213 242 213 355 c 256
 213 476 293 571 427 571 c 256
 492 571 541 552 576 515 c 257
 541 451 l 257
 517 472 484 490 438 490 c 256
 358 490 317 434 317 355 c 256
 317 277 359 219 441 219 c 256
 498 219 530 247 543 257 c 257
 574 183 l 257
 530 152 488 138 428 138 c 256
EndSplineSet
EndChar

StartChar: currency
Encoding: 164 164 221
Width: 594
VWidth: 0
Flags: HW
PickledData: "(dp1
S'org.robofab.postScriptHintData'
p2
(dp3
s."
LayerCount: 2
Fore
SplineSet
297 347 m 256
 382 347 445 413 445 498 c 256
 445 583 382 650 297 650 c 256
 212 650 150 583 150 498 c 256
 150 413 212 347 297 347 c 256
83 265 m 257
 59 290 l 257
 150 381 l 257
 123 413 107 455 107 500 c 256
 107 547 124 590 153 623 c 257
 58 718 l 257
 83 743 l 257
 179 647 l 257
 211 672 253 688 298 688 c 256
 343 688 384 673 417 648 c 257
 512 743 l 257
 537 718 l 257
 442 624 l 257
 471 591 489 548 489 500 c 256
 489 455 473 413 446 380 c 257
 537 290 l 257
 512 265 l 257
 421 356 l 257
 388 329 345 312 298 312 c 256
 251 312 208 328 175 356 c 257
 83 265 l 257
EndSplineSet
EndChar

StartChar: d
Encoding: 100 100 222
Width: 618
VWidth: 0
Flags: HW
PickledData: "(dp1
S'org.robofab.postScriptHintData'
p2
(dp3
sS'com.typemytype.robofont.layerData'
p4
(dp5
S'b'
(dp6
S'name'
p7
S'd'
sS'lib'
p8
(dp9
sS'unicodes'
p10
(tsS'width'
p11
F1265.05
sS'contours'
p12
(tsS'components'
p13
(tsS'anchors'
p14
(tsss."
AnchorPoint: "caron.alt" 470 501 basechar 0
LayerCount: 2
Fore
SplineSet
306 86 m 256
 398 86 432 166 432 250 c 256
 432 341 394 416 305 416 c 256
 217 416 180 341 180 252 c 256
 180 166 214 86 306 86 c 256
281 -11 m 256
 155 -11 53 89 53 248 c 256
 53 388 132 514 291 514 c 256
 369 514 414 470 428 448 c 257
 428 711 l 257
 548 711 l 257
 548 134 l 258
 548 124 549 116 553 0 c 257
 429 0 l 257
 428 64 l 257
 418 38 373 -11 281 -11 c 256
EndSplineSet
EndChar

StartChar: dagger
Encoding: 8224 8224 223
Width: 499
VWidth: 0
Flags: HW
PickledData: "(dp1
S'org.robofab.postScriptHintData'
p2
(dp3
sS'com.typemytype.robofont.layerData'
p4
(dp5
s."
LayerCount: 2
Fore
SplineSet
186 0 m 257
 186 440 l 257
 26 440 l 257
 26 527 l 257
 186 527 l 257
 186 689 l 257
 282 689 l 257
 282 527 l 257
 443 527 l 257
 443 440 l 257
 284 440 l 257
 284 0 l 257
 186 0 l 257
EndSplineSet
EndChar

StartChar: daggerdbl
Encoding: 8225 8225 224
Width: 573
VWidth: 0
Flags: HW
PickledData: "(dp1
S'org.robofab.postScriptHintData'
p2
(dp3
sS'com.typemytype.robofont.layerData'
p4
(dp5
S'b'
(dp6
S'name'
p7
S'daggerdbl'
p8
sS'lib'
p9
(dp10
sS'unicodes'
p11
(tsS'width'
p12
F1092.6500000000001
sS'contours'
p13
(tsS'components'
p14
(tsS'anchors'
p15
(tsss."
LayerCount: 2
Fore
SplineSet
72 529 m 257
 237 529 l 257
 237 711 l 257
 344 711 l 257
 344 529 l 257
 503 529 l 257
 503 437 l 257
 344 437 l 257
 344 260 l 257
 499 260 l 257
 499 172 l 257
 344 172 l 257
 344 -55 l 257
 237 -55 l 257
 237 172 l 257
 70 172 l 257
 70 260 l 257
 237 260 l 257
 237 437 l 257
 72 437 l 257
 72 529 l 257
EndSplineSet
EndChar

StartChar: degree
Encoding: 176 176 228
Width: 432
VWidth: 0
Flags: HW
PickledData: "(dp1
S'org.robofab.postScriptHintData'
p2
(dp3
sS'com.typemytype.robofont.layerData'
p4
(dp5
S'b'
(dp6
S'name'
p7
S'degree'
p8
sS'lib'
p9
(dp10
sS'unicodes'
p11
(tsS'width'
p12
F856.60000000000002
sS'contours'
p13
(tsS'components'
p14
(tsS'anchors'
p15
(tsss."
LayerCount: 2
Fore
SplineSet
216 415 m 256
 133 415 63 480 63 565 c 256
 63 649 133 716 216 716 c 256
 300 716 370 649 370 565 c 256
 370 480 300 415 216 415 c 256
216 480 m 256
 263 480 299 516 299 564 c 256
 299 612 263 648 216 648 c 256
 170 648 135 612 135 564 c 256
 135 516 171 480 216 480 c 256
EndSplineSet
EndChar

StartChar: dieresis
Encoding: 168 168 229
Width: 362
VWidth: 0
Flags: HW
PickledData: "(dp1
S'org.robofab.postScriptHintData'
p2
(dp3
s."
LayerCount: 2
Fore
SplineSet
232 562 m 257
 232 672 l 257
 352 672 l 257
 352 562 l 257
 232 562 l 257
9 562 m 257
 9 672 l 257
 129 672 l 257
 129 562 l 257
 9 562 l 257
EndSplineSet
EndChar

StartChar: divide
Encoding: 247 247 230
Width: 731
VWidth: 0
Flags: HW
PickledData: "(dp1
S'org.robofab.postScriptHintData'
p2
(dp3
sS'com.typemytype.robofont.layerData'
p4
(dp5
s."
LayerCount: 2
Fore
SplineSet
301 410 m 257
 301 542 l 257
 399 542 l 257
 399 410 l 257
 301 410 l 257
82 219 m 257
 82 320 l 257
 612 320 l 257
 612 219 l 257
 82 219 l 257
303 -9 m 257
 303 124 l 257
 401 124 l 257
 402 -9 l 257
 303 -9 l 257
EndSplineSet
EndChar

StartChar: dollar
Encoding: 36 36 232
Width: 604
VWidth: 0
Flags: HW
PickledData: "(dp1
S'org.robofab.postScriptHintData'
p2
(dp3
sS'com.typemytype.robofont.layerData'
p4
(dp5
S'b'
(dp6
S'name'
p7
S'dollar'
p8
sS'lib'
p9
(dp10
sS'unicodes'
p11
(tsS'width'
p12
F1200.0999999999999
sS'contours'
p13
(tsS'components'
p14
(tsS'anchors'
p15
(tsss."
LayerCount: 2
Fore
SplineSet
282 615 m 257
 282 436 l 257
 200 466 189 488 189 536 c 256
 189 583 228 608 282 615 c 257
331 97 m 257
 331 294 l 257
 416 262 425 238 425 193 c 256
 425 136 395 105 331 97 c 257
282 -107 m 257
 331 -107 l 257
 331 -10 l 257
 451 -3 557 53 557 191 c 256
 557 298 517 350 402 396 c 256
 381 404 355 411 331 419 c 257
 331 617 l 257
 377 616 437 606 486 560 c 257
 550 642 l 257
 494 695 442 721 331 724 c 257
 331 794 l 257
 282 794 l 257
 282 724 l 257
 154 718 57 653 57 531 c 256
 57 425 112 372 224 330 c 256
 243 324 262 317 282 311 c 257
 282 95 l 257
 228 99 152 125 109 159 c 257
 56 70 l 257
 105 22 194 -7 282 -11 c 257
 282 -107 l 257
EndSplineSet
EndChar

StartChar: dotaccent
Encoding: 729 729 233
Width: 255
VWidth: 0
Flags: HW
PickledData: "(dp1
S'org.robofab.postScriptHintData'
p2
(dp3
sS'com.typemytype.robofont.layerData'
p4
(dp5
S'b'
(dp6
S'name'
p7
S'dotaccent'
p8
sS'lib'
p9
(dp10
sS'unicodes'
p11
(tsS'width'
p12
F524
sS'contours'
p13
(tsS'components'
p14
(tsS'anchors'
p15
(tsss."
LayerCount: 2
Fore
SplineSet
62 569 m 257
 62 681 l 257
 183 681 l 257
 183 569 l 257
 62 569 l 257
EndSplineSet
EndChar

StartChar: dotlessi
Encoding: 305 305 234
Width: 236
VWidth: 0
Flags: HW
PickledData: "(dp1
S'org.robofab.postScriptHintData'
p2
(dp3
sS'com.typemytype.robofont.layerData'
p4
(dp5
s."
LayerCount: 2
Fore
SplineSet
50 0 m 257
 50 501 l 257
 172 501 l 257
 172 0 l 257
 50 0 l 257
EndSplineSet
EndChar

StartChar: uni0237
Encoding: 567 567 235
Width: 292
VWidth: 0
Flags: HW
PickledData: "(dp1
S'org.robofab.postScriptHintData'
p2
(dp3
s."
LayerCount: 2
Fore
SplineSet
49 -177 m 256
 -12 -177 -42 -164 -42 -164 c 257
 -28 -81 l 257
 -22 -83 9 -90 42 -90 c 256
 84 -90 106 -78 106 10 c 258
 106 501 l 257
 230 501 l 257
 230 -4 l 258
 230 -115 195 -177 49 -177 c 256
-28 -81 m 257
 -29 -81 -29 -80 -29 -80 c 257
 -28 -80 l 257
 -28 -81 l 257
EndSplineSet
EndChar

StartChar: e
Encoding: 101 101 238
Width: 588
VWidth: 0
Flags: HW
PickledData: "(dp1
S'org.robofab.postScriptHintData'
p2
(dp3
sS'com.fontlab.hintData'
p4
(dp5
S'vhints'
p6
((dp7
S'position'
p8
I106
sS'width'
p9
I195
stp10
sS'hhints'
p11
((dp12
g8
I-22
sg9
I154
s(dp13
g8
I486
sg9
I131
s(dp14
g8
I901
sg9
I151
stp15
ssS'com.typemytype.robofont.layerData'
p16
(dp17
S'b'
(dp18
S'name'
p19
S'e'
sS'lib'
p20
(dp21
sS'unicodes'
p22
(tsg9
F1169.75
sS'contours'
p23
(tsS'components'
p24
(tsS'anchors'
p25
(tsssS'com.typemytype.robofont.guides'
p26
(ts."
HStem: -11 75 237 64 440 74
VStem: 52 95
LayerCount: 2
Fore
SplineSet
182 311 m 257
 431 311 l 257
 419 383 374 420 316 420 c 256
 245 420 198 378 182 311 c 257
325 -11 m 256
 153 -11 53 97 53 250 c 256
 53 389 147 514 310 514 c 256
 474 514 535 394 535 251 c 256
 535 245 534 236 532 230 c 257
 181 230 l 257
 185 128 248 86 336 86 c 256
 390 86 443 104 495 140 c 257
 527 52 l 257
 465 9 404 -11 325 -11 c 256
EndSplineSet
EndChar

StartChar: eight
Encoding: 56 56 247
Width: 622
VWidth: 0
Flags: HW
PickledData: "(dp1
S'org.robofab.postScriptHintData'
p2
(dp3
sS'com.typemytype.robofont.layerData'
p4
(dp5
S'b'
(dp6
S'name'
p7
S'eight'
p8
sS'lib'
p9
(dp10
sS'unicodes'
p11
(tsS'width'
p12
F1235.45
sS'contours'
p13
(tsS'components'
p14
(tsS'anchors'
p15
(tsss."
LayerCount: 2
Fore
SplineSet
310 419 m 257
 373 438 412 477 412 535 c 256
 412 586 366 615 309 615 c 256
 248 615 207 589 207 529 c 256
 207 476 246 436 310 419 c 257
310 97 m 256
 380 97 427 129 427 202 c 256
 427 258 376 312 313 329 c 257
 245 314 194 264 194 200 c 256
 194 134 239 97 310 97 c 256
312 -11 m 256
 174 -11 68 63 68 193 c 256
 68 273 113 336 188 373 c 257
 126 408 82 461 82 537 c 256
 82 656 179 724 309 724 c 256
 451 724 538 651 538 531 c 256
 538 454 497 403 433 372 c 257
 500 338 552 266 552 189 c 256
 552 59 437 -11 312 -11 c 256
EndSplineSet
EndChar

StartChar: ellipsis
Encoding: 8230 8230 249
Width: 791
VWidth: 0
Flags: HW
PickledData: "(dp1
S'org.robofab.postScriptHintData'
p2
(dp3
s."
LayerCount: 2
Fore
SplineSet
565 -5 m 257
 565 127 l 257
 711 127 l 257
 711 -5 l 257
 565 -5 l 257
311 -5 m 257
 311 127 l 257
 458 127 l 257
 458 -5 l 257
 311 -5 l 257
56 -5 m 257
 56 127 l 257
 203 127 l 257
 204 -5 l 257
 56 -5 l 257
EndSplineSet
EndChar

StartChar: emdash
Encoding: 8212 8212 251
Width: 1060
VWidth: 0
Flags: HW
PickledData: "(dp1
S'org.robofab.postScriptHintData'
p2
(dp3
s."
LayerCount: 2
Fore
SplineSet
15 221 m 257
 15 321 l 257
 1045 321 l 257
 1045 221 l 257
 15 221 l 257
EndSplineSet
EndChar

StartChar: endash
Encoding: 8211 8211 252
Width: 524
VWidth: 0
Flags: HW
PickledData: "(dp1
S'org.robofab.postScriptHintData'
p2
(dp3
sS'com.typemytype.robofont.layerData'
p4
(dp5
s."
LayerCount: 2
Fore
SplineSet
-7 219 m 257
 -7 321 l 257
 532 321 l 257
 532 219 l 257
 -7 219 l 257
EndSplineSet
EndChar

StartChar: eng
Encoding: 331 331 253
Width: 581
VWidth: 0
Flags: HW
PickledData: "(dp1
S'org.robofab.postScriptHintData'
p2
(dp3
sS'com.typemytype.robofont.layerData'
p4
(dp5
s."
LayerCount: 2
Fore
SplineSet
256 -193 m 257
 256 -96 l 257
 327 -96 398 -72 398 24 c 258
 398 294 l 258
 398 383 378 416 315 416 c 256
 271 416 197 375 197 300 c 258
 197 0 l 257
 76 0 l 257
 76 310 l 258
 76 430 66 501 66 501 c 257
 195 501 l 257
 195 429 l 257
 223 486 291 514 340 514 c 256
 450 514 520 460 520 286 c 258
 520 54 l 258
 520 -114 412 -193 256 -193 c 257
EndSplineSet
EndChar

StartChar: equal
Encoding: 61 61 255
Width: 722
VWidth: 0
Flags: HW
PickledData: "(dp1
S'org.robofab.postScriptHintData'
p2
(dp3
sS'com.typemytype.robofont.layerData'
p4
(dp5
S'b'
(dp6
S'name'
p7
S'equal'
p8
sS'lib'
p9
(dp10
sS'unicodes'
p11
(tsS'width'
p12
I1229
sS'contours'
p13
(tsS'components'
p14
(tsS'anchors'
p15
(tsss."
LayerCount: 2
Fore
SplineSet
106 326 m 257
 106 424 l 257
 615 424 l 257
 615 326 l 257
 106 326 l 257
105 127 m 257
 105 225 l 257
 616 225 l 257
 616 127 l 257
 105 127 l 257
EndSplineSet
EndChar

StartChar: estimated
Encoding: 8494 8494 256
Width: 581
VWidth: 0
Flags: HW
PickledData: "(dp1
S'org.robofab.postScriptHintData'
p2
(dp3
s."
LayerCount: 2
Fore
SplineSet
174 348 m 257
 422 348 l 257
 422 506 360 557 297 557 c 256
 234 557 174 506 174 348 c 257
306 56 m 256
 167 56 47 143 47 318 c 256
 47 512 174 585 298 585 c 256
 413 585 524 525 524 342 c 256
 524 337 524 328 522 320 c 257
 171 320 l 257
 171 163 235 86 333 86 c 256
 383 86 441 106 502 146 c 257
 516 121 l 257
 450 78 375 56 306 56 c 256
EndSplineSet
EndChar

StartChar: eth
Encoding: 240 240 257
Width: 594
VWidth: 0
Flags: HW
PickledData: "(dp1
S'org.robofab.postScriptHintData'
p2
(dp3
sS'com.typemytype.robofont.layerData'
p4
(dp5
S'b'
(dp6
S'name'
p7
S'eth'
p8
sS'lib'
p9
(dp10
sS'unicodes'
p11
(tsS'width'
p12
F1222.55
sS'contours'
p13
(tsS'components'
p14
(tsS'anchors'
p15
(tsss."
LayerCount: 2
Fore
SplineSet
294 84 m 256
 345 84 410 125 410 215 c 256
 410 294 346 338 286 338 c 256
 230 338 172 305 172 219 c 256
 172 125 235 84 294 84 c 256
285 -12 m 256
 139 -12 48 102 48 230 c 256
 48 358 123 440 259 440 c 256
 313 440 371 427 427 368 c 257
 427 375 429 384 429 397 c 256
 429 429 416 479 327 544 c 257
 203 483 l 257
 171 548 l 257
 249 586 l 257
 222 595 188 604 145 614 c 257
 183 692 l 257
 202 692 275 680 351 638 c 257
 476 700 l 257
 508 635 l 257
 417 590 l 257
 481 534 537 447 537 303 c 256
 537 75 443 -12 285 -12 c 256
EndSplineSet
EndChar

StartChar: exclam
Encoding: 33 33 259
Width: 335
VWidth: 0
Flags: HW
PickledData: "(dp1
S'org.robofab.postScriptHintData'
p2
(dp3
sS'com.typemytype.robofont.layerData'
p4
(dp5
S'b'
(dp6
S'name'
p7
S'exclam'
p8
sS'lib'
p9
(dp10
sS'unicodes'
p11
(tsS'width'
p12
F590
sS'contours'
p13
(tsS'components'
p14
(tsS'anchors'
p15
(tsss."
LayerCount: 2
Fore
SplineSet
129 189 m 257
 93 711 l 257
 237 711 l 257
 201 189 l 257
 129 189 l 257
88 0 m 257
 88 133 l 257
 241 133 l 257
 241 0 l 257
 88 0 l 257
EndSplineSet
EndChar

StartChar: exclamdown
Encoding: 161 161 260
Width: 383
VWidth: 0
Flags: HW
PickledData: "(dp1
S'org.robofab.postScriptHintData'
p2
(dp3
sS'com.typemytype.robofont.layerData'
p4
(dp5
S'b'
(dp6
S'name'
p7
S'exclamdown'
p8
sS'lib'
p9
(dp10
sS'unicodes'
p11
(tsS'width'
p12
F614.5
sS'contours'
p13
(tsS'components'
p14
(tsS'anchors'
p15
(tsss."
LayerCount: 2
Fore
SplineSet
109 564 m 257
 262 564 l 257
 262 431 l 257
 109 431 l 257
 109 564 l 257
150 375 m 257
 222 375 l 257
 258 -146 l 257
 114 -146 l 257
 150 375 l 257
EndSplineSet
EndChar

StartChar: f
Encoding: 102 102 261
Width: 400
VWidth: 0
Flags: HW
PickledData: "(dp1
S'org.robofab.postScriptHintData'
p2
(dp3
sS'com.typemytype.robofont.layerData'
p4
(dp5
S'b'
(dp6
S'name'
p7
S'f'
sS'lib'
p8
(dp9
sS'unicodes'
p10
(tsS'width'
p11
F733.10000000000002
sS'contours'
p12
(tsS'components'
p13
(tsS'anchors'
p14
(tsss."
LayerCount: 2
Fore
SplineSet
127 0 m 257
 127 420 l 257
 34 420 l 257
 34 501 l 257
 127 501 l 257
 127 521 l 258
 127 664 143 725 338 725 c 258
 364 725 l 257
 360 631 l 257
 257 631 248 620 248 522 c 258
 248 501 l 257
 361 501 l 257
 361 420 l 257
 248 420 l 257
 248 0 l 257
 127 0 l 257
EndSplineSet
EndChar

StartChar: uniFB00
Encoding: 64256 64256 262
Width: 826
VWidth: 0
Flags: HW
PickledData: "(dp1
S'org.robofab.postScriptHintData'
p2
(dp3
sS'com.typemytype.robofont.layerData'
p4
(dp5
s."
LayerCount: 2
Fore
SplineSet
672 417 m 257
 672 0 l 257
 549 0 l 257
 549 417 l 257
 251 417 l 257
 251 0 l 257
 128 0 l 257
 128 417 l 257
 34 417 l 257
 34 501 l 257
 128 501 l 257
 128 519 l 258
 128 663 144 725 341 725 c 258
 367 725 l 257
 362 628 l 257
 261 628 251 619 251 519 c 258
 251 501 l 257
 549 501 l 257
 549 519 l 258
 549 663 565 725 762 725 c 258
 788 725 l 257
 783 628 l 257
 682 628 672 619 672 519 c 258
 672 501 l 257
 785 501 l 257
 785 417 l 257
 672 417 l 257
EndSplineSet
EndChar

StartChar: uniFB03
Encoding: 64259 64259 263
Width: 1091
VWidth: 0
Flags: HW
PickledData: "(dp1
S'org.robofab.postScriptHintData'
p2
(dp3
sS'com.typemytype.robofont.layerData'
p4
(dp5
s."
LayerCount: 2
Fore
SplineSet
1024 602 m 257
 904 602 l 257
 904 711 l 257
 1024 711 l 257
 1024 602 l 257
1024 0 m 257
 904 0 l 257
 904 417 l 257
 677 417 l 257
 677 0 l 257
 553 0 l 257
 553 417 l 257
 251 417 l 257
 251 0 l 257
 128 0 l 257
 128 417 l 257
 34 417 l 257
 34 501 l 257
 128 501 l 257
 128 519 l 258
 128 663 144 725 341 725 c 258
 367 725 l 257
 362 629 l 257
 261 629 251 620 251 520 c 258
 251 501 l 257
 553 501 l 257
 553 519 l 258
 553 663 569 725 766 725 c 258
 792 725 l 257
 788 629 l 257
 687 629 677 620 677 520 c 258
 677 501 l 257
 1024 501 l 257
 1024 0 l 257
EndSplineSet
EndChar

StartChar: uniFB04
Encoding: 64260 64260 264
Width: 1077
VWidth: 0
Flags: HW
PickledData: "(dp1
S'org.robofab.postScriptHintData'
p2
(dp3
sS'com.typemytype.robofont.layerData'
p4
(dp5
s."
LayerCount: 2
Fore
SplineSet
127 0 m 257
 127 417 l 257
 34 417 l 257
 34 501 l 257
 127 501 l 257
 127 521 l 258
 127 664 143 725 338 725 c 258
 364 725 l 257
 360 631 l 257
 257 631 248 620 248 522 c 258
 248 501 l 257
 444 501 l 257
 444 417 l 257
 248 417 l 257
 248 0 l 257
 127 0 l 257
EndSplineSet
Refer: 269 64258 N 1 0 0 1 360 0 2
EndChar

StartChar: uniFB01
Encoding: 64257 64257 266
Width: 630
VWidth: 0
Flags: HW
PickledData: "(dp1
S'org.robofab.postScriptHintData'
p2
(dp3
sS'com.typemytype.robofont.layerData'
p4
(dp5
S'b'
(dp6
S'name'
p7
S'fi'
p8
sS'lib'
p9
(dp10
sS'unicodes'
p11
(tsS'width'
p12
F1237.6500000000001
sS'contours'
p13
((dp14
S'points'
p15
((dp16
S'segmentType'
p17
S'line'
p18
sS'x'
F249
sS'smooth'
p19
I00
sS'y'
F0
s(dp20
g17
S'line'
p21
sS'x'
F249
sg19
I00
sS'y'
F919
s(dp22
g17
S'line'
p23
sS'x'
F68
sg19
I00
sS'y'
F919
s(dp24
g17
S'line'
p25
sS'x'
F68
sg19
I00
sS'y'
F1026
s(dp26
g17
S'line'
p27
sS'x'
F249
sg19
I00
sS'y'
F1026
s(dp28
g17
S'line'
p29
sS'x'
F249
sg19
I01
sS'y'
F1127
s(dp30
S'y'
F1378
sS'x'
F249
sg19
I00
s(dp31
S'y'
F1492
sS'x'
F295
sg19
I00
s(dp32
g17
S'curve'
p33
sS'x'
F630
sg19
I01
sS'y'
F1492
s(dp34
g17
S'line'
p35
sS'x'
F676
sg19
I00
sS'y'
F1492
s(dp36
g17
S'line'
p37
sS'x'
F676
sg19
I00
sS'y'
F1364
s(dp38
S'y'
F1364
sS'x'
F431
sg19
I00
s(dp39
S'y'
F1311
sS'x'
F413
sg19
I00
s(dp40
g17
S'curve'
p41
sS'x'
F413
sg19
I01
sS'y'
F1150
s(dp42
g17
S'line'
p43
sS'x'
F413
sg19
I00
sS'y'
F1026
s(dp44
g17
S'line'
p45
sS'x'
F662
sg19
I00
sS'y'
F1026
s(dp46
g17
S'line'
p47
sS'x'
F662
sg19
I00
sS'y'
F919
s(dp48
g17
S'line'
p49
sS'x'
F413
sg19
I00
sS'y'
F919
s(dp50
g17
S'line'
p51
sS'x'
F413
sg19
I00
sS'y'
F0
stp52
s(dp53
g15
((dp54
g17
S'line'
p55
sS'x'
F869
sg19
I00
sS'y'
F0
s(dp56
g17
S'line'
p57
sS'x'
F869
sg19
I00
sS'y'
F1026
s(dp58
g17
S'line'
p59
sS'x'
F1033
sg19
I00
sS'y'
F1026
s(dp60
g17
S'line'
p61
sS'x'
F1033
sg19
I00
sS'y'
F0
stp62
s(dp63
g15
((dp64
g17
S'line'
p65
sS'x'
F869
sg19
I00
sS'y'
F1307
s(dp66
g17
S'line'
p67
sS'x'
F869
sg19
I00
sS'y'
F1462
s(dp68
g17
S'line'
p69
sS'x'
F1033
sg19
I00
sS'y'
F1462
s(dp70
g17
S'line'
p71
sS'x'
F1033
sg19
I00
sS'y'
F1307
stp72
stp73
sS'components'
p74
(tsS'anchors'
p75
(tsss."
LayerCount: 2
Fore
SplineSet
128 0 m 257
 128 417 l 257
 34 417 l 257
 34 501 l 257
 128 501 l 257
 128 519 l 258
 128 663 144 725 341 725 c 258
 367 725 l 257
 362 628 l 257
 261 628 251 619 251 519 c 258
 251 501 l 257
 451 501 l 257
 451 417 l 257
 251 417 l 257
 251 0 l 257
 128 0 l 257
EndSplineSet
Refer: 295 105 N 1 0 0 1 371 0 2
EndChar

StartChar: five
Encoding: 53 53 267
Width: 621
VWidth: 0
Flags: HW
PickledData: "(dp1
S'org.robofab.postScriptHintData'
p2
(dp3
sS'com.typemytype.robofont.layerData'
p4
(dp5
s."
LayerCount: 2
Fore
SplineSet
304 -11 m 256
 224 -11 141 21 79 86 c 257
 144 179 l 257
 190 122 249 95 301 95 c 256
 368 95 432 139 432 232 c 256
 432 298 398 359 338 359 c 256
 305 359 273 351 256 327 c 257
 133 344 l 257
 133 711 l 257
 528 711 l 257
 528 605 l 257
 242 605 l 257
 236 423 l 257
 264 460 312 469 363 469 c 256
 469 469 560 367 560 230 c 256
 560 68 431 -11 304 -11 c 256
EndSplineSet
EndChar

StartChar: uniFB02
Encoding: 64258 64258 269
Width: 617
VWidth: 0
Flags: HW
PickledData: "(dp1
S'org.robofab.postScriptHintData'
p2
(dp3
sS'com.typemytype.robofont.layerData'
p4
(dp5
S'b'
(dp6
S'name'
p7
S'fl'
p8
sS'lib'
p9
(dp10
sS'unicodes'
p11
(tsS'width'
p12
F1252.7
sS'contours'
p13
(tsS'components'
p14
((dp15
S'transformation'
p16
(I1
I0
I0
I1
I20
I0
tp17
sS'baseGlyph'
p18
S'f'
s(dp19
g16
(I1
I0
I0
I1
I714
I0
tp20
sg18
S'l'
stp21
sS'anchors'
p22
(tsss."
LayerCount: 2
Fore
SplineSet
125 0 m 257
 125 417 l 257
 34 417 l 257
 34 501 l 257
 125 501 l 257
 125 506 l 258
 125 649 161 714 328 714 c 258
 552 714 l 257
 552 0 l 257
 429 0 l 257
 429 618 l 257
 355 618 l 258
 269 618 249 596 249 534 c 258
 249 501 l 257
 361 501 l 257
 361 417 l 257
 249 417 l 257
 249 0 l 257
 125 0 l 257
EndSplineSet
EndChar

StartChar: florin
Encoding: 402 402 270
Width: 542
VWidth: 0
Flags: HW
PickledData: "(dp1
S'org.robofab.postScriptHintData'
p2
(dp3
sS'com.typemytype.robofont.layerData'
p4
(dp5
S'b'
(dp6
S'name'
p7
S'florin'
p8
sS'lib'
p9
(dp10
sS'unicodes'
p11
(tsS'width'
p12
F1073.0999999999999
sS'contours'
p13
(tsS'components'
p14
(tsS'anchors'
p15
(tsss."
LayerCount: 2
Fore
SplineSet
99 -154 m 256
 98 -154 70 -153 46 -145 c 257
 55 -44 l 257
 59 -45 81 -49 103 -49 c 256
 127 -49 158 -43 174 42 c 257
 222 309 l 257
 154 309 l 257
 174 389 l 257
 238 389 l 257
 266 541 l 258
 279 608 307 708 440 708 c 256
 504 708 533 686 533 686 c 257
 524 588 l 257
 518 590 490 598 468 598 c 256
 445 598 412 594 401 535 c 258
 373 389 l 257
 446 389 l 257
 430 309 l 257
 354 309 l 257
 303 22 l 258
 279 -114 203 -154 99 -154 c 256
526 588 m 257
 526 588 525 588 524 588 c 257
 525 588 526 588 526 588 c 257
EndSplineSet
EndChar

StartChar: foundryicon
Encoding: 65539 -1 271
Width: 657
VWidth: 0
Flags: HW
PickledData: "(dp1
S'org.robofab.postScriptHintData'
p2
(dp3
s."
LayerCount: 2
Fore
SplineSet
137 1 m 257
 207 225 l 257
 17 369 l 257
 253 369 l 257
 327 593 l 257
 404 369 l 257
 641 369 l 257
 450 225 l 257
 521 1 l 257
 327 136 l 257
 137 1 l 257
237 198 m 257
 289 198 l 257
 289 270 l 257
 372 198 l 257
 423 198 l 257
 423 328 l 257
 372 328 l 257
 372 255 l 257
 289 328 l 257
 237 328 l 257
 237 198 l 257
EndSplineSet
EndChar

StartChar: four
Encoding: 52 52 272
Width: 621
VWidth: 0
Flags: HW
PickledData: "(dp1
S'org.robofab.postScriptHintData'
p2
(dp3
sS'com.typemytype.robofont.layerData'
p4
(dp5
S'b'
(dp6
S'name'
p7
S'four'
p8
sS'lib'
p9
(dp10
sS'unicodes'
p11
(tsS'width'
p12
F1234.0999999999999
sS'contours'
p13
(tsS'components'
p14
(tsS'anchors'
p15
(tsss."
LayerCount: 2
Fore
SplineSet
190 283 m 257
 355 283 l 257
 355 554 l 257
 299 465 245 373 190 283 c 257
354 0 m 257
 354 186 l 257
 52 186 l 257
 52 278 l 257
 337 711 l 257
 477 711 l 257
 477 283 l 257
 589 283 l 257
 589 186 l 257
 479 186 l 257
 479 0 l 257
 354 0 l 257
EndSplineSet
EndChar

StartChar: uni2074
Encoding: 8308 8308 273
Width: 372
VWidth: 0
Flags: HW
PickledData: "(dp1
S'org.robofab.postScriptHintData'
p2
(dp3
sS'com.typemytype.robofont.layerData'
p4
(dp5
s."
LayerCount: 2
Fore
SplineSet
115 475 m 257
 203 475 l 257
 203 600 l 257
 115 475 l 257
204 313 m 257
 204 409 l 257
 25 409 l 257
 25 465 l 257
 205 711 l 257
 295 711 l 257
 295 475 l 257
 352 475 l 257
 352 409 l 257
 295 409 l 257
 295 313 l 257
 204 313 l 257
EndSplineSet
EndChar

StartChar: fraction
Encoding: 8260 8260 274
Width: 553
VWidth: 0
Flags: HW
PickledData: "(dp1
S'org.robofab.postScriptHintData'
p2
(dp3
sS'com.typemytype.robofont.layerData'
p4
(dp5
S'b'
(dp6
S'name'
p7
S'fraction'
p8
sS'lib'
p9
(dp10
sS'unicodes'
p11
(tsS'width'
p12
F1077.8
sS'contours'
p13
(tsS'components'
p14
(tsS'anchors'
p15
(tsss."
LayerCount: 2
Fore
SplineSet
-6 0 m 257
 426 711 l 257
 548 711 l 257
 116 0 l 257
 -6 0 l 257
EndSplineSet
EndChar

StartChar: g
Encoding: 103 103 275
Width: 603
VWidth: 0
Flags: HW
PickledData: "(dp1
S'org.robofab.postScriptHintData'
p2
(dp3
sS'com.typemytype.robofont.layerData'
p4
(dp5
S'b'
(dp6
S'name'
p7
S'g'
sS'lib'
p8
(dp9
sS'unicodes'
p10
(tsS'width'
p11
I1254
sS'contours'
p12
((dp13
S'points'
p14
((dp15
S'segmentType'
p16
S'curve'
p17
sS'x'
F580
sS'smooth'
p18
I01
sS'y'
F134
s(dp19
S'y'
F134
sS'x'
F799
sg18
I00
s(dp20
S'y'
F295
sS'x'
F920
sg18
I00
s(dp21
g16
S'curve'
p22
sS'x'
F920
sg18
I01
sS'y'
F550
s(dp23
S'y'
F775
sS'x'
F920
sg18
I00
s(dp24
S'y'
F918
sS'x'
F796
sg18
I00
s(dp25
g16
S'curve'
p26
sS'x'
F600
sg18
I01
sS'y'
F918
s(dp27
S'y'
F918
sS'x'
F399
sg18
I00
s(dp28
S'y'
F762
sS'x'
F268
sg18
I00
s(dp29
g16
S'curve'
p30
sS'x'
F268
sg18
I01
sS'y'
F515
s(dp31
S'y'
F282
sS'x'
F268
sg18
I00
s(dp32
S'y'
F134
sS'x'
F389
sg18
I00
stp33
s(dp34
g14
((dp35
g16
S'curve'
p36
sS'x'
F534
sg18
I01
sS'y'
F-420
s(dp37
S'y'
F-420
sS'x'
F408
sg18
I00
s(dp38
S'y'
F-381
sS'x'
F289
sg18
I00
s(dp39
g16
S'curve'
p40
sS'x'
F189
sg18
I00
sS'y'
F-331
s(dp41
g16
S'line'
p42
sS'x'
F216
sg18
I00
sS'y'
F-187
s(dp43
S'y'
F-238
sS'x'
F300
sg18
I00
s(dp44
S'y'
F-282
sS'x'
F416
sg18
I00
s(dp45
g16
S'curve'
p46
sS'x'
F528
sg18
I01
sS'y'
F-282
s(dp47
S'y'
F-282
sS'x'
F790
sg18
I00
s(dp48
S'y'
F-183
sS'x'
F920
sg18
I00
s(dp49
g16
S'curve'
p50
sS'x'
F920
sg18
I01
sS'y'
F49
s(dp51
g16
S'line'
p52
sS'x'
F920
sg18
I00
sS'y'
F273
s(dp53
g16
S'line'
p54
sS'x'
F948
sg18
I00
sS'y'
F253
s(dp55
S'y'
F139
sS'x'
F905
sg18
I00
s(dp56
S'y'
F0
sS'x'
F802
sg18
I00
s(dp57
g16
S'curve'
p58
sS'x'
F579
sg18
I01
sS'y'
F0
s(dp59
S'y'
F0
sS'x'
F298
sg18
I00
s(dp60
S'y'
F201
sS'x'
F98
sg18
I00
s(dp61
g16
S'curve'
p62
sS'x'
F98
sg18
I01
sS'y'
F511
s(dp63
S'y'
F843
sS'x'
F98
sg18
I00
s(dp64
S'y'
F1052
sS'x'
F284
sg18
I00
s(dp65
g16
S'curve'
p66
sS'x'
F579
sg18
I01
sS'y'
F1052
s(dp67
S'y'
F1052
sS'x'
F820
sg18
I00
s(dp68
S'y'
F900
sS'x'
F903
sg18
I00
s(dp69
g16
S'curve'
p70
sS'x'
F958
sg18
I00
sS'y'
F798
s(dp71
g16
S'line'
p72
sS'x'
F919
sg18
I00
sS'y'
F787
s(dp73
g16
S'line'
p74
sS'x'
F926
sg18
I00
sS'y'
F1026
s(dp75
g16
S'line'
p76
sS'x'
F1090
sg18
I00
sS'y'
F1026
s(dp77
S'y'
F1026
sS'x'
F1090
sg18
I00
s(dp78
S'y'
F857
sS'x'
F1084
sg18
I00
s(dp79
g16
S'curve'
p80
sS'x'
F1084
sg18
I01
sS'y'
F773
s(dp81
g16
S'line'
p82
sS'x'
F1084
sg18
I01
sS'y'
F143
s(dp83
S'y'
F-255
sS'x'
F1084
sg18
I00
s(dp84
S'y'
F-420
sS'x'
F903
sg18
I00
stp85
stp86
sS'components'
p87
(tsS'anchors'
p88
(tsss."
LayerCount: 2
Fore
SplineSet
306 91 m 256
 405 91 429 176 429 252 c 256
 429 344 392 416 307 416 c 256
 220 416 180 336 180 251 c 256
 180 155 217 91 306 91 c 256
282 -204 m 256
 216 -204 153 -192 92 -170 c 257
 113 -65 l 257
 174 -97 230 -104 273 -104 c 256
 363 -104 423 -66 423 17 c 258
 423 60 l 257
 404 34 366 0 297 0 c 256
 150 0 53 97 53 251 c 256
 53 388 124 514 288 514 c 256
 353 514 400 483 423 447 c 257
 423 501 l 257
 552 501 l 257
 552 501 542 427 542 333 c 258
 542 72 l 258
 542 -46 509 -204 282 -204 c 256
EndSplineSet
EndChar

StartChar: germandbls
Encoding: 223 223 282
Width: 617
VWidth: 0
Flags: HW
PickledData: "(dp1
S'org.robofab.postScriptHintData'
p2
(dp3
sS'com.typemytype.robofont.layerData'
p4
(dp5
S'b'
(dp6
S'name'
p7
S'germandbls'
p8
sS'lib'
p9
(dp10
sS'unicodes'
p11
(tsS'width'
p12
F1250.95
sS'contours'
p13
(tsS'components'
p14
(tsS'anchors'
p15
(tsss."
LayerCount: 2
Fore
SplineSet
373 85 m 256
 422 85 450 109 450 164 c 256
 450 239 404 283 279 346 c 257
 279 438 l 257
 326 459 377 507 377 560 c 256
 377 602 338 625 297 625 c 256
 234 625 189 579 189 488 c 258
 189 0 l 257
 72 0 l 257
 70 488 l 258
 70 648 159 722 296 722 c 256
 421 722 509 657 509 567 c 256
 509 510 478 447 416 416 c 256
 398 407 383 401 363 396 c 257
 482 370 585 300 585 173 c 256
 585 59 504 -11 404 -11 c 256
 318 -11 246 18 246 18 c 257
 268 112 l 257
 268 112 323 85 373 85 c 256
EndSplineSet
EndChar

StartChar: grave
Encoding: 96 96 283
Width: 297
VWidth: 0
Flags: HW
PickledData: "(dp1
S'org.robofab.postScriptHintData'
p2
(dp3
sS'com.typemytype.robofont.layerData'
p4
(dp5
s."
LayerCount: 2
Fore
SplineSet
164 569 m 257
 -7 710 l 257
 148 710 l 257
 276 569 l 257
 164 569 l 257
EndSplineSet
EndChar

StartChar: greater
Encoding: 62 62 284
Width: 692
VWidth: 0
Flags: HW
PickledData: "(dp1
S'org.robofab.postScriptHintData'
p2
(dp3
sS'com.typemytype.robofont.layerData'
p4
(dp5
S'b'
(dp6
S'name'
p7
S'greater'
p8
sS'lib'
p9
(dp10
sS'unicodes'
p11
(tsS'width'
p12
F1268.05
sS'contours'
p13
(tsS'components'
p14
(tsS'anchors'
p15
(tsss."
LayerCount: 2
Fore
SplineSet
104 19 m 257
 104 133 l 257
 456 280 l 257
 107 438 l 257
 107 548 l 257
 620 305 l 257
 620 244 l 257
 104 19 l 257
EndSplineSet
EndChar

StartChar: greaterequal
Encoding: 8805 8805 285
Width: 659
VWidth: 0
Flags: HW
PickledData: "(dp1
S'org.robofab.postScriptHintData'
p2
(dp3
sS'com.typemytype.robofont.layerData'
p4
(dp5
S'b'
(dp6
S'name'
p7
S'greaterequal'
p8
sS'lib'
p9
(dp10
sS'unicodes'
p11
(tsS'width'
p12
F1350.3499999999999
sS'contours'
p13
(tsS'components'
p14
(tsS'anchors'
p15
(tsss."
LayerCount: 2
Fore
SplineSet
47 0 m 257
 47 92 l 257
 570 92 l 257
 570 0 l 257
 47 0 l 257
50 127 m 257
 50 239 l 257
 404 394 l 257
 52 545 l 257
 52 654 l 257
 564 423 l 257
 564 367 l 257
 50 127 l 257
EndSplineSet
EndChar

StartChar: guillemotleft
Encoding: 171 171 286
Width: 574
VWidth: 0
Flags: HW
PickledData: "(dp1
S'org.robofab.postScriptHintData'
p2
(dp3
sS'com.typemytype.robofont.layerData'
p4
(dp5
S'b'
(dp6
S'name'
p7
S'guillemotright'
p8
sS'lib'
p9
(dp10
sS'unicodes'
p11
(tsS'width'
p12
F1122.45
sS'contours'
p13
(tsS'components'
p14
(tsS'anchors'
p15
(tsss."
LayerCount: 2
Fore
SplineSet
417 77 m 257
 282 264 l 257
 420 450 l 257
 518 450 l 257
 401 263 l 257
 514 77 l 257
 417 77 l 257
202 77 m 257
 66 264 l 257
 205 450 l 257
 302 450 l 257
 186 263 l 257
 298 77 l 257
 202 77 l 257
EndSplineSet
EndChar

StartChar: guillemotright
Encoding: 187 187 287
Width: 574
VWidth: 0
Flags: HW
PickledData: "(dp1
S'org.robofab.postScriptHintData'
p2
(dp3
sS'com.typemytype.robofont.layerData'
p4
(dp5
S'b'
(dp6
S'name'
p7
S'guillemotright'
p8
sS'lib'
p9
(dp10
sS'unicodes'
p11
(tsS'width'
p12
F1122.45
sS'contours'
p13
(tsS'components'
p14
(tsS'anchors'
p15
(tsss."
LayerCount: 2
Fore
SplineSet
281 77 m 257
 397 264 l 257
 285 450 l 257
 382 450 l 257
 517 263 l 257
 379 77 l 257
 281 77 l 257
65 77 m 257
 182 264 l 257
 69 450 l 257
 167 450 l 257
 302 263 l 257
 164 77 l 257
 65 77 l 257
EndSplineSet
EndChar

StartChar: guilsinglleft
Encoding: 8249 8249 288
Width: 354
VWidth: 0
Flags: HW
PickledData: "(dp1
S'org.robofab.postScriptHintData'
p2
(dp3
sS'com.typemytype.robofont.layerData'
p4
(dp5
S'b'
(dp6
S'name'
p7
S'guilsinglleft'
p8
sS'lib'
p9
(dp10
sS'unicodes'
p11
(tsS'width'
p12
F688.39999999999998
sS'contours'
p13
(tsS'components'
p14
(tsS'anchors'
p15
(tsss."
LayerCount: 2
Fore
SplineSet
203 77 m 257
 67 264 l 257
 206 450 l 257
 303 450 l 257
 187 264 l 257
 299 77 l 257
 203 77 l 257
EndSplineSet
EndChar

StartChar: guilsinglright
Encoding: 8250 8250 289
Width: 354
VWidth: 0
Flags: HW
PickledData: "(dp1
S'org.robofab.postScriptHintData'
p2
(dp3
sS'com.typemytype.robofont.layerData'
p4
(dp5
S'b'
(dp6
S'name'
p7
S'guilsinglleft'
p8
sS'lib'
p9
(dp10
sS'unicodes'
p11
(tsS'width'
p12
F688.39999999999998
sS'contours'
p13
(tsS'components'
p14
(tsS'anchors'
p15
(tsss."
LayerCount: 2
Fore
SplineSet
44 77 m 257
 161 263 l 257
 48 450 l 257
 145 450 l 257
 281 263 l 257
 142 77 l 257
 44 77 l 257
EndSplineSet
EndChar

StartChar: h
Encoding: 104 104 290
Width: 595
VWidth: 0
Flags: HW
PickledData: "(dp1
S'org.robofab.postScriptHintData'
p2
(dp3
sS'com.typemytype.robofont.layerData'
p4
(dp5
S'b'
(dp6
S'name'
p7
S'h'
sS'lib'
p8
(dp9
sS'unicodes'
p10
(tsS'width'
p11
F1237.95
sS'contours'
p12
((dp13
S'points'
p14
((dp15
S'segmentType'
p16
S'line'
p17
sS'x'
F178
sS'smooth'
p18
I00
sS'y'
F0
s(dp19
g16
S'line'
p20
sS'x'
F178
sg18
I01
sS'y'
F779
s(dp21
S'y'
F902
sS'x'
F178
sg18
I00
s(dp22
S'y'
F1026
sS'x'
F172
sg18
I00
s(dp23
g16
S'curve'
p24
sS'x'
F172
sg18
I00
sS'y'
F1026
s(dp25
g16
S'line'
p26
sS'x'
F339
sg18
I00
sS'y'
F1026
s(dp27
g16
S'line'
p28
sS'x'
F343
sg18
I00
sS'y'
F864
s(dp29
S'y'
F976
sS'x'
F423
sg18
I00
s(dp30
S'y'
F1051
sS'x'
F548
sg18
I00
s(dp31
g16
S'curve'
p32
sS'x'
F700
sg18
I01
sS'y'
F1051
s(dp33
S'y'
F1051
sS'x'
F999
sg18
I00
s(dp34
S'y'
F844
sS'x'
F1082
sg18
I00
s(dp35
g16
S'curve'
p36
sS'x'
F1082
sg18
I01
sS'y'
F550
s(dp37
g16
S'line'
p38
sS'x'
F1082
sg18
I00
sS'y'
F0
s(dp39
g16
S'line'
p40
sS'x'
F917
sg18
I00
sS'y'
F0
s(dp41
g16
S'line'
p42
sS'x'
F917
sg18
I01
sS'y'
F531
s(dp43
S'y'
F764
sS'x'
F917
sg18
I00
s(dp44
S'y'
F917
sS'x'
F886
sg18
I00
s(dp45
g16
S'curve'
p46
sS'x'
F670
sg18
I01
sS'y'
F917
s(dp47
S'y'
F917
sS'x'
F471
sg18
I00
s(dp48
S'y'
F742
sS'x'
F344
sg18
I00
s(dp49
g16
S'curve'
p50
sS'x'
F343
sg18
I00
sS'y'
F652
s(dp51
g16
S'line'
p52
sS'x'
F343
sg18
I00
sS'y'
F0
stp53
stp54
sS'components'
p55
(tsS'anchors'
p56
(tsss."
LayerCount: 2
Fore
SplineSet
70 0 m 257
 70 711 l 257
 191 711 l 257
 191 436 l 257
 217 485 291 514 341 514 c 256
 509 514 532 370 532 279 c 258
 532 0 l 257
 411 0 l 257
 411 283 l 258
 411 380 380 416 323 416 c 256
 258 416 191 363 191 302 c 258
 191 0 l 257
 70 0 l 257
EndSplineSet
EndChar

StartChar: hungarumlaut
Encoding: 733 733 293
Width: 473
VWidth: 0
Flags: HW
PickledData: "(dp1
S'org.robofab.postScriptHintData'
p2
(dp3
s."
LayerCount: 2
Fore
SplineSet
199 562 m 257
 301 730 l 257
 445 730 l 257
 290 562 l 257
 199 562 l 257
34 562 m 257
 108 730 l 257
 237 730 l 257
 121 562 l 257
 34 562 l 257
EndSplineSet
EndChar

StartChar: hyphen
Encoding: 45 45 294
Width: 361
VWidth: 0
Flags: HW
PickledData: "(dp1
S'org.robofab.postScriptHintData'
p2
(dp3
sS'com.typemytype.robofont.layerData'
p4
(dp5
S'b'
(dp6
S'name'
p7
S'hyphen'
p8
sS'lib'
p9
(dp10
sS'unicodes'
p11
(tsS'width'
p12
F683.5
sS'contours'
p13
(tsS'components'
p14
(tsS'anchors'
p15
(tsss."
LayerCount: 2
Fore
SplineSet
26 223 m 257
 26 316 l 257
 335 316 l 257
 335 223 l 257
 26 223 l 257
EndSplineSet
EndChar

StartChar: i
Encoding: 105 105 295
Width: 255
VWidth: 0
Flags: HW
PickledData: "(dp1
S'org.robofab.postScriptHintData'
p2
(dp3
sS'com.typemytype.robofont.layerData'
p4
(dp5
S'b'
(dp6
S'name'
p7
S'i'
sS'lib'
p8
(dp9
sS'unicodes'
p10
(tsS'width'
p11
F521.10000000000002
sS'contours'
p12
(tsS'components'
p13
(tsS'anchors'
p14
(tsss."
LayerCount: 2
Fore
SplineSet
69 604 m 257
 69 711 l 257
 187 711 l 257
 187 604 l 257
 69 604 l 257
70 0 m 257
 70 501 l 257
 187 501 l 257
 187 0 l 257
 70 0 l 257
EndSplineSet
EndChar

StartChar: Delta
Encoding: 8710 8710 307
Width: 733
VWidth: 0
Flags: HW
PickledData: "(dp1
S'org.robofab.postScriptHintData'
p2
(dp3
sS'com.typemytype.robofont.layerData'
p4
(dp5
S'b'
(dp6
S'name'
p7
S'uni2206'
p8
sS'lib'
p9
(dp10
sS'unicodes'
p11
(tsS'width'
p12
F1312.25
sS'contours'
p13
(tsS'components'
p14
(tsS'anchors'
p15
(tsss."
LayerCount: 2
Fore
SplineSet
157 106 m 257
 548 106 l 257
 347 566 l 257
 157 106 l 257
30 0 m 257
 30 107 l 257
 298 711 l 257
 431 711 l 257
 701 114 l 257
 701 0 l 257
 30 0 l 257
EndSplineSet
EndChar

StartChar: infinity
Encoding: 8734 8734 308
Width: 850
VWidth: 0
Flags: HW
PickledData: "(dp1
S'org.robofab.postScriptHintData'
p2
(dp3
s."
LayerCount: 2
Fore
SplineSet
625 188 m 256
 696 188 723 240 723 306 c 256
 723 357 685 400 623 400 c 256
 561 400 507 349 467 294 c 257
 524 225 567 188 625 188 c 256
236 188 m 256
 297 188 349 236 391 293 c 257
 349 353 296 400 231 400 c 256
 164 400 130 352 130 294 c 256
 130 240 169 188 236 188 c 256
228 113 m 256
 120 113 47 202 47 306 c 256
 47 400 131 476 226 476 c 256
 307 476 370 429 428 351 c 257
 483 427 542 476 626 476 c 256
 734 476 804 400 804 296 c 256
 804 187 721 113 625 113 c 256
 551 113 492 151 427 237 c 257
 370 162 307 113 228 113 c 256
EndSplineSet
EndChar

StartChar: integral
Encoding: 8747 8747 309
Width: 400
VWidth: 0
Flags: HW
PickledData: "(dp1
S'org.robofab.postScriptHintData'
p2
(dp3
sS'com.typemytype.robofont.layerData'
p4
(dp5
S'b'
(dp6
S'name'
p7
S'integral'
p8
sS'lib'
p9
(dp10
sS'unicodes'
p11
(tsS'width'
p12
F754
sS'contours'
p13
(tsS'components'
p14
(tsS'anchors'
p15
(tsss."
LayerCount: 2
Fore
SplineSet
97 -158 m 256
 44 -158 13 -145 13 -145 c 257
 13 -53 l 257
 13 -53 50 -61 80 -61 c 256
 121 -61 127 -32 127 20 c 258
 127 565 l 258
 127 673 178 753 290 753 c 256
 335 753 376 740 376 740 c 257
 376 645 l 257
 376 645 337 656 309 656 c 256
 266 656 254 628 254 576 c 258
 254 29 l 258
 254 -78 210 -158 97 -158 c 256
EndSplineSet
EndChar

StartChar: j
Encoding: 106 106 312
Width: 292
VWidth: 0
Flags: HW
PickledData: "(dp1
S'org.robofab.postScriptHintData'
p2
(dp3
sS'com.typemytype.robofont.layerData'
p4
(dp5
S'b'
(dp6
S'name'
p7
S'j'
sS'lib'
p8
(dp9
sS'unicodes'
p10
(tsS'width'
p11
F536.89999999999998
sS'contours'
p12
((dp13
S'points'
p14
((dp15
S'segmentType'
p16
S'curve'
p17
sS'x'
F65
sS'smooth'
p18
I01
sS'y'
F-410
s(dp19
S'y'
F-410
sS'x'
F-24
sg18
I00
s(dp20
S'y'
F-390
sS'x'
F-117
sg18
I00
s(dp21
g16
S'curve'
p22
sS'x'
F-117
sg18
I00
sS'y'
F-390
s(dp23
g16
S'line'
p24
sS'x'
F-102
sg18
I00
sS'y'
F-267
s(dp25
S'y'
F-267
sS'x'
F-102
sg18
I00
s(dp26
S'y'
F-280
sS'x'
F-44
sg18
I00
s(dp27
g16
S'curve'
p28
sS'x'
F19
sg18
I01
sS'y'
F-280
s(dp29
S'y'
F-280
sS'x'
F153
sg18
I00
s(dp30
S'y'
F-208
sS'x'
F177
sg18
I00
s(dp31
g16
S'curve'
p32
sS'x'
F177
sg18
I01
sS'y'
F-2
s(dp33
g16
S'line'
p34
sS'x'
F177
sg18
I00
sS'y'
F1026
s(dp35
g16
S'line'
p36
sS'x'
F341
sg18
I00
sS'y'
F1026
s(dp37
g16
S'line'
p38
sS'x'
F341
sg18
I01
sS'y'
F-6
s(dp39
S'y'
F-274
sS'x'
F341
sg18
I00
s(dp40
S'y'
F-410
sS'x'
F246
sg18
I00
stp41
s(dp42
g14
((dp43
g16
S'line'
p44
sS'x'
F177
sg18
I00
sS'y'
F1307
s(dp45
g16
S'line'
p46
sS'x'
F177
sg18
I00
sS'y'
F1462
s(dp47
g16
S'line'
p48
sS'x'
F341
sg18
I00
sS'y'
F1462
s(dp49
g16
S'line'
p50
sS'x'
F341
sg18
I00
sS'y'
F1307
stp51
stp52
sS'components'
p53
(tsS'anchors'
p54
(tsss."
LayerCount: 2
Fore
SplineSet
109 600 m 257
 109 711 l 257
 229 711 l 257
 229 600 l 257
 109 600 l 257
EndSplineSet
Refer: 235 567 N 1 0 0 1 0 0 2
EndChar

StartChar: k
Encoding: 107 107 315
Width: 525
VWidth: 0
Flags: HW
PickledData: "(dp1
S'org.robofab.postScriptHintData'
p2
(dp3
sS'com.typemytype.robofont.layerData'
p4
(dp5
S'b'
(dp6
S'name'
p7
S'k'
sS'lib'
p8
(dp9
sS'unicodes'
p10
(tsS'width'
p11
F1078.6500000000001
sS'contours'
p12
(tsS'components'
p13
(tsS'anchors'
p14
(tsss."
LayerCount: 2
Fore
SplineSet
68 0 m 257
 68 711 l 257
 189 711 l 257
 189 296 l 257
 371 501 l 257
 538 501 l 257
 299 259 l 257
 553 0 l 257
 393 0 l 257
 189 217 l 257
 189 0 l 257
 68 0 l 257
EndSplineSet
EndChar

StartChar: kgreenlandic
Encoding: 312 312 318
Width: 528
VWidth: 0
Flags: HW
PickledData: "(dp1
S'org.robofab.postScriptHintData'
p2
(dp3
sS'com.typemytype.robofont.layerData'
p4
(dp5
s."
LayerCount: 2
Fore
SplineSet
71 0 m 257
 71 501 l 257
 191 501 l 257
 191 309 l 257
 365 501 l 257
 532 501 l 257
 280 247 l 257
 502 43 307 219 548 0 c 257
 386 0 l 257
 191 187 l 257
 191 0 l 257
 71 0 l 257
EndSplineSet
EndChar

StartChar: l
Encoding: 108 108 319
Width: 256
VWidth: 0
Flags: HW
PickledData: "(dp1
S'org.robofab.postScriptHintData'
p2
(dp3
sS'com.typemytype.robofont.layerData'
p4
(dp5
S'b'
(dp6
S'name'
p7
S'l'
sS'lib'
p8
(dp9
sS'unicodes'
p10
(tsS'width'
p11
F521.79999999999995
sS'contours'
p12
(tsS'components'
p13
(tsS'anchors'
p14
(tsss."
AnchorPoint: "caron.alt" 91 501 basechar 0
LayerCount: 2
Fore
SplineSet
69 0 m 257
 69 711 l 257
 189 711 l 257
 189 0 l 257
 69 0 l 257
EndSplineSet
EndChar

StartChar: less
Encoding: 60 60 324
Width: 691
VWidth: 0
Flags: HW
PickledData: "(dp1
S'org.robofab.postScriptHintData'
p2
(dp3
sS'com.typemytype.robofont.layerData'
p4
(dp5
S'b'
(dp6
S'name'
p7
S'less'
p8
sS'lib'
p9
(dp10
sS'unicodes'
p11
(tsS'width'
p12
F1267.3499999999999
sS'contours'
p13
(tsS'components'
p14
(tsS'anchors'
p15
(tsss."
LayerCount: 2
Fore
SplineSet
584 18 m 257
 72 249 l 257
 72 305 l 257
 586 544 l 257
 586 434 l 257
 232 278 l 257
 584 126 l 257
 584 18 l 257
EndSplineSet
EndChar

StartChar: lessequal
Encoding: 8804 8804 325
Width: 659
VWidth: 0
Flags: HW
PickledData: "(dp1
S'org.robofab.postScriptHintData'
p2
(dp3
sS'com.typemytype.robofont.layerData'
p4
(dp5
S'b'
(dp6
S'name'
p7
S'lessequal'
p8
sS'lib'
p9
(dp10
sS'unicodes'
p11
(tsS'width'
p12
F1350.3499999999999
sS'contours'
p13
(tsS'components'
p14
(tsS'anchors'
p15
(tsss."
LayerCount: 2
Fore
SplineSet
49 0 m 257
 49 92 l 257
 572 92 l 257
 572 0 l 257
 49 0 l 257
563 128 m 257
 51 359 l 257
 51 415 l 257
 565 655 l 257
 565 544 l 257
 211 389 l 257
 563 237 l 257
 563 128 l 257
EndSplineSet
EndChar

StartChar: logicalnot
Encoding: 172 172 327
Width: 711
VWidth: 0
Flags: HW
PickledData: "(dp1
S'org.robofab.postScriptHintData'
p2
(dp3
sS'com.typemytype.robofont.layerData'
p4
(dp5
S'b'
(dp6
S'name'
p7
S'logicalnot'
p8
sS'lib'
p9
(dp10
sS'unicodes'
p11
(tsS'width'
p12
F1463.2
sS'contours'
p13
(tsS'components'
p14
(tsS'anchors'
p15
(tsss."
LayerCount: 2
Fore
SplineSet
486 107 m 257
 486 297 l 257
 80 297 l 257
 80 397 l 257
 600 397 l 257
 600 107 l 257
 486 107 l 257
EndSplineSet
EndChar

StartChar: lozenge
Encoding: 9674 9674 329
Width: 609
VWidth: 0
Flags: HW
PickledData: "(dp1
S'org.robofab.postScriptHintData'
p2
(dp3
sS'com.typemytype.robofont.layerData'
p4
(dp5
s."
LayerCount: 2
Fore
SplineSet
290 110 m 257
 428 340 l 257
 292 563 l 257
 154 340 l 257
 290 110 l 257
249 -20 m 257
 35 340 l 257
 252 701 l 257
 332 701 l 257
 548 341 l 257
 329 -20 l 257
 249 -20 l 257
EndSplineSet
EndChar

StartChar: lslash
Encoding: 322 322 330
Width: 245
VWidth: 0
Flags: HW
PickledData: "(dp1
S'org.robofab.postScriptHintData'
p2
(dp3
s."
LayerCount: 2
Fore
SplineSet
58 0 m 257
 58 355 l 257
 3 306 l 257
 3 413 l 257
 57 461 l 257
 57 712 l 257
 179 712 l 257
 179 552 l 257
 229 599 l 257
 229 490 l 257
 179 441 l 257
 179 0 l 257
 58 0 l 257
EndSplineSet
EndChar

StartChar: m
Encoding: 109 109 331
Width: 897
VWidth: 0
Flags: HW
PickledData: "(dp1
S'org.robofab.postScriptHintData'
p2
(dp3
sS'com.typemytype.robofont.guides'
p4
(tsS'com.typemytype.robofont.layerData'
p5
(dp6
S'b'
(dp7
S'name'
p8
S'm'
sS'lib'
p9
(dp10
sS'unicodes'
p11
(tsS'width'
p12
F1873.95
sS'contours'
p13
(tsS'components'
p14
(tsS'anchors'
p15
(tsss."
LayerCount: 2
Fore
SplineSet
78 0 m 257
 78 340 l 258
 78 426 70 466 69 501 c 257
 196 501 l 257
 196 436 l 257
 220 480 274 514 336 514 c 256
 398 514 456 485 486 421 c 257
 523 474 574 514 649 514 c 256
 775 514 833 431 833 307 c 258
 833 0 l 257
 712 0 l 257
 712 300 l 258
 712 348 697 416 640 416 c 256
 565 416 517 346 517 284 c 258
 517 0 l 257
 396 0 l 257
 396 306 l 258
 396 349 384 416 319 416 c 256
 249 416 199 362 199 304 c 258
 199 0 l 257
 78 0 l 257
EndSplineSet
EndChar

StartChar: macron
Encoding: 175 175 332
Width: 369
VWidth: 0
Flags: HW
PickledData: "(dp1
S'org.robofab.postScriptHintData'
p2
(dp3
sS'com.typemytype.robofont.layerData'
p4
(dp5
S'b'
(dp6
S'name'
p7
S'macron'
p8
sS'lib'
p9
(dp10
sS'unicodes'
p11
(tsS'width'
p12
F723
sS'contours'
p13
(tsS'components'
p14
(tsS'anchors'
p15
(tsss."
LayerCount: 2
Fore
SplineSet
32 560 m 257
 32 636 l 257
 337 636 l 257
 337 560 l 257
 32 560 l 257
EndSplineSet
EndChar

StartChar: minus
Encoding: 8722 8722 335
Width: 731
VWidth: 0
Flags: HW
PickledData: "(dp1
S'org.robofab.postScriptHintData'
p2
(dp3
s."
LayerCount: 2
Fore
SplineSet
98 139 m 257
 98 237 l 257
 633 237 l 257
 633 139 l 257
 98 139 l 257
EndSplineSet
EndChar

StartChar: uni03BC
Encoding: 956 956 336
Width: 600
VWidth: 0
Flags: HW
PickledData: "(dp1
S'org.robofab.postScriptHintData'
p2
(dp3
s."
LayerCount: 2
Fore
SplineSet
391 139 m 257
 374 117 344 88 292 88 c 256
 235 88 211 123 211 215 c 258
 211 528 l 257
 62 528 l 257
 62 -154 l 257
 211 -154 l 257
 211 -8 l 257
 222 -9 234 -10 246 -10 c 256
 328 -10 376 28 405 74 c 257
 412 0 l 257
 541 0 l 257
 541 528 l 257
 391 528 l 257
 391 139 l 257
EndSplineSet
EndChar

StartChar: multiply
Encoding: 215 215 337
Width: 621
VWidth: 0
Flags: HW
PickledData: "(dp1
S'org.robofab.postScriptHintData'
p2
(dp3
sS'com.typemytype.robofont.layerData'
p4
(dp5
s."
LayerCount: 2
Fore
SplineSet
177 57 m 257
 98 136 l 257
 229 267 l 257
 98 398 l 257
 177 477 l 257
 308 346 l 257
 440 477 l 257
 519 399 l 257
 387 267 l 257
 519 135 l 257
 440 57 l 257
 308 188 l 257
 177 57 l 257
EndSplineSet
EndChar

StartChar: n
Encoding: 110 110 338
Width: 597
VWidth: 0
Flags: HW
PickledData: "(dp1
S'org.robofab.postScriptHintData'
p2
(dp3
sS'com.typemytype.robofont.layerData'
p4
(dp5
S'b'
(dp6
S'name'
p7
S'n'
sS'lib'
p8
(dp9
sS'unicodes'
p10
(tsS'width'
p11
F1240.05
sS'contours'
p12
(tsS'components'
p13
(tsS'anchors'
p14
(tsss."
LayerCount: 2
Fore
SplineSet
77 0 m 257
 77 310 l 258
 77 430 67 501 67 501 c 257
 196 501 l 257
 196 434 l 257
 233 490 301 514 349 514 c 256
 460 514 534 460 534 286 c 258
 534 0 l 257
 413 0 l 257
 413 294 l 258
 413 383 387 416 324 416 c 256
 280 416 198 375 198 300 c 258
 198 0 l 257
 77 0 l 257
EndSplineSet
EndChar

StartChar: nine
Encoding: 57 57 343
Width: 621
VWidth: 0
Flags: HW
PickledData: "(dp1
S'org.robofab.postScriptHintData'
p2
(dp3
sS'com.typemytype.robofont.layerData'
p4
(dp5
S'b'
(dp6
S'name'
p7
S'nine'
p8
sS'lib'
p9
(dp10
sS'unicodes'
p11
(tsS'width'
p12
F1235.4000000000001
sS'contours'
p13
((dp14
S'points'
p15
((dp16
S'segmentType'
p17
S'curve'
p18
sS'x'
F314
sS'smooth'
p19
I01
sS'y'
F1010
s(dp20
S'y'
F827
sS'x'
F314
sg19
I00
s(dp21
S'y'
F687
sS'x'
F393
sg19
I00
s(dp22
g17
S'curve'
p23
sS'x'
F604
sg19
I01
sS'y'
F687
s(dp24
S'y'
F687
sS'x'
F784
sg19
I00
s(dp25
S'y'
F803
sS'x'
F908
sg19
I00
s(dp26
g17
S'curve'
p27
sS'x'
F908
sg19
I01
sS'y'
F991
s(dp28
S'y'
F1166
sS'x'
F908
sg19
I00
s(dp29
S'y'
F1334
sS'x'
F815
sg19
I00
s(dp30
g17
S'curve'
p31
sS'x'
F605
sg19
I01
sS'y'
F1334
s(dp32
S'y'
F1334
sS'x'
F419
sg19
I00
s(dp33
S'y'
F1196
sS'x'
F314
sg19
I00
stp34
s(dp35
g15
((dp36
g17
S'curve'
p37
sS'x'
F555
sg19
I01
sS'y'
F-24
s(dp38
S'y'
F-24
sS'x'
F434
sg19
I00
s(dp39
S'y'
F13
sS'x'
F304
sg19
I00
s(dp40
g17
S'curve'
p41
sS'x'
F175
sg19
I00
sS'y'
F79
s(dp42
g17
S'line'
p43
sS'x'
F232
sg19
I00
sS'y'
F211
s(dp44
S'y'
F152
sS'x'
F346
sg19
I00
s(dp45
S'y'
F124
sS'x'
F450
sg19
I00
s(dp46
g17
S'curve'
p47
sS'x'
F542
sg19
I01
sS'y'
F124
s(dp48
S'y'
F124
sS'x'
F773
sg19
I00
s(dp49
S'y'
F308
sS'x'
F920
sg19
I00
s(dp50
g17
S'curve'
p51
sS'x'
F920
sg19
I01
sS'y'
F657
s(dp52
g17
S'line'
p53
sS'x'
F920
sg19
I00
sS'y'
F722
s(dp54
S'y'
F600
sS'x'
F856
sg19
I00
s(dp55
S'y'
F544
sS'x'
F742
sg19
I00
s(dp56
g17
S'curve'
p57
sS'x'
F577
sg19
I01
sS'y'
F544
s(dp58
S'y'
F544
sS'x'
F298
sg19
I00
s(dp59
S'y'
F735
sS'x'
F138
sg19
I00
s(dp60
g17
S'curve'
p61
sS'x'
F138
sg19
I01
sS'y'
F1004
s(dp62
S'y'
F1275
sS'x'
F138
sg19
I00
s(dp63
S'y'
F1483
sS'x'
F311
sg19
I00
s(dp64
g17
S'curve'
p65
sS'x'
F613
sg19
I01
sS'y'
F1483
s(dp66
S'y'
F1483
sS'x'
F939
sg19
I00
s(dp67
S'y'
F1231
sS'x'
F1095
sg19
I00
s(dp68
g17
S'curve'
p69
sS'x'
F1095
sg19
I01
sS'y'
F774
s(dp70
S'y'
F203
sS'x'
F1095
sg19
I00
s(dp71
S'y'
F-24
sS'x'
F855
sg19
I00
stp72
stp73
sS'components'
p74
(tsS'anchors'
p75
(tsss."
LayerCount: 2
Fore
SplineSet
293 355 m 256
 366 355 421 402 421 496 c 256
 421 561 377 618 303 618 c 256
 227 618 178 564 178 486 c 256
 178 412 215 355 293 355 c 256
272 -13 m 256
 219 -13 155 5 88 38 c 257
 133 138 l 257
 173 112 220 96 262 96 c 256
 346 96 424 155 424 307 c 258
 424 320 l 257
 390 269 333 252 281 252 c 256
 142 252 53 347 53 484 c 256
 53 621 147 724 297 724 c 256
 455 724 547 606 547 376 c 256
 547 148 448 -13 272 -13 c 256
EndSplineSet
EndChar

StartChar: notequal
Encoding: 8800 8800 345
Width: 677
VWidth: 0
Flags: HW
PickledData: "(dp1
S'org.robofab.postScriptHintData'
p2
(dp3
sS'com.typemytype.robofont.layerData'
p4
(dp5
S'b'
(dp6
S'name'
p7
S'notequal'
p8
sS'lib'
p9
(dp10
sS'unicodes'
p11
(tsS'width'
p12
F1362.5
sS'contours'
p13
(tsS'components'
p14
(tsS'anchors'
p15
(tsss."
LayerCount: 2
Fore
SplineSet
247 17 m 257
 151 32 l 257
 206 146 l 257
 76 146 l 257
 76 238 l 257
 252 238 l 257
 300 329 l 257
 76 329 l 257
 76 421 l 257
 344 421 l 257
 406 548 l 257
 504 533 l 257
 448 421 l 257
 598 421 l 257
 598 329 l 257
 404 329 l 257
 355 238 l 257
 598 238 l 257
 598 146 l 257
 311 146 l 257
 247 17 l 257
EndSplineSet
EndChar

StartChar: numbersign
Encoding: 35 35 347
Width: 715
VWidth: 0
Flags: HW
PickledData: "(dp1
S'org.robofab.postScriptHintData'
p2
(dp3
sS'com.typemytype.robofont.layerData'
p4
(dp5
s."
LayerCount: 2
Fore
SplineSet
293 297 m 257
 405 297 l 257
 431 425 l 257
 318 425 l 257
 293 297 l 257
115 -5 m 257
 159 219 l 257
 43 219 l 257
 48 297 l 257
 174 297 l 257
 200 425 l 257
 69 425 l 257
 74 502 l 257
 215 502 l 257
 257 714 l 257
 375 714 l 257
 334 502 l 257
 446 502 l 257
 488 714 l 257
 607 714 l 257
 565 502 l 257
 673 502 l 257
 670 425 l 257
 549 425 l 257
 524 297 l 257
 647 297 l 257
 644 219 l 257
 509 219 l 257
 465 -5 l 257
 346 -5 l 257
 390 219 l 257
 278 219 l 257
 234 -5 l 257
 115 -5 l 257
EndSplineSet
EndChar

StartChar: o
Encoding: 111 111 348
Width: 627
VWidth: 0
Flags: HW
PickledData: "(dp1
S'org.robofab.postScriptHintData'
p2
(dp3
sS'com.typemytype.robofont.layerData'
p4
(dp5
S'b'
(dp6
S'name'
p7
S'o'
sS'lib'
p8
(dp9
sS'unicodes'
p10
(tsS'width'
p11
F1259.2
sS'contours'
p12
(tsS'components'
p13
(tsS'anchors'
p14
(tsss."
LayerCount: 2
Fore
SplineSet
316 -11 m 256
 136 -11 53 111 53 250 c 256
 53 393 140 514 316 514 c 256
 496 514 575 395 575 250 c 256
 575 114 491 -11 316 -11 c 256
314 86 m 256
 412 86 449 166 449 252 c 256
 449 341 408 416 314 416 c 256
 220 416 179 341 179 252 c 256
 179 166 217 86 314 86 c 256
EndSplineSet
EndChar

StartChar: oe
Encoding: 339 339 355
Width: 978
VWidth: 0
Flags: HW
PickledData: "(dp1
S'org.robofab.postScriptHintData'
p2
(dp3
sS'com.typemytype.robofont.layerData'
p4
(dp5
S'b'
(dp6
S'name'
p7
S'oe'
p8
sS'lib'
p9
(dp10
sS'unicodes'
p11
(tsS'width'
p12
F1979.8
sS'contours'
p13
(tsS'components'
p14
((dp15
S'transformation'
p16
(I1
I0
I0
I1
I-6
I0
tp17
sS'baseGlyph'
p18
S'o'
s(dp19
g16
(I1
I0
I0
I1
I811
I0
tp20
sg18
S'e'
stp21
sS'anchors'
p22
(tsss."
LayerCount: 2
Fore
SplineSet
790 313 m 257
 790 323 l 258
 790 386 734 418 678 418 c 256
 617 418 569 386 561 313 c 257
 790 313 l 257
313 86 m 256
 398 86 436 163 436 250 c 256
 436 344 400 416 310 416 c 256
 223 416 176 344 176 250 c 256
 176 161 217 86 313 86 c 256
312 -11 m 256
 148 -11 49 99 49 250 c 256
 49 399 142 514 309 514 c 256
 401 514 463 475 498 426 c 257
 537 482 588 515 681 515 c 256
 825 515 907 408 907 244 c 258
 907 211 l 257
 560 211 l 257
 561 200 l 258
 567 121 622 86 712 86 c 256
 796 86 867 141 867 141 c 257
 900 52 l 257
 900 52 822 -11 698 -11 c 256
 620 -11 536 25 499 78 c 257
 467 27 387 -11 312 -11 c 256
EndSplineSet
EndChar

StartChar: ogonek
Encoding: 731 731 356
Width: 248
VWidth: 0
Flags: HW
PickledData: "(dp1
S'org.robofab.postScriptHintData'
p2
(dp3
s."
LayerCount: 2
Fore
SplineSet
114 -174 m 256
 52 -174 11 -155 11 -111 c 256
 11 -39 94 -8 130 10 c 257
 196 11 l 257
 149 -15 123 -53 123 -77 c 256
 123 -97 140 -100 154 -100 c 256
 186 -100 227 -85 238 -82 c 257
 238 -154 l 257
 195 -167 151 -174 114 -174 c 256
EndSplineSet
EndChar

StartChar: one
Encoding: 49 49 361
Width: 621
VWidth: 0
Flags: HW
PickledData: "(dp1
S'org.robofab.postScriptHintData'
p2
(dp3
sS'com.typemytype.robofont.layerData'
p4
(dp5
S'b'
(dp6
S'name'
p7
S'one'
p8
sS'lib'
p9
(dp10
sS'unicodes'
p11
(tsS'width'
p12
F1234.0999999999999
sS'contours'
p13
(tsS'components'
p14
(tsS'anchors'
p15
(tsss."
LayerCount: 2
Fore
SplineSet
143 0 m 257
 143 99 l 257
 269 99 l 257
 269 585 l 257
 236 569 182 547 126 529 c 257
 126 642 l 257
 178 659 240 687 283 711 c 257
 393 711 l 257
 393 97 l 257
 521 97 l 257
 521 0 l 257
 143 0 l 257
EndSplineSet
EndChar

StartChar: onehalf
Encoding: 189 189 362
Width: 1247
VWidth: 0
Flags: HW
PickledData: "(dp1
S'org.robofab.postScriptHintData'
p2
(dp3
sS'com.typemytype.robofont.layerData'
p4
(dp5
s."
LayerCount: 2
Fore
SplineSet
95 302 m 257
 95 384 l 257
 198 384 l 257
 198 614 l 257
 88 588 l 257
 88 673 l 257
 88 673 222 713 218 711 c 257
 294 711 l 257
 294 383 l 257
 384 383 l 257
 384 302 l 257
 95 302 l 257
312 0 m 257
 744 711 l 257
 848 711 l 257
 416 0 l 257
 312 0 l 257
979 274 m 256
 979 313 961 330 927 330 c 256
 894 330 847 317 807 297 c 257
 777 375 l 257
 827 401 885 416 934 416 c 256
 1012 416 1074 379 1078 289 c 257
 1078 283 l 258
 1078 223 1031 173 974 129 c 258
 928 94 l 257
 1072 94 l 257
 1072 0 l 257
 784 0 l 257
 784 83 l 257
 917 190 l 258
 966 230 979 251 979 274 c 256
EndSplineSet
EndChar

StartChar: onequarter
Encoding: 188 188 363
Width: 1031
VWidth: 0
Flags: HW
PickledData: "(dp1
S'org.robofab.postScriptHintData'
p2
(dp3
sS'com.typemytype.robofont.layerData'
p4
(dp5
s."
LayerCount: 2
Fore
SplineSet
757 161 m 257
 844 161 l 257
 844 285 l 257
 757 161 l 257
307 0 m 257
 739 711 l 257
 843 711 l 257
 412 0 l 257
 307 0 l 257
845 0 m 257
 845 95 l 257
 665 95 l 257
 665 150 l 257
 845 397 l 257
 933 397 l 257
 933 161 l 257
 990 161 l 257
 990 95 l 257
 933 95 l 257
 933 0 l 257
 845 0 l 257
110 302 m 257
 110 384 l 257
 213 384 l 257
 213 614 l 257
 104 588 l 257
 104 673 l 257
 104 673 237 713 233 711 c 257
 310 711 l 257
 310 383 l 257
 399 383 l 257
 399 302 l 257
 110 302 l 257
EndSplineSet
EndChar

StartChar: uni00B9
Encoding: 185 185 364
Width: 415
VWidth: 0
Flags: HW
PickledData: "(dp1
S'org.robofab.postScriptHintData'
p2
(dp3
sS'com.typemytype.robofont.layerData'
p4
(dp5
s."
LayerCount: 2
Fore
SplineSet
72 305 m 257
 72 386 l 257
 179 386 l 257
 179 620 l 257
 184 623 74 597 66 595 c 257
 66 678 l 257
 66 678 206 720 200 717 c 257
 278 715 l 257
 278 385 l 257
 371 385 l 257
 371 305 l 257
 72 305 l 257
EndSplineSet
EndChar

StartChar: ordfeminine
Encoding: 170 170 366
Width: 423
VWidth: 0
Flags: HW
PickledData: "(dp1
S'org.robofab.postScriptHintData'
p2
(dp3
sS'com.typemytype.robofont.layerData'
p4
(dp5
S'b'
(dp6
S'name'
p7
S'ordfeminine'
p8
sS'lib'
p9
(dp10
sS'unicodes'
p11
(tsS'width'
p12
F797.10000000000002
sS'contours'
p13
(tsS'components'
p14
(tsS'anchors'
p15
(tsss."
LayerCount: 2
Fore
SplineSet
176 415 m 256
 212 415 268 438 268 502 c 258
 268 509 l 257
 164 509 134 506 134 457 c 256
 134 431 156 415 176 415 c 256
170 352 m 256
 110 352 52 387 52 457 c 256
 52 524 95 562 182 562 c 258
 269 562 l 257
 269 582 l 258
 269 627 241 642 206 642 c 256
 156 642 96 616 96 616 c 257
 67 687 l 257
 67 687 127 721 217 721 c 256
 296 721 365 686 365 578 c 256
 365 482 367 485 367 443 c 256
 368 387 371 378 372 368 c 257
 283 368 l 257
 275 416 l 257
 267 390 233 352 170 352 c 256
EndSplineSet
EndChar

StartChar: ordmasculine
Encoding: 186 186 367
Width: 445
VWidth: 0
Flags: HW
PickledData: "(dp1
S'org.robofab.postScriptHintData'
p2
(dp3
sS'com.typemytype.robofont.layerData'
p4
(dp5
S'b'
(dp6
S'name'
p7
S'ordmasculine'
p8
sS'lib'
p9
(dp10
sS'unicodes'
p11
(tsS'width'
p12
F887.85000000000002
sS'contours'
p13
(tsS'components'
p14
(tsS'anchors'
p15
(tsss."
LayerCount: 2
Fore
SplineSet
225 348 m 256
 100 348 36 425 36 527 c 256
 36 626 104 705 223 705 c 256
 343 705 410 624 410 525 c 256
 410 428 344 348 225 348 c 256
223 426 m 256
 279 426 316 465 316 525 c 256
 316 588 279 626 224 626 c 256
 170 626 130 587 130 526 c 256
 130 464 165 426 223 426 c 256
EndSplineSet
EndChar

StartChar: oslash
Encoding: 248 248 368
Width: 620
VWidth: 0
Flags: HW
PickledData: "(dp1
S'org.robofab.postScriptHintData'
p2
(dp3
sS'com.typemytype.robofont.layerData'
p4
(dp5
S'b'
(dp6
S'name'
p7
S'oslash'
p8
sS'lib'
p9
(dp10
sS'unicodes'
p11
(tsS'width'
p12
F1255
sS'contours'
p13
(tsS'components'
p14
(tsS'anchors'
p15
(tsss."
LayerCount: 2
Fore
SplineSet
358 409 m 257
 224 121 l 257
 193 152 179 201 179 252 c 256
 179 341 220 416 314 416 c 256
 330 416 345 413 358 409 c 257
404 382 m 257
 435 352 449 304 449 252 c 256
 449 166 412 86 314 86 c 256
 297 86 283 89 270 93 c 257
 404 382 l 257
316 -11 m 256
 491 -11 575 114 575 250 c 256
 575 351 536 440 452 484 c 257
 492 569 l 257
 443 591 l 257
 402 503 l 257
 376 510 348 514 316 514 c 256
 140 514 53 393 53 250 c 256
 53 154 93 66 177 21 c 257
 133 -72 l 257
 182 -95 l 257
 227 0 l 257
 254 -8 283 -11 316 -11 c 256
EndSplineSet
EndChar

StartChar: p
Encoding: 112 112 371
Width: 621
VWidth: 0
Flags: HW
PickledData: "(dp1
S'org.robofab.postScriptHintData'
p2
(dp3
sS'com.typemytype.robofont.layerData'
p4
(dp5
S'b'
(dp6
S'name'
p7
S'p'
sS'lib'
p8
(dp9
sS'unicodes'
p10
(tsS'width'
p11
F1260.25
sS'contours'
p12
(tsS'components'
p13
(tsS'anchors'
p14
(tsss."
LayerCount: 2
Fore
SplineSet
317 86 m 256
 410 86 444 165 444 251 c 256
 444 340 407 416 317 416 c 256
 229 416 190 341 190 253 c 256
 190 166 225 86 317 86 c 256
78 -193 m 257
 78 333 l 258
 78 386 73 448 69 501 c 257
 197 501 l 257
 197 429 l 257
 203 459 260 514 352 514 c 256
 488 514 570 391 570 256 c 256
 570 121 489 -11 345 -11 c 256
 257 -11 203 44 197 69 c 257
 197 -193 l 257
 78 -193 l 257
EndSplineSet
EndChar

StartChar: paragraph
Encoding: 182 182 372
Width: 598
VWidth: 0
Flags: HW
PickledData: "(dp1
S'org.robofab.postScriptHintData'
p2
(dp3
sS'com.typemytype.robofont.layerData'
p4
(dp5
S'b'
(dp6
S'name'
p7
S'paragraph'
p8
sS'lib'
p9
(dp10
sS'unicodes'
p11
(tsS'width'
p12
F1211.95
sS'contours'
p13
(tsS'components'
p14
(tsS'anchors'
p15
(tsss."
LayerCount: 2
Fore
SplineSet
201 -87 m 257
 201 385 l 257
 96 394 44 453 44 551 c 256
 44 679 142 710 278 710 c 258
 520 710 l 257
 520 617 l 257
 484 617 l 257
 484 -87 l 257
 383 -87 l 257
 383 617 l 257
 301 617 l 257
 301 -87 l 257
 201 -87 l 257
EndSplineSet
EndChar

StartChar: parenleft
Encoding: 40 40 373
Width: 336
VWidth: 0
Flags: HW
PickledData: "(dp1
S'org.robofab.postScriptHintData'
p2
(dp3
sS'com.typemytype.robofont.layerData'
p4
(dp5
S'b'
(dp6
S'name'
p7
S'parenleft'
p8
sS'lib'
p9
(dp10
sS'unicodes'
p11
(tsS'width'
p12
F639.35000000000002
sS'contours'
p13
(tsS'components'
p14
(tsS'anchors'
p15
(tsss."
LayerCount: 2
Fore
SplineSet
198 -83 m 257
 119 37 58 185 58 325 c 256
 58 473 113 612 194 740 c 257
 312 740 l 257
 228 608 179 459 179 324 c 256
 179 198 234 44 312 -83 c 257
 198 -83 l 257
EndSplineSet
EndChar

StartChar: parenright
Encoding: 41 41 374
Width: 336
VWidth: 0
Flags: HW
PickledData: "(dp1
S'org.robofab.postScriptHintData'
p2
(dp3
sS'com.typemytype.robofont.layerData'
p4
(dp5
S'b'
(dp6
S'name'
p7
S'parenright'
p8
sS'lib'
p9
(dp10
sS'unicodes'
p11
(tsS'width'
p12
F639.35000000000002
sS'contours'
p13
(tsS'components'
p14
(tsS'anchors'
p15
(tsss."
LayerCount: 2
Fore
SplineSet
25 -93 m 257
 109 39 158 188 158 324 c 256
 158 450 103 604 25 730 c 257
 139 730 l 257
 217 611 279 462 279 322 c 256
 279 174 224 35 143 -93 c 257
 25 -93 l 257
EndSplineSet
EndChar

StartChar: partialdiff
Encoding: 8706 8706 375
Width: 567
VWidth: 0
Flags: HW
PickledData: "(dp1
S'org.robofab.postScriptHintData'
p2
(dp3
sS'com.typemytype.robofont.layerData'
p4
(dp5
S'b'
(dp6
S'name'
p7
S'partialdiff'
p8
sS'lib'
p9
(dp10
sS'unicodes'
p11
(tsS'width'
p12
F1163.95
sS'contours'
p13
(tsS'components'
p14
(tsS'anchors'
p15
(tsss."
LayerCount: 2
Fore
SplineSet
233 87 m 256
 304 87 361 136 387 314 c 257
 369 354 330 394 286 394 c 256
 207 394 146 307 146 207 c 256
 146 135 179 87 233 87 c 256
233 -12 m 256
 94 -12 23 84 23 209 c 256
 23 366 139 489 279 489 c 256
 337 489 383 463 394 433 c 257
 394 440 394 468 394 475 c 256
 389 572 338 633 266 633 c 256
 196 633 142 603 119 591 c 257
 112 679 l 257
 155 711 215 730 273 730 c 256
 425 730 519 629 519 402 c 256
 519 197 427 -12 233 -12 c 256
EndSplineSet
EndChar

StartChar: percent
Encoding: 37 37 377
Width: 927
VWidth: 0
Flags: HW
PickledData: "(dp1
S'org.robofab.postScriptHintData'
p2
(dp3
sS'com.typemytype.robofont.layerData'
p4
(dp5
S'b'
(dp6
S'name'
p7
S'percent'
p8
sS'lib'
p9
(dp10
sS'unicodes'
p11
(tsS'width'
p12
F1769.3
sS'contours'
p13
(tsS'components'
p14
(tsS'anchors'
p15
(tsss."
LayerCount: 2
Fore
SplineSet
700 -10 m 256
 590 -10 521 69 521 175 c 256
 521 278 590 361 700 361 c 256
 810 361 880 277 880 175 c 256
 880 69 810 -10 700 -10 c 256
700 66 m 256
 750 66 777 97 777 175 c 256
 777 247 754 285 700 285 c 256
 646 285 623 248 623 176 c 256
 623 98 650 66 700 66 c 256
188 0 m 257
 643 711 l 257
 742 711 l 257
 288 0 l 257
 188 0 l 257
227 349 m 256
 118 349 47 417 47 534 c 256
 47 648 117 720 227 720 c 256
 337 720 407 647 407 534 c 256
 407 416 337 349 227 349 c 256
227 425 m 256
 277 425 304 456 304 534 c 256
 304 606 281 644 227 644 c 256
 173 644 150 606 150 534 c 256
 150 456 177 425 227 425 c 256
EndSplineSet
EndChar

StartChar: period
Encoding: 46 46 378
Width: 263
VWidth: 0
Flags: HW
PickledData: "(dp1
S'org.robofab.postScriptHintData'
p2
(dp3
sS'com.typemytype.robofont.layerData'
p4
(dp5
s."
LayerCount: 2
Fore
SplineSet
54 0 m 257
 54 132 l 257
 196 132 l 257
 196 0 l 257
 54 0 l 257
EndSplineSet
EndChar

StartChar: periodcentered
Encoding: 183 183 379
Width: 291
VWidth: 0
Flags: HW
PickledData: "(dp1
S'org.robofab.postScriptHintData'
p2
(dp3
sS'com.typemytype.robofont.layerData'
p4
(dp5
S'b'
(dp6
S'name'
p7
S'middot'
p8
sS'lib'
p9
(dp10
sS'unicodes'
p11
(tsS'width'
p12
I509
sS'contours'
p13
(tsS'components'
p14
(tsS'anchors'
p15
(tsss."
LayerCount: 2
Fore
SplineSet
91 274 m 257
 91 412 l 257
 240 412 l 257
 240 274 l 257
 91 274 l 257
EndSplineSet
EndChar

StartChar: perthousand
Encoding: 8240 8240 380
Width: 1345
VWidth: 0
Flags: HW
PickledData: "(dp1
S'org.robofab.postScriptHintData'
p2
(dp3
sS'com.typemytype.robofont.layerData'
p4
(dp5
S'b'
(dp6
S'name'
p7
S'perthousand'
p8
sS'lib'
p9
(dp10
sS'unicodes'
p11
(tsS'width'
p12
F2581.1999999999998
sS'contours'
p13
(tsS'components'
p14
(tsS'anchors'
p15
(tsss."
LayerCount: 2
Fore
SplineSet
1118 -10 m 256
 1009 -10 938 69 938 175 c 256
 938 278 1008 361 1118 361 c 256
 1228 361 1297 277 1297 175 c 256
 1297 69 1228 -10 1118 -10 c 256
1118 66 m 256
 1168 66 1195 97 1195 175 c 256
 1195 247 1172 285 1118 285 c 256
 1064 285 1041 248 1041 176 c 256
 1041 98 1068 66 1118 66 c 256
EndSplineSet
Refer: 377 37 N 1 0 0 1 0 0 2
EndChar

StartChar: pi
Encoding: 960 960 381
Width: 721
VWidth: 0
Flags: HW
PickledData: "(dp1
S'org.robofab.postScriptHintData'
p2
(dp3
sS'com.typemytype.robofont.layerData'
p4
(dp5
S'b'
(dp6
S'name'
p7
S'pi'
p8
sS'lib'
p9
(dp10
sS'unicodes'
p11
(tsS'width'
p12
F1288
sS'contours'
p13
(tsS'components'
p14
(tsS'anchors'
p15
(tsss."
LayerCount: 2
Fore
SplineSet
560 -6 m 256
 598 -6 629 5 646 21 c 257
 646 84 l 257
 632 79 618 77 598 77 c 256
 570 77 546 82 546 116 c 256
 546 168 548 320 555 420 c 257
 670 420 l 257
 670 528 l 257
 236 528 l 258
 120 528 84 461 84 356 c 257
 131 356 l 257
 137 393 156 420 195 420 c 257
 236 420 l 257
 205 189 l 257
 191 84 125 54 90 54 c 257
 90 2 l 257
 258 2 293 52 298 158 c 258
 311 420 l 257
 475 420 l 257
 456 322 441 167 441 103 c 256
 441 16 493 -6 560 -6 c 256
EndSplineSet
EndChar

StartChar: plus
Encoding: 43 43 382
Width: 619
VWidth: 0
Flags: HW
PickledData: "(dp1
S'org.robofab.postScriptHintData'
p2
(dp3
sS'com.typemytype.robofont.layerData'
p4
(dp5
S'b'
(dp6
S'name'
p7
S'plus'
p8
sS'lib'
p9
(dp10
sS'unicodes'
p11
(tsS'width'
p12
F1206.9000000000001
sS'contours'
p13
(tsS'components'
p14
(tsS'anchors'
p15
(tsss."
LayerCount: 2
Fore
SplineSet
252 38 m 257
 252 229 l 257
 67 229 l 257
 67 330 l 257
 253 330 l 257
 253 523 l 257
 366 523 l 257
 366 330 l 257
 552 330 l 257
 552 229 l 257
 366 229 l 257
 366 38 l 257
 252 38 l 257
EndSplineSet
EndChar

StartChar: plusminus
Encoding: 177 177 383
Width: 621
VWidth: 0
Flags: HW
PickledData: "(dp1
S'org.robofab.postScriptHintData'
p2
(dp3
sS'com.typemytype.robofont.layerData'
p4
(dp5
S'b'
(dp6
S'name'
p7
S'plusminus'
p8
sS'lib'
p9
(dp10
sS'unicodes'
p11
(tsS'width'
p12
F1234.75
sS'contours'
p13
(tsS'components'
p14
(tsS'anchors'
p15
(tsss."
LayerCount: 2
Fore
SplineSet
93 0 m 257
 93 90 l 257
 527 90 l 257
 527 0 l 257
 93 0 l 257
251 142 m 257
 251 289 l 257
 93 289 l 257
 93 387 l 257
 249 387 l 257
 249 537 l 257
 364 537 l 257
 364 387 l 257
 526 387 l 257
 526 289 l 257
 369 289 l 257
 369 142 l 257
 251 142 l 257
EndSplineSet
EndChar

StartChar: product
Encoding: 8719 8719 384
Width: 765
VWidth: 0
Flags: HW
PickledData: "(dp1
S'org.robofab.postScriptHintData'
p2
(dp3
sS'com.typemytype.robofont.guides'
p4
(tsS'com.typemytype.robofont.layerData'
p5
(dp6
S'b'
(dp7
S'name'
p8
S'product'
p9
sS'lib'
p10
(dp11
sS'unicodes'
p12
(tsS'width'
p13
F1568
sS'contours'
p14
(tsS'components'
p15
(tsS'anchors'
p16
(tsss."
LayerCount: 2
Fore
SplineSet
95 -49 m 257
 95 613 l 257
 19 613 l 257
 19 711 l 257
 709 711 l 257
 710 613 l 257
 649 613 l 257
 649 -49 l 257
 510 -49 l 257
 510 613 l 257
 230 613 l 257
 230 -49 l 257
 95 -49 l 257
EndSplineSet
EndChar

StartChar: q
Encoding: 113 113 385
Width: 610
VWidth: 0
Flags: HW
PickledData: "(dp1
S'org.robofab.postScriptHintData'
p2
(dp3
sS'com.typemytype.robofont.layerData'
p4
(dp5
S'b'
(dp6
S'name'
p7
S'q'
sS'lib'
p8
(dp9
sS'unicodes'
p10
(tsS'width'
p11
F1254.3
sS'contours'
p12
(tsS'components'
p13
(tsS'anchors'
p14
(tsss."
LayerCount: 2
Fore
SplineSet
304 86 m 256
 396 86 431 166 431 250 c 256
 431 341 392 416 303 416 c 256
 215 416 177 341 177 252 c 256
 177 166 212 86 304 86 c 256
424 -193 m 257
 424 40 l 257
 383 7 333 -11 287 -11 c 256
 126 -11 51 122 51 258 c 256
 51 392 134 514 288 514 c 256
 332 514 384 493 425 447 c 257
 425 501 l 257
 548 501 l 257
 544 448 543 405 543 356 c 258
 543 -193 l 257
 424 -193 l 257
EndSplineSet
EndChar

StartChar: question
Encoding: 63 63 386
Width: 497
VWidth: 0
Flags: HW
PickledData: "(dp1
S'org.robofab.postScriptHintData'
p2
(dp3
sS'com.typemytype.robofont.layerData'
p4
(dp5
S'b'
(dp6
S'name'
p7
S'question'
p8
sS'lib'
p9
(dp10
sS'unicodes'
p11
(tsS'width'
p12
F1055.9000000000001
sS'contours'
p13
(tsS'components'
p14
(tsS'anchors'
p15
(tsss."
LayerCount: 2
Fore
SplineSet
126 0 m 257
 126 133 l 257
 279 133 l 257
 279 0 l 257
 126 0 l 257
147 201 m 257
 147 268 l 258
 147 396 318 449 318 545 c 256
 318 599 274 619 219 619 c 256
 162 619 95 598 71 587 c 257
 71 690 l 257
 78 694 136 725 230 725 c 256
 343 725 443 668 443 549 c 256
 443 401 244 367 244 232 c 258
 244 201 l 257
 147 201 l 257
EndSplineSet
EndChar

StartChar: quotedbl
Encoding: 34 34 388
Width: 343
VWidth: 0
Flags: HW
PickledData: "(dp1
S'org.robofab.postScriptHintData'
p2
(dp3
sS'com.typemytype.robofont.layerData'
p4
(dp5
S'b'
(dp6
S'name'
p7
S'quotedbl'
p8
sS'lib'
p9
(dp10
sS'unicodes'
p11
(tsS'width'
p12
F785.64999999999998
sS'contours'
p13
(tsS'components'
p14
(tsS'anchors'
p15
(tsss."
LayerCount: 2
Fore
SplineSet
224 467 m 257
 198 711 l 257
 314 711 l 257
 289 467 l 257
 224 467 l 257
56 467 m 257
 30 711 l 257
 147 711 l 257
 122 467 l 257
 56 467 l 257
EndSplineSet
EndChar

StartChar: quotedblbase
Encoding: 8222 8222 389
Width: 500
VWidth: 0
Flags: HW
PickledData: "(dp1
S'org.robofab.postScriptHintData'
p2
(dp3
s."
LayerCount: 2
Fore
SplineSet
238 -107 m 257
 292 128 l 257
 426 128 l 257
 343 -107 l 257
 238 -107 l 257
42 -107 m 257
 97 128 l 257
 230 128 l 257
 151 -107 l 257
 42 -107 l 257
EndSplineSet
EndChar

StartChar: quotedblleft
Encoding: 8220 8220 390
Width: 500
VWidth: 0
Flags: HW
PickledData: "(dp1
S'org.robofab.postScriptHintData'
p2
(dp3
sS'com.typemytype.robofont.layerData'
p4
(dp5
S'b'
(dp6
S'name'
p7
S'quotedblleft'
p8
sS'lib'
p9
(dp10
sS'unicodes'
p11
(tsS'width'
p12
F1024
sS'contours'
p13
(tsS'components'
p14
(tsS'anchors'
p15
(tsss."
LayerCount: 2
Fore
SplineSet
289 422 m 257
 376 711 l 257
 479 711 l 257
 424 422 l 257
 289 422 l 257
63 422 m 257
 157 711 l 257
 259 711 l 257
 203 422 l 257
 63 422 l 257
EndSplineSet
EndChar

StartChar: quotedblright
Encoding: 8221 8221 391
Width: 500
VWidth: 0
Flags: HW
PickledData: "(dp1
S'org.robofab.postScriptHintData'
p2
(dp3
sS'com.typemytype.robofont.layerData'
p4
(dp5
S'b'
(dp6
S'name'
p7
S'quotedblright'
p8
sS'lib'
p9
(dp10
sS'unicodes'
p11
(tsS'width'
p12
F1024
sS'contours'
p13
(tsS'components'
p14
(tsS'anchors'
p15
(tsss."
LayerCount: 2
Fore
SplineSet
289 422 m 257
 345 711 l 257
 478 711 l 257
 394 422 l 257
 289 422 l 257
86 422 m 257
 140 711 l 257
 274 711 l 257
 192 422 l 257
 86 422 l 257
EndSplineSet
EndChar

StartChar: quoteleft
Encoding: 8216 8216 392
Width: 281
VWidth: 0
Flags: HW
PickledData: "(dp1
S'org.robofab.postScriptHintData'
p2
(dp3
sS'com.typemytype.robofont.layerData'
p4
(dp5
S'b'
(dp6
S'name'
p7
S'quoteleft'
p8
sS'lib'
p9
(dp10
sS'unicodes'
p11
(tsS'width'
p12
F518.5
sS'contours'
p13
(tsS'components'
p14
(tsS'anchors'
p15
(tsss."
LayerCount: 2
Fore
SplineSet
150 422 m 257
 69 711 l 257
 208 711 l 257
 227 422 l 257
 150 422 l 257
EndSplineSet
EndChar

StartChar: quoteright
Encoding: 8217 8217 393
Width: 308
VWidth: 0
Flags: HW
PickledData: "(dp1
S'org.robofab.postScriptHintData'
p2
(dp3
sS'com.typemytype.robofont.layerData'
p4
(dp5
S'b'
(dp6
S'name'
p7
S'quoteright'
p8
sS'lib'
p9
(dp10
g4
(dp11
S'b'
(dp12
g7
S'quoteleft'
p13
sg9
(dp14
sS'unicodes'
p15
(tsS'width'
p16
I494
sS'contours'
p17
(tsS'components'
p18
(tsS'anchors'
p19
(tssssg15
(tsg16
F537.25
sg17
((dp20
S'points'
p21
((dp22
S'segmentType'
p23
S'line'
p24
sS'x'
F416
sS'smooth'
p25
I00
sS'y'
F888
s(dp26
g23
S'line'
p27
sS'x'
F300
sg25
I00
sS'y'
F888
s(dp28
g23
S'line'
p29
sS'x'
F150
sg25
I00
sS'y'
F1456
s(dp30
g23
S'line'
p31
sS'x'
F360
sg25
I00
sS'y'
F1456
stp32
stp33
sg18
(tsg19
(tsss."
LayerCount: 2
Fore
SplineSet
55 423 m 257
 103 711 l 257
 239 711 l 257
 144 423 l 257
 55 423 l 257
EndSplineSet
EndChar

StartChar: quotesinglbase
Encoding: 8218 8218 394
Width: 339
VWidth: 0
Flags: HW
PickledData: "(dp1
S'org.robofab.postScriptHintData'
p2
(dp3
sS'com.typemytype.robofont.layerData'
p4
(dp5
S'b'
(dp6
S'name'
p7
S'quotesinglbase'
p8
sS'lib'
p9
(dp10
sS'unicodes'
p11
(tsS'width'
p12
F595.70000000000005
sS'contours'
p13
(tsS'components'
p14
(tsS'anchors'
p15
(tsss."
LayerCount: 2
Fore
SplineSet
78 -159 m 257
 134 128 l 257
 268 128 l 257
 185 -159 l 257
 78 -159 l 257
EndSplineSet
EndChar

StartChar: quotesingle
Encoding: 39 39 395
Width: 236
VWidth: 0
Flags: HW
PickledData: "(dp1
S'org.robofab.postScriptHintData'
p2
(dp3
sS'com.typemytype.robofont.layerData'
p4
(dp5
S'b'
(dp6
S'name'
p7
S'quotesingle'
p8
sS'lib'
p9
(dp10
sS'unicodes'
p11
(tsS'width'
p12
F507.85000000000002
sS'contours'
p13
(tsS'components'
p14
(tsS'anchors'
p15
(tsss."
LayerCount: 2
Fore
SplineSet
83 444 m 257
 64 711 l 257
 190 711 l 257
 172 444 l 257
 83 444 l 257
EndSplineSet
EndChar

StartChar: r
Encoding: 114 114 396
Width: 380
VWidth: 0
Flags: HW
PickledData: "(dp1
S'org.robofab.postScriptHintData'
p2
(dp3
sS'com.typemytype.robofont.layerData'
p4
(dp5
S'b'
(dp6
S'name'
p7
S'r'
sS'lib'
p8
(dp9
sS'unicodes'
p10
(tsS'width'
p11
F818.89999999999998
sS'contours'
p12
(tsS'components'
p13
(tsS'anchors'
p14
(tsss."
LayerCount: 2
Fore
SplineSet
79 0 m 257
 79 374 l 258
 79 439 69 501 69 501 c 257
 198 501 l 257
 198 435 l 257
 235 483 271 514 324 514 c 256
 338 514 355 511 374 506 c 257
 374 400 l 257
 352 407 331 411 313 411 c 256
 250 411 200 370 200 284 c 258
 200 0 l 257
 79 0 l 257
EndSplineSet
EndChar

StartChar: radical
Encoding: 8730 8730 398
Width: 641
VWidth: 0
Flags: HW
PickledData: "(dp1
S'org.robofab.postScriptHintData'
p2
(dp3
sS'com.typemytype.robofont.layerData'
p4
(dp5
s."
LayerCount: 2
Fore
SplineSet
251 -69 m 257
 103 310 l 257
 102 310 24 295 24 295 c 257
 2 383 l 257
 183 412 l 257
 290 128 l 257
 461 759 l 257
 572 759 l 257
 352 -69 l 257
 251 -69 l 257
EndSplineSet
EndChar

StartChar: registered
Encoding: 174 174 402
Width: 836
VWidth: 0
Flags: HW
PickledData: "(dp1
S'org.robofab.postScriptHintData'
p2
(dp3
sS'com.typemytype.robofont.layerData'
p4
(dp5
S'b'
(dp6
S'name'
p7
S'registered'
p8
sS'lib'
p9
(dp10
sS'unicodes'
p11
(tsS'width'
p12
F1727.05
sS'contours'
p13
(tsS'components'
p14
(tsS'anchors'
p15
(tsss."
LayerCount: 2
Fore
SplineSet
418 -11 m 256
 216 -11 52 155 52 357 c 256
 52 559 216 724 418 724 c 256
 620 724 785 559 785 357 c 256
 785 155 620 -11 418 -11 c 256
417 45 m 256
 585 45 719 187 719 356 c 256
 719 524 585 665 417 665 c 256
 249 665 116 524 116 356 c 256
 116 187 249 45 417 45 c 256
359 385 m 257
 403 385 l 258
 462 385 498 394 498 437 c 256
 498 485 483 490 412 490 c 258
 359 490 l 257
 359 385 l 257
253 142 m 257
 253 572 l 257
 409 572 l 258
 545 572 602 526 602 443 c 256
 602 396 584 344 516 325 c 257
 607 142 l 257
 493 142 l 257
 418 308 l 257
 358 308 l 257
 358 142 l 257
 253 142 l 257
EndSplineSet
EndChar

StartChar: ring
Encoding: 730 730 403
Width: 341
VWidth: 0
Flags: HW
PickledData: "(dp1
S'org.robofab.postScriptHintData'
p2
(dp3
sS'com.typemytype.robofont.layerData'
p4
(dp5
S'b'
(dp6
S'name'
p7
S'ring'
p8
sS'lib'
p9
(dp10
sS'unicodes'
p11
(tsS'width'
p12
F633.35000000000002
sS'contours'
p13
(tsS'components'
p14
(tsS'anchors'
p15
(tsss."
LayerCount: 2
Fore
SplineSet
165 563 m 256
 105 563 58 607 58 667 c 256
 58 728 105 771 165 771 c 256
 224 771 273 728 273 667 c 256
 273 607 224 563 165 563 c 256
166 614 m 256
 195 614 218 638 218 667 c 256
 218 696 195 720 166 720 c 256
 138 720 114 696 114 667 c 256
 114 638 138 614 166 614 c 256
EndSplineSet
EndChar

StartChar: s
Encoding: 115 115 405
Width: 482
VWidth: 0
Flags: HW
PickledData: "(dp1
S'org.robofab.postScriptHintData'
p2
(dp3
sS'com.typemytype.robofont.layerData'
p4
(dp5
S'b'
(dp6
S'name'
p7
S's'
sS'lib'
p8
(dp9
sS'unicodes'
p10
(tsS'width'
p11
F981.89999999999998
sS'contours'
p12
((dp13
S'points'
p14
((dp15
S'segmentType'
p16
S'curve'
p17
sS'x'
F498
sS'smooth'
p18
I01
sS'y'
F-23
s(dp19
S'y'
F-23
sS'x'
F282
sg18
I00
s(dp20
S'y'
F70
sS'x'
F145
sg18
I00
s(dp21
g16
S'curve'
p22
sS'x'
F116
sg18
I00
sS'y'
F94
s(dp23
g16
S'line'
p24
sS'x'
F160
sg18
I00
sS'y'
F222
s(dp25
S'y'
F189
sS'x'
F208
sg18
I00
s(dp26
S'y'
F109
sS'x'
F348
sg18
I00
s(dp27
g16
S'curve'
p28
sS'x'
F484
sg18
I01
sS'y'
F109
s(dp29
S'y'
F109
sS'x'
F589
sg18
I00
s(dp30
S'y'
F141
sS'x'
F711
sg18
I00
s(dp31
g16
S'curve'
p32
sS'x'
F711
sg18
I01
sS'y'
F272
s(dp33
S'y'
F395
sS'x'
F711
sg18
I00
s(dp34
S'y'
F426
sS'x'
F561
sg18
I00
s(dp35
g16
S'curve'
p36
sS'x'
F412
sg18
I00
sS'y'
F474
s(dp37
S'y'
F521
sS'x'
F262
sg18
I00
s(dp38
S'y'
F585
sS'x'
F112
sg18
I00
s(dp39
g16
S'curve'
p40
sS'x'
F112
sg18
I01
sS'y'
F771
s(dp41
S'y'
F970
sS'x'
F112
sg18
I00
s(dp42
S'y'
F1051
sS'x'
F318
sg18
I00
s(dp43
g16
S'curve'
p44
sS'x'
F488
sg18
I01
sS'y'
F1051
s(dp45
S'y'
F1051
sS'x'
F715
sg18
I00
s(dp46
S'y'
F991
sS'x'
F792
sg18
I00
s(dp47
g16
S'curve'
p48
sS'x'
F832
sg18
I00
sS'y'
F966
s(dp49
g16
S'line'
p50
sS'x'
F785
sg18
I00
sS'y'
F851
s(dp51
S'y'
F858
sS'x'
F772
sg18
I00
s(dp52
S'y'
F917
sS'x'
F667
sg18
I00
s(dp53
g16
S'curve'
p54
sS'x'
F504
sg18
I01
sS'y'
F917
s(dp55
S'y'
F917
sS'x'
F355
sg18
I00
s(dp56
S'y'
F882
sS'x'
F283
sg18
I00
s(dp57
g16
S'curve'
p58
sS'x'
F283
sg18
I01
sS'y'
F774
s(dp59
S'y'
F660
sS'x'
F283
sg18
I00
s(dp60
S'y'
F629
sS'x'
F433
sg18
I00
s(dp61
g16
S'curve'
p62
sS'x'
F582
sg18
I01
sS'y'
F581
s(dp63
S'y'
F533
sS'x'
F732
sg18
I00
s(dp64
S'y'
F468
sS'x'
F881
sg18
I00
s(dp65
g16
S'curve'
p66
sS'x'
F881
sg18
I01
sS'y'
F284
s(dp67
S'y'
F62
sS'x'
F881
sg18
I00
s(dp68
S'y'
F-23
sS'x'
F685
sg18
I00
stp69
stp70
sS'components'
p71
(tsS'anchors'
p72
(tsss."
LayerCount: 2
Fore
SplineSet
261 -11 m 256
 166 -11 91 21 52 52 c 257
 82 139 l 257
 123 107 191 84 250 84 c 256
 302 84 332 100 332 142 c 258
 332 151 l 258
 332 169 328 182 264 203 c 258
 192 226 l 258
 111 252 57 279 57 368 c 256
 57 473 144 513 243 513 c 256
 305 513 372 497 422 464 c 257
 391 381 l 257
 353 401 295 418 251 418 c 256
 196 418 173 407 173 375 c 256
 173 346 182 336 263 309 c 258
 328 287 l 257
 400 263 443 231 443 142 c 256
 443 26 345 -11 261 -11 c 256
EndSplineSet
EndChar

StartChar: section
Encoding: 167 167 412
Width: 539
VWidth: 0
Flags: HW
PickledData: "(dp1
S'org.robofab.postScriptHintData'
p2
(dp3
sS'com.typemytype.robofont.layerData'
p4
(dp5
S'b'
(dp6
S'name'
p7
S'section'
p8
sS'lib'
p9
(dp10
sS'unicodes'
p11
(tsS'width'
p12
F1071.6500000000001
sS'contours'
p13
(tsS'components'
p14
(tsS'anchors'
p15
(tsss."
LayerCount: 2
Fore
SplineSet
314 289 m 257
 323 301 329 312 329 334 c 256
 329 374 297 382 236 410 c 257
 229 405 208 385 208 358 c 256
 208 325 243 321 314 289 c 257
255 -30 m 256
 201 -30 145 -20 91 0 c 257
 91 102 l 257
 133 85 198 70 250 70 c 256
 292 70 326 86 326 125 c 256
 326 148 298 161 185 216 c 256
 123 245 83 291 83 348 c 256
 83 393 107 432 147 460 c 257
 110 489 95 524 95 576 c 256
 95 677 181 723 285 723 c 256
 331 723 383 715 431 699 c 257
 431 600 l 257
 404 605 351 629 301 629 c 256
 265 629 228 615 228 583 c 256
 228 554 265 526 333 494 c 257
 401 458 463 424 463 353 c 256
 463 308 439 273 400 241 c 257
 438 219 459 179 459 128 c 256
 459 20 365 -30 255 -30 c 256
EndSplineSet
EndChar

StartChar: semicolon
Encoding: 59 59 413
Width: 263
VWidth: 0
Flags: HW
PickledData: "(dp1
S'org.robofab.postScriptHintData'
p2
(dp3
sS'com.typemytype.robofont.layerData'
p4
(dp5
s."
LayerCount: 2
Fore
SplineSet
87 439 m 257
 87 572 l 257
 210 572 l 257
 210 439 l 257
 87 439 l 257
32 -112 m 257
 85 131 l 257
 222 131 l 257
 135 -112 l 257
 32 -112 l 257
EndSplineSet
EndChar

StartChar: seven
Encoding: 55 55 414
Width: 621
VWidth: 0
Flags: HW
PickledData: "(dp1
S'org.robofab.postScriptHintData'
p2
(dp3
sS'com.typemytype.robofont.layerData'
p4
(dp5
s."
LayerCount: 2
Fore
SplineSet
153 0 m 257
 422 609 l 257
 71 609 l 257
 71 711 l 257
 565 711 l 257
 565 616 l 257
 286 0 l 257
 153 0 l 257
EndSplineSet
EndChar

StartChar: six
Encoding: 54 54 415
Width: 621
VWidth: 0
Flags: HW
PickledData: "(dp1
S'org.robofab.postScriptHintData'
p2
(dp3
sS'com.typemytype.robofont.layerData'
p4
(dp5
s."
LayerCount: 2
Fore
SplineSet
332 95 m 256
 403 95 450 154 450 231 c 256
 450 308 412 368 339 368 c 256
 259 368 212 309 212 229 c 256
 212 145 276 95 332 95 c 256
335 -11 m 256
 160 -11 74 131 74 341 c 256
 74 551 173 724 361 724 c 256
 434 724 496 704 542 661 c 257
 501 568 l 257
 458 602 413 618 362 618 c 256
 271 618 210 521 205 396 c 257
 245 453 297 470 346 470 c 256
 488 470 578 377 578 232 c 256
 578 93 483 -11 335 -11 c 256
EndSplineSet
EndChar

StartChar: slash
Encoding: 47 47 416
Width: 333
VWidth: 0
Flags: HW
PickledData: "(dp1
S'org.robofab.postScriptHintData'
p2
(dp3
sS'com.typemytype.robofont.layerData'
p4
(dp5
s."
LayerCount: 2
Fore
SplineSet
-40 -116 m 257
 275 711 l 257
 383 711 l 257
 65 -116 l 257
 -40 -116 l 257
EndSplineSet
EndChar

StartChar: uni00AD
Encoding: 173 173 418
Width: 360
VWidth: 0
Flags: HW
PickledData: "(dp1
S'org.robofab.postScriptHintData'
p2
(dp3
s."
LayerCount: 2
Fore
SplineSet
26 223 m 257
 26 316 l 257
 335 316 l 257
 335 223 l 257
 26 223 l 257
EndSplineSet
EndChar

StartChar: sterling
Encoding: 163 163 420
Width: 612
VWidth: 0
Flags: HW
PickledData: "(dp1
S'org.robofab.postScriptHintData'
p2
(dp3
sS'com.typemytype.robofont.layerData'
p4
(dp5
S'b'
(dp6
S'name'
p7
S'sterling'
p8
sS'lib'
p9
(dp10
sS'unicodes'
p11
(tsS'width'
p12
F1207.3
sS'contours'
p13
(tsS'components'
p14
(tsS'anchors'
p15
(tsss."
LayerCount: 2
Fore
SplineSet
533 595 m 257
 491 614 451 626 405 626 c 256
 321 626 283 582 283 463 c 258
 283 411 l 257
 448 411 l 257
 448 317 l 257
 282 317 l 257
 282 302 l 258
 282 213 277 143 246 100 c 257
 575 100 l 257
 575 0 l 257
 71 0 l 257
 71 91 l 257
 107 126 162 158 162 304 c 258
 162 317 l 257
 71 317 l 257
 71 411 l 257
 160 411 l 257
 160 436 l 258
 160 594 199 725 397 725 c 256
 460 725 515 714 562 689 c 257
 533 595 l 257
EndSplineSet
EndChar

StartChar: summation
Encoding: 8721 8721 421
Width: 616
VWidth: 0
Flags: HW
PickledData: "(dp1
S'org.robofab.postScriptHintData'
p2
(dp3
sS'com.typemytype.robofont.layerData'
p4
(dp5
S'b'
(dp6
S'name'
p7
S'summation'
p8
sS'lib'
p9
(dp10
sS'unicodes'
p11
(tsS'width'
p12
F1198.3
sS'contours'
p13
(tsS'components'
p14
(tsS'anchors'
p15
(tsss."
LayerCount: 2
Fore
SplineSet
40 -130 m 257
 40 -65 l 257
 293 295 l 257
 51 648 l 257
 51 711 l 257
 571 711 l 257
 571 611 l 257
 233 611 l 257
 442 296 l 257
 227 -27 l 257
 592 -27 l 257
 592 -130 l 257
 40 -130 l 257
EndSplineSet
EndChar

StartChar: t
Encoding: 116 116 422
Width: 392
VWidth: 0
Flags: HW
PickledData: "(dp1
S'org.robofab.postScriptHintData'
p2
(dp3
sS'com.typemytype.robofont.layerData'
p4
(dp5
S'b'
(dp6
S'name'
p7
S't'
sS'lib'
p8
(dp9
sS'unicodes'
p10
(tsS'width'
p11
F763.89999999999998
sS'contours'
p12
(tsS'components'
p13
(tsS'anchors'
p14
(tsss."
AnchorPoint: "caron.alt" 130 664 basechar 0
LayerCount: 2
Fore
SplineSet
360 0 m 257
 312 0 l 258
 188 0 105 21 105 184 c 258
 105 420 l 257
 0 420 l 257
 0 501 l 257
 110 501 l 257
 110 618 l 257
 226 654 l 257
 226 501 l 257
 356 501 l 257
 356 420 l 257
 226 420 l 257
 226 176 l 258
 226 100 248 93 360 93 c 257
 360 0 l 257
EndSplineSet
EndChar

StartChar: thorn
Encoding: 254 254 427
Width: 600
VWidth: 0
Flags: HW
PickledData: "(dp1
S'org.robofab.postScriptHintData'
p2
(dp3
sS'com.typemytype.robofont.layerData'
p4
(dp5
s."
LayerCount: 2
Fore
SplineSet
302 86 m 256
 388 86 424 166 424 254 c 256
 424 337 395 415 306 415 c 256
 214 415 182 332 182 241 c 256
 182 152 223 86 302 86 c 256
68 -193 m 257
 68 715 l 257
 185 715 l 257
 183 463 l 257
 212 494 277 513 315 513 c 256
 470 513 551 394 551 256 c 256
 551 117 472 -11 314 -11 c 256
 265 -11 216 8 182 30 c 257
 181 -193 l 257
 68 -193 l 257
EndSplineSet
EndChar

StartChar: three
Encoding: 51 51 428
Width: 621
VWidth: 0
Flags: HW
PickledData: "(dp1
S'org.robofab.postScriptHintData'
p2
(dp3
sS'com.typemytype.robofont.layerData'
p4
(dp5
S'b'
(dp6
S'name'
p7
S'three'
p8
sS'lib'
p9
(dp10
sS'unicodes'
p11
(tsS'width'
p12
F1234.0999999999999
sS'contours'
p13
((dp14
S'points'
p15
((dp16
S'segmentType'
p17
S'curve'
p18
sS'x'
F344
sS'smooth'
p19
I01
sS'y'
F1010
s(dp20
S'y'
F827
sS'x'
F344
sg19
I00
s(dp21
S'y'
F687
sS'x'
F423
sg19
I00
s(dp22
g17
S'curve'
p23
sS'x'
F634
sg19
I01
sS'y'
F687
s(dp24
S'y'
F687
sS'x'
F814
sg19
I00
s(dp25
S'y'
F803
sS'x'
F938
sg19
I00
s(dp26
g17
S'curve'
p27
sS'x'
F938
sg19
I01
sS'y'
F991
s(dp28
S'y'
F1166
sS'x'
F938
sg19
I00
s(dp29
S'y'
F1334
sS'x'
F845
sg19
I00
s(dp30
g17
S'curve'
p31
sS'x'
F635
sg19
I01
sS'y'
F1334
s(dp32
S'y'
F1334
sS'x'
F449
sg19
I00
s(dp33
S'y'
F1196
sS'x'
F344
sg19
I00
stp34
s(dp35
g15
((dp36
g17
S'curve'
p37
sS'x'
F594
sg19
I01
sS'y'
F-24
s(dp38
S'y'
F-24
sS'x'
F473
sg19
I00
s(dp39
S'y'
F-1
sS'x'
F367
sg19
I00
s(dp40
g17
S'curve'
p41
sS'x'
F238
sg19
I00
sS'y'
F65
s(dp42
g17
S'line'
p43
sS'x'
F287
sg19
I00
sS'y'
F197
s(dp44
S'y'
F138
sS'x'
F401
sg19
I00
s(dp45
S'y'
F124
sS'x'
F489
sg19
I00
s(dp46
g17
S'curve'
p47
sS'x'
F581
sg19
I01
sS'y'
F124
s(dp48
S'y'
F124
sS'x'
F812
sg19
I00
s(dp49
S'y'
F308
sS'x'
F950
sg19
I00
s(dp50
g17
S'curve'
p51
sS'x'
F950
sg19
I01
sS'y'
F657
s(dp52
g17
S'line'
p53
sS'x'
F950
sg19
I00
sS'y'
F722
s(dp54
S'y'
F600
sS'x'
F886
sg19
I00
s(dp55
S'y'
F544
sS'x'
F772
sg19
I00
s(dp56
g17
S'curve'
p57
sS'x'
F607
sg19
I01
sS'y'
F544
s(dp58
S'y'
F544
sS'x'
F328
sg19
I00
s(dp59
S'y'
F735
sS'x'
F168
sg19
I00
s(dp60
g17
S'curve'
p61
sS'x'
F168
sg19
I01
sS'y'
F1004
s(dp62
S'y'
F1275
sS'x'
F168
sg19
I00
s(dp63
S'y'
F1483
sS'x'
F341
sg19
I00
s(dp64
g17
S'curve'
p65
sS'x'
F643
sg19
I01
sS'y'
F1483
s(dp66
S'y'
F1483
sS'x'
F969
sg19
I00
s(dp67
S'y'
F1231
sS'x'
F1125
sg19
I00
s(dp68
g17
S'curve'
p69
sS'x'
F1125
sg19
I01
sS'y'
F774
s(dp70
S'y'
F203
sS'x'
F1125
sg19
I00
s(dp71
S'y'
F-24
sS'x'
F894
sg19
I00
stp72
stp73
sS'components'
p74
(tsS'anchors'
p75
(tsss."
LayerCount: 2
Fore
SplineSet
304 -11 m 256
 159 -11 82 49 82 49 c 257
 119 142 l 257
 123 139 200 95 283 95 c 256
 372 95 419 138 419 207 c 256
 419 284 347 318 239 318 c 258
 224 318 l 257
 192 317 l 257
 191 422 l 257
 227 422 l 258
 352 422 399 450 399 536 c 256
 399 592 336 618 278 618 c 256
 196 618 151 579 128 566 c 257
 73 656 l 257
 142 702 185 724 294 724 c 256
 411 724 523 664 523 539 c 256
 523 468 485 388 391 374 c 257
 487 356 540 285 540 202 c 256
 540 68 430 -11 304 -11 c 256
119 142 m 257
 119 142 l 257
 119 142 l 257
EndSplineSet
EndChar

StartChar: threequarters
Encoding: 190 190 429
Width: 1237
VWidth: 0
Flags: HW
PickledData: "(dp1
S'org.robofab.postScriptHintData'
p2
(dp3
sS'com.typemytype.robofont.layerData'
p4
(dp5
s."
LayerCount: 2
Fore
SplineSet
772 161 m 257
 859 161 l 257
 859 285 l 257
 772 161 l 257
317 0 m 257
 750 711 l 257
 854 711 l 257
 422 0 l 257
 317 0 l 257
860 0 m 257
 860 95 l 257
 680 95 l 257
 680 150 l 257
 860 397 l 257
 948 397 l 257
 948 161 l 257
 1004 161 l 257
 1004 95 l 257
 948 95 l 257
 948 0 l 257
 860 0 l 257
262 294 m 256
 213 294 159 310 117 340 c 257
 146 406 l 257
 189 380 226 369 254 369 c 256
 296 369 319 392 319 427 c 256
 319 457 290 480 242 480 c 258
 197 480 l 257
 197 550 l 257
 241 550 l 258
 279 550 309 569 309 596 c 256
 309 629 285 643 249 643 c 256
 220 643 180 632 141 610 c 257
 111 672 l 257
 160 699 216 714 265 714 c 256
 338 714 397 681 397 608 c 256
 397 579 387 540 329 522 c 257
 393 506 412 464 412 426 c 256
 412 334 341 294 262 294 c 256
EndSplineSet
EndChar

StartChar: uni00B3
Encoding: 179 179 430
Width: 443
VWidth: 0
Flags: HW
PickledData: "(dp1
S'org.robofab.postScriptHintData'
p2
(dp3
sS'com.typemytype.robofont.layerData'
p4
(dp5
s."
LayerCount: 2
Fore
SplineSet
245 295 m 256
 195 295 141 311 99 340 c 257
 129 406 l 257
 173 380 209 369 237 369 c 256
 278 369 302 394 302 429 c 256
 302 458 274 480 227 480 c 258
 181 480 l 257
 181 550 l 257
 226 550 l 258
 263 550 292 571 292 596 c 256
 292 628 266 645 231 645 c 256
 202 645 164 634 124 613 c 257
 94 673 l 257
 144 700 199 714 249 714 c 256
 322 714 382 683 382 610 c 256
 382 581 370 544 315 524 c 257
 378 507 397 464 397 427 c 256
 397 334 324 295 245 295 c 256
EndSplineSet
EndChar

StartChar: tilde
Encoding: 732 732 431
Width: 360
VWidth: 0
Flags: HW
PickledData: "(dp1
S'org.robofab.postScriptHintData'
p2
(dp3
sS'com.typemytype.robofont.layerData'
p4
(dp5
S'b'
(dp6
S'name'
p7
S'tilde'
p8
sS'lib'
p9
(dp10
sS'unicodes'
p11
(tsS'width'
p12
F672.35000000000002
sS'contours'
p13
(tsS'components'
p14
(tsS'anchors'
p15
(tsss."
LayerCount: 2
Fore
SplineSet
251 573 m 258
 251 573 l 258
 203 573 140 625 110 625 c 256
 98 625 80 613 77 576 c 257
 -1 576 l 257
 -1 659 42 718 105 718 c 256
 163 718 218 670 245 666 c 256
 247 666 250 665 252 665 c 256
 269 665 282 674 282 718 c 257
 361 718 l 257
 361 618 317 573 251 573 c 258
EndSplineSet
EndChar

StartChar: trademark
Encoding: 8482 8482 432
Width: 912
VWidth: 0
Flags: HW
PickledData: "(dp1
S'org.robofab.postScriptHintData'
p2
(dp3
sS'com.typemytype.robofont.layerData'
p4
(dp5
S'b'
(dp6
S'name'
p7
S'trademark'
p8
sS'lib'
p9
(dp10
sS'unicodes'
p11
(tsS'width'
p12
F1869
sS'contours'
p13
(tsS'components'
p14
(tsS'anchors'
p15
(tsss."
LayerCount: 2
Fore
SplineSet
141 307 m 257
 141 606 l 257
 36 606 l 257
 36 689 l 257
 345 689 l 257
 345 606 l 257
 236 606 l 257
 236 307 l 257
 141 307 l 257
393 307 m 257
 393 689 l 257
 504 689 l 257
 615 450 l 257
 724 689 l 257
 836 689 l 257
 836 307 l 257
 739 307 l 257
 739 525 l 257
 645 307 l 257
 585 307 l 257
 487 520 l 257
 487 307 l 257
 393 307 l 257
EndSplineSet
EndChar

StartChar: two
Encoding: 50 50 433
Width: 621
VWidth: 0
Flags: HW
PickledData: "(dp1
S'org.robofab.postScriptHintData'
p2
(dp3
sS'com.typemytype.robofont.layerData'
p4
(dp5
S'b'
(dp6
S'name'
p7
S'two'
p8
sS'lib'
p9
(dp10
sS'unicodes'
p11
(tsS'width'
p12
F1244.5
sS'contours'
p13
(tsS'components'
p14
(tsS'anchors'
p15
(tsss."
LayerCount: 2
Fore
SplineSet
293 723 m 256
 419 723 510 645 510 492 c 256
 510 380 446 313 386 250 c 258
 244 102 l 257
 504 102 l 257
 504 0 l 257
 92 0 l 257
 92 89 l 257
 298 318 l 258
 360 386 392 421 392 486 c 256
 392 498 391 511 389 525 c 256
 377 599 333 618 282 618 c 256
 198 618 103 556 103 556 c 258
 62 653 l 257
 62 653 156 723 293 723 c 256
EndSplineSet
EndChar

StartChar: uni00B2
Encoding: 178 178 434
Width: 523
VWidth: 0
Flags: HW
PickledData: "(dp1
S'org.robofab.postScriptHintData'
p2
(dp3
sS'com.typemytype.robofont.layerData'
p4
(dp5
s."
LayerCount: 2
Fore
SplineSet
110 299 m 257
 110 388 l 257
 237 499 l 257
 294 548 303 571 303 586 c 256
 303 618 281 628 253 628 c 256
 220 628 172 615 131 597 c 257
 102 678 l 257
 155 702 213 716 261 716 c 256
 339 716 406 678 406 587 c 256
 406 526 357 479 302 433 c 257
 259 397 l 257
 400 397 l 257
 400 299 l 257
 110 299 l 257
EndSplineSet
EndChar

StartChar: u
Encoding: 117 117 435
Width: 579
VWidth: 0
Flags: HW
PickledData: "(dp1
S'org.robofab.postScriptHintData'
p2
(dp3
sS'com.typemytype.robofont.layerData'
p4
(dp5
S'b'
(dp6
S'name'
p7
S'u'
sS'lib'
p8
(dp9
sS'unicodes'
p10
(tsS'width'
p11
F1227.2
sS'contours'
p12
(tsS'components'
p13
(tsS'anchors'
p14
(tsss."
LayerCount: 2
Fore
SplineSet
256 -11 m 256
 134 -11 63 64 63 184 c 258
 63 501 l 257
 184 501 l 257
 184 186 l 258
 184 118 223 86 281 86 c 256
 352 86 387 119 387 201 c 258
 387 501 l 257
 508 501 l 257
 508 135 l 258
 508 109 514 0 514 0 c 257
 389 0 l 257
 387 74 l 257
 381 50 344 -11 256 -11 c 256
EndSplineSet
EndChar

StartChar: underscore
Encoding: 95 95 446
Width: 494
VWidth: 0
Flags: HW
PickledData: "(dp1
S'org.robofab.postScriptHintData'
p2
(dp3
sS'com.typemytype.robofont.layerData'
p4
(dp5
s."
LayerCount: 2
Fore
SplineSet
-7 -124 m 257
 -7 -29 l 257
 500 -29 l 257
 500 -124 l 257
 -7 -124 l 257
EndSplineSet
EndChar

StartChar: uni0307
Encoding: 775 775 459
Width: 255
VWidth: 0
Flags: HW
PickledData: "(dp1
S'org.robofab.postScriptHintData'
p2
(dp3
s."
LayerCount: 2
Fore
SplineSet
66 563 m 257
 66 677 l 257
 189 677 l 257
 189 563 l 257
 66 563 l 257
EndSplineSet
EndChar

StartChar: uni030F
Encoding: 783 783 460
Width: 473
VWidth: 0
Flags: HW
PickledData: "(dp1
S'org.robofab.postScriptHintData'
p2
(dp3
s."
LayerCount: 2
Fore
SplineSet
274 562 m 257
 172 730 l 257
 27 730 l 257
 183 562 l 257
 274 562 l 257
439 562 m 257
 364 730 l 257
 235 730 l 257
 352 562 l 257
 439 562 l 257
EndSplineSet
EndChar

StartChar: uni0311
Encoding: 785 785 461
Width: 307
VWidth: 0
Flags: HW
PickledData: "(dp1
S'org.robofab.postScriptHintData'
p2
(dp3
sS'com.typemytype.robofont.layerData'
p4
(dp5
s."
LayerCount: 2
Fore
SplineSet
-7 562 m 257
 0 665 51 710 153 710 c 256
 255 710 306 664 313 562 c 257
 222 562 l 257
 218 610 180 619 152 619 c 256
 125 619 87 611 85 562 c 257
 -7 562 l 257
EndSplineSet
EndChar

StartChar: uni0312
Encoding: 786 786 462
Width: 292
VWidth: 0
Flags: HW
PickledData: "(dp1
S'org.robofab.postScriptHintData'
p2
(dp3
s."
LayerCount: 2
Fore
SplineSet
284 848 m 257
 229 605 l 257
 94 605 l 257
 182 848 l 257
 284 848 l 257
EndSplineSet
EndChar

StartChar: uni0326
Encoding: 806 806 463
Width: 263
VWidth: 0
Flags: HW
PickledData: "(dp1
S'org.robofab.postScriptHintData'
p2
(dp3
s."
LayerCount: 2
Fore
SplineSet
36 -316 m 257
 91 -69 l 257
 228 -69 l 257
 140 -316 l 257
 36 -316 l 257
EndSplineSet
EndChar

StartChar: afii00208
Encoding: 8213 8213 464
Width: 1999
VWidth: 0
Flags: HW
PickledData: "(dp1
S'org.robofab.postScriptHintData'
p2
(dp3
s."
LayerCount: 2
Fore
SplineSet
26 221 m 257
 26 313 l 257
 1973 313 l 257
 1973 221 l 257
 26 221 l 257
EndSplineSet
EndChar

StartChar: v
Encoding: 118 118 469
Width: 549
VWidth: 0
Flags: HW
PickledData: "(dp1
S'org.robofab.postScriptHintData'
p2
(dp3
sS'com.typemytype.robofont.layerData'
p4
(dp5
S'b'
(dp6
S'name'
p7
S'v'
sS'lib'
p8
(dp9
sS'unicodes'
p10
(tsS'width'
p11
F1056.8
sS'contours'
p12
(tsS'components'
p13
(tsS'anchors'
p14
(tsss."
LayerCount: 2
Fore
SplineSet
219 0 m 257
 8 501 l 257
 143 501 l 257
 188 379 233 256 279 135 c 257
 323 256 368 379 411 501 c 257
 542 501 l 257
 329 0 l 257
 219 0 l 257
EndSplineSet
EndChar

StartChar: w
Encoding: 119 119 470
Width: 822
VWidth: 0
Flags: HW
PickledData: "(dp1
S'org.robofab.postScriptHintData'
p2
(dp3
sS'com.typemytype.robofont.layerData'
p4
(dp5
S'b'
(dp6
S'name'
p7
S'w'
sS'lib'
p8
(dp9
sS'unicodes'
p10
(tsS'width'
p11
F1634.0999999999999
sS'contours'
p12
(tsS'components'
p13
(tsS'anchors'
p14
(tsss."
LayerCount: 2
Fore
SplineSet
188 0 m 257
 7 501 l 257
 136 501 l 257
 174 384 212 267 250 149 c 257
 289 267 328 384 368 501 c 257
 474 501 l 257
 512 383 548 265 586 148 c 257
 624 267 664 383 703 501 c 257
 816 501 l 257
 626 0 l 257
 525 0 l 257
 487 114 448 227 411 341 c 257
 371 227 331 114 290 0 c 257
 188 0 l 257
EndSplineSet
EndChar

StartChar: x
Encoding: 120 120 475
Width: 507
VWidth: 0
Flags: HW
PickledData: "(dp1
S'org.robofab.postScriptHintData'
p2
(dp3
sS'com.fontlab.hintData'
p4
(dp5
S'hhints'
p6
((dp7
S'position'
p8
I0
sS'width'
p9
I21
s(dp10
g8
I1006
sg9
I20
stp11
ssS'com.typemytype.robofont.layerData'
p12
(dp13
S'b'
(dp14
S'name'
p15
S'x'
sS'lib'
p16
(dp17
sS'unicodes'
p18
(tsg9
F1062.8499999999999
sS'contours'
p19
(tsS'components'
p20
(tsS'anchors'
p21
(tsss."
HStem: 0 10<5 5 5 133 368 368 368 502> 491 10<14 148 148 148 376 501 501 501>
LayerCount: 2
Fore
SplineSet
5 0 m 257
 186 244 l 257
 14 501 l 257
 148 501 l 257
 256 339 l 257
 376 501 l 257
 501 501 l 257
 325 261 l 257
 502 0 l 257
 368 0 l 257
 255 166 l 257
 133 0 l 257
 5 0 l 257
EndSplineSet
EndChar

StartChar: y
Encoding: 121 121 476
Width: 543
VWidth: 0
Flags: HW
PickledData: "(dp1
S'org.robofab.postScriptHintData'
p2
(dp3
sS'com.typemytype.robofont.layerData'
p4
(dp5
S'b'
(dp6
S'name'
p7
S'y'
sS'lib'
p8
(dp9
sS'unicodes'
p10
(tsS'width'
p11
F1065.05
sS'contours'
p12
(tsS'components'
p13
(tsS'anchors'
p14
(tsss."
LayerCount: 2
Fore
SplineSet
124 -217 m 257
 73 -135 l 257
 163 -100 205 -66 221 -13 c 257
 228 11 l 257
 15 501 l 257
 141 501 l 257
 286 142 l 257
 411 501 l 257
 534 501 l 257
 331 -27 l 257
 288 -135 206 -192 124 -217 c 257
EndSplineSet
EndChar

StartChar: yen
Encoding: 165 165 480
Width: 625
VWidth: 0
Flags: HW
PickledData: "(dp1
S'org.robofab.postScriptHintData'
p2
(dp3
sS'com.typemytype.robofont.layerData'
p4
(dp5
S'b'
(dp6
S'name'
p7
S'yen'
p8
sS'lib'
p9
(dp10
sS'unicodes'
p11
(tsS'width'
p12
F1225.45
sS'contours'
p13
(tsS'components'
p14
(tsS'anchors'
p15
(tsss."
LayerCount: 2
Fore
SplineSet
66 134 m 257
 66 205 l 257
 248 205 l 257
 248 273 l 257
 66 273 l 257
 66 346 l 257
 206 346 l 257
 -6 711 l 257
 135 711 l 257
 312 385 l 257
 486 711 l 257
 631 711 l 257
 414 346 l 257
 552 346 l 257
 552 273 l 257
 372 273 l 257
 372 205 l 257
 554 205 l 257
 554 134 l 257
 372 134 l 257
 372 0 l 257
 248 0 l 257
 248 134 l 257
 66 134 l 257
EndSplineSet
EndChar

StartChar: z
Encoding: 122 122 484
Width: 486
VWidth: 0
Flags: HW
PickledData: "(dp1
S'org.robofab.postScriptHintData'
p2
(dp3
sS'com.typemytype.robofont.layerData'
p4
(dp5
S'b'
(dp6
S'name'
p7
S'z'
sS'lib'
p8
(dp9
sS'unicodes'
p10
(tsS'width'
p11
F971.85000000000002
sS'contours'
p12
(tsS'components'
p13
(tsS'anchors'
p14
(tsss."
LayerCount: 2
Fore
SplineSet
47 0 m 257
 47 64 l 257
 284 404 l 257
 60 404 l 257
 60 501 l 257
 441 501 l 257
 441 438 l 257
 203 96 l 257
 454 96 l 257
 454 0 l 257
 47 0 l 257
EndSplineSet
EndChar

StartChar: zero
Encoding: 48 48 488
Width: 621
VWidth: 0
Flags: HW
PickledData: "(dp1
S'org.robofab.postScriptHintData'
p2
(dp3
sS'com.typemytype.robofont.layerData'
p4
(dp5
s."
LayerCount: 2
Fore
SplineSet
311 -11 m 256
 150 -11 61 139 61 362 c 256
 61 590 148 724 312 724 c 256
 475 724 561 582 561 362 c 256
 561 140 476 -11 311 -11 c 256
312 95 m 256
 404 95 434 207 434 361 c 256
 434 491 405 618 313 618 c 256
 217 618 188 493 188 361 c 256
 188 207 216 95 312 95 c 256
EndSplineSet
EndChar

StartChar: uni0358
Encoding: 856 856 493
Width: 255
VWidth: 0
Flags: HW
LayerCount: 2
Fore
SplineSet
66 563 m 257
 66 677 l 257
 189 677 l 257
 189 563 l 257
 66 563 l 257
EndSplineSet
EndChar

StartChar: Sigma
Encoding: 931 931 494
Width: 616
VWidth: 0
Flags: HW
LayerCount: 2
Fore
SplineSet
40 -130 m 257
 40 -65 l 257
 293 295 l 257
 51 648 l 257
 51 711 l 257
 571 711 l 257
 571 611 l 257
 233 611 l 257
 442 296 l 257
 227 -27 l 257
 592 -27 l 257
 592 -130 l 257
 40 -130 l 257
EndSplineSet
EndChar

StartChar: emptyset
Encoding: 8709 8709 495
Width: 819
VWidth: 0
Flags: HW
LayerCount: 2
Fore
SplineSet
40 358 m 256
 40 570 216 734 406 734 c 256
 490 734 571 701 635 648 c 257
 721 745 l 257
 763 713 l 257
 673 613 l 257
 734 547 772 458 772 358 c 256
 772 146 596 -18 406 -18 c 256
 324 -18 245 13 182 64 c 257
 88 -42 l 257
 50 -8 l 257
 144 98 l 257
 80 165 40 256 40 358 c 256
215 101 m 257
 270 57 337 33 406 33 c 256
 569 33 722 175 722 358 c 256
 722 443 690 518 639 575 c 257
 215 101 l 257
178 136 m 257
 602 611 l 257
 546 657 477 683 406 683 c 256
 243 683 90 541 90 358 c 256
 90 271 125 193 178 136 c 257
EndSplineSet
EndChar

StartChar: uni02C9
Encoding: 713 713 496
Width: 292
VWidth: 0
Flags: HW
LayerCount: 2
Fore
SplineSet
-24 654 m 257
 311 654 l 257
 311 735 l 257
 -24 735 l 257
 -24 654 l 257
EndSplineSet
EndChar

